<?xml version="1.0" encoding="utf-8"?>
<!-- Generator: Adobe Illustrator 25.0.0, SVG Export Plug-In . SVG Version: 6.00 Build 0)  -->
<svg version="1.1" id="Layer_1" xmlns="http://www.w3.org/2000/svg" xmlns:xlink="http://www.w3.org/1999/xlink" x="0px" y="0px"
	 viewBox="0 0 72 72" style="enable-background:new 0 0 72 72;" xml:space="preserve">
<style type="text/css">
	.st0{display:none;}
	.st1{fill:#1C75BC;}
	.st2{fill:#FFFFFF;}
</style>
<g id="Layer_2_1_" class="st0">
	
		<image style="display:inline;overflow:visible;enable-background:new    ;" width="1572" height="934" xlink:href="icon_image_references/Screen Shot 2021-06-07 at 2.15.14 PM.png"  transform="matrix(0.2598 0 0 0.2598 -113.1535 -94.4492)">
	</image>
</g>
<g id="Layer_6" class="st0">
</g>
<g id="Layer_4" class="st0">
	
		<image style="display:inline;overflow:visible;enable-background:new    ;" width="1024" height="683" xlink:href="icon_image_references/hudson shoreline.jpeg"  transform="matrix(0.24 0 0 0.24 -8.9211 -25.0719)">
	</image>
</g>
<g id="Layer_5" class="st0">
	
		<image style="display:inline;overflow:visible;enable-background:new    ;" width="986" height="1482" xlink:href="../../../../../Desktop/Screen Shot 2021-07-09 at 12.43.06 PM.png"  transform="matrix(3.867235e-02 0 0 3.867235e-02 19.599 10.2305)">
	</image>
</g>
<g id="Layer_1_1_">
	<g>
		<circle class="st1" cx="36" cy="36.1" r="35.9"/>
	</g>
</g>
<g id="Layer_3" class="st0">
	
		<image style="display:inline;overflow:visible;opacity:0.54;enable-background:new    ;" width="564" height="564" xlink:href="icon_image_references/eelgrass.jpeg"  transform="matrix(9.741373e-02 0 0 9.741373e-02 9.89 13.0403)">
	</image>
</g>
<g id="Layer_7">
	<path class="st2" d="M48.8,45.1c0.4-1.3,0.2-3.6-0.7-5.4c-0.4-0.7-0.9-1.5-1.4-2.4c0.6-0.8,1.2-1.7,1.3-2.4c0.2-0.9,0-1.1,0.4-1.9
		c0.3-0.8,0.3-1.1,0-1c-0.3,0.1-0.7,0.9-0.9,1.7c-0.2,0.8-0.8,2.1-1.2,2.8c-0.9-1.3-1.8-2.5-2.4-3.3c0-0.1,0.1-0.4,0.2-0.5
		c0.3-0.6,0.2-0.9-0.1-0.8c-0.2,0.1-0.3,0.3-0.5,0.7c0,0-0.4-0.7-0.6-1.3c-0.3-0.9-0.6-1.9-0.6-2.5c0-1.3-0.6-1.6-0.7-2.5
		c0-0.6,0.1-0.7,0.4-1.4c0.4-0.7,0.6-0.9,1.1-0.9c0.4,0,1-0.6,0.6-0.6c-0.3,0-1.7-0.2-2.2,0.8c-0.5,1-1.2,1.8-0.4,3.5
		c0.8,1.8,0,3,1.2,5c0.2,0.3,0.3,0.5,0.6,0.9c-0.2,0.9-0.6,2.2-1,2.9c-0.2,0.3-0.4,0.5-0.6,0.8c-0.1-0.4-0.1-0.7-0.1-1.3
		c0.1-1.3,0.3-2.1,0.3-2.7c0-0.5-0.2-0.3-0.3-0.2s-0.2,0.5-0.4,1.1c-0.1,0.6-0.3,1.6-0.3,2.1c0,0.3,0.1,1,0.2,1.7
		c-0.1,0.2-0.3,0.4-0.4,0.8c-0.2,0.5-0.2,0.7-0.8,1.7c-0.7,1.2-1.5,2.7-1.9,3.8c-0.4,1-0.6,2.3-0.5,4c0,0.6-0.4,2.4-0.9,3.1
		c-0.3,0.5-0.9,1.8-1.2,2.3c0-0.6,0-0.8,0-1.1c0-0.7,0.9-3,1.1-3.9c0.2-1,1.3-5.2,1.5-6.2s0.6-2.4-0.1-4c-0.8-1.7-1-2.8-1.6-3.8
		c-0.6-1.1-0.8-2-1.1-2.8c-0.1-0.4-0.4-0.9-0.6-1.4c0.2-1.2,0.5-2,0.6-2.3c0.4-1.2,1-2.4,1.5-3.5c0.5-1,0.7-2.2,0.5-3.1
		c-0.1-0.5-0.5-2.6-0.9-4.4c0.6-0.6,1.3-1.3,1.6-1.9c0.3-0.6,0.7-1,1.1-1.7c0.4,0.2,1.4,0.9,2,1.1c0.7,0.2,1.1,0.1,2,0.1
		c0.8,0,1.1-0.4,1.5-0.3c0.4,0,0.7,0,0.6-0.3s-0.1-0.4-1.1-0.4c-0.4,0-1.5,0.3-2.6,0.1c-0.7-0.1-1.2-0.7-1.7-0.9
		c0,0,0.1-0.1,0.2-0.2c2.6,0,5.1,0,5.8-0.2c0.5-0.1,1.1-0.4,1.7-0.5c0.4-0.1,0.5-0.4,0.4-0.4c-0.4-0.1-0.8-0.1-1.4,0
		c-0.6,0.1-1,0.3-2,0.3c-1,0-1.2-0.1-2.5-0.1c-0.3,0-1.2,0-1.5,0c0.2-0.3,0.4-0.5,0.5-0.5c0.4,0,1.2,0.1,1.9-0.1
		c0.7-0.1,1.4-0.3,1.5-0.4c1.1,0.3,2,0.5,3.3,0.1c0.7-0.2,1.3-0.5,1.5-0.7c0.3,0.2,0.6,0.5,1,0.8c0.4,0.3,1.4,0.9,3.1,0.8
		c1-0.1,0.8-0.6,0.3-0.7s-0.9,0-1.8-0.3c-1.2-0.5-1.3-0.8-1.8-1.2c0.4-0.2,0.8-0.4,1.5-0.4c2,0.1,2.4-0.3,3.4,0.4
		c1,0.7,1.2,0.7,1.6,0.7c0.8,0,0.6-0.4-0.1-0.7c-0.7-0.3-1.4-1.3-2.9-1.3c-1.4,0-2.6-0.1-3.4,0.2c-0.3,0.1-0.6,0.3-1,0.5
		c-0.1,0.1-0.2,0.1-0.3,0.1c-0.2,0-0.6,0-0.7,0c-1.4,0-1.5,0-2.9,0.3c-0.3,0.1-0.7,0.1-1,0.2c0,0,1.7-1,2.5-1.1
		c0.6,0,1.5,0.1,1.8-0.2c0.1-0.1,0.2-0.5-0.9-0.6s-1.5,0-2.3,0.3c-0.2,0.1-1.3,0.6-2.5,1.2C41.1,8.7,39.8,8,38.2,9
		c-0.3,0.2-0.3,0.2-0.7,0.4c-1.3-0.5-3.1-0.6-4.3,0C33,9.5,32.3,9.8,32.1,10c-0.3-0.1-1.2-0.4-1.4-0.4c-1.5-0.2-2.5,0.4-3.1,0.6
		c-0.6,0.2-1.2,1-1.5,1.3c-1.3-0.1-1.4,0.5-3.5,0.3c-1.4-0.1-2.7,0.5-2.8,3c-0.1,2.5,0.1,4.3-1,6.4c-0.7,1.3-0.2,3.1,0.6,4.6
		c-0.3,0.1-2.4,0.7-2.4,3.1c0,1.2-0.6,2.8-0.6,4s0.1,2.5,0.9,3.4c0.8,0.9,3.5,2.6,3.5,4.5c0,1.9-0.9,5.7-0.7,7.4
		c0.2,1.6,1.4,4.8,2.2,7c0.8,2.3,3.4,3,3.8,4.7c0.6,1.3,0.2,2.5,1.3,3.7c0.7,0.9,1,1.1,1.7,1.5c0.7,0.5,0.7,0.9,0.7,1.2
		c0,0-0.7,0.2-1.9,0.6c-1.1,0.4-2.6,0.9-4.2,0.7c-1.8-0.3-3,0.2-4.5,0.3c1,0.6,2.6,1.3,5.5,2.3c2.1,0.7,5.3,1.5,8.5,1.7
		c3.2,0.2,5.7,0,8.2-0.3c2.4-0.3,4.8-1,7.1-1.8c1.9-0.7,2.8-1.2,4-1.8c2-1,3.3-1.9,4.3-2.6c-0.4-0.2-2.3,0.1-4.1,0.4
		c-1.9,0.4-3.6,1-7.6,1.2c-2.6,0.2-4.6,0.2-5.7-0.2C39,66.5,37.8,66,37,65.5c-1-0.7-1-1.1-1-1.1c0.3-0.4,0.6-0.1,1.6-0.5
		c0.8-0.4,1.4-1.1,1.8-1.5c0.9-0.7,3-1.5,4.6-2.2c1.1-0.5,1.3-1.5,3.5-1.9c1.1-0.2,2.4-0.7,3.1-1.2c0.8-0.5,0.8-0.8,1.5-1.1
		c0.8-0.4,1-0.6,0.6-0.7c-0.3-0.1-1.1,0.2-1.8,0.7c-0.7,0.5-1.8,0.9-2.6,1.1c-0.8,0.2-1.4,0.2-2.4,0.7c-0.4,0.2-1.6,1-2.3,1.3
		c-1.8,0.8-2.9,1-3.9,1.7c-0.7,0.4-1.6,1-2.4,1.4c-0.1,0.1-0.3,0.3-0.4,0.3c0.3-0.5,0.6-0.8,1.2-1.4c1.7-1.7,2.6-1.6,3.8-3.2
		c0.7-0.9,1.3-1.9,2.1-3.7c0.3-0.6,0.6-1.6,0.8-2.3l0.1-0.2c0.6-0.5,1.9-2.1,2.3-2.4c0.9-0.7,1.9-1,3.6-1.5c1.2-0.4,2.1-1.8,4.2-2.2
		c1.1-0.2,1.9-0.6,2.6-1.1c0.8-0.5,0.8-0.8,1.5-1.1c0.8-0.3,1-0.5,0.6-0.6c-0.3-0.1-1.2-0.1-1.9,0.4c-0.7,0.5-2,1.4-2.8,1.6
		c-0.8,0.2-1.5,0.2-2.4,0.7c-0.4,0.2-1.2,1.1-1.9,1.3c-1.6,0.5-3.1,1.1-4,1.7c-0.6,0.3-1.1,1.3-1.7,1.9c0-0.1,0-0.1,0-0.2
		c0.1,0,1.4-1,1.7-1.6c0.7-0.7,0.7-0.9,1.1-1.2c0.6-0.5,1.3-1.1,1.8-1.4c0.5-0.3,0.4,0,0.8-0.2c0.4-0.2-0.2-0.5-0.7-0.5
		c-0.5,0-2.7,1.5-3.5,2.8 M47.5,9.7c-0.2,0.1-0.6,0.3-1,0.4c-0.4,0.1-0.8,0.2-1.6,0C45.7,9.8,47,9.7,47.5,9.7z M42.4,10.1L42.4,10.1
		c-0.1,0-0.2,0.1-0.3,0.1C42.2,10.2,42.3,10.1,42.4,10.1z M38.3,48c0.1-1.1-0.1-2,0.1-2.8c0.2-0.7,0.5-1,0.7-1.4
		c0.5-0.8,0.9-2.2,1.4-2.9c-0.2,1-0.5,2-0.8,3.1c-0.3,1.4-1,4.1-1.6,5.2c0.1-0.2,0.2-0.4,0.1-0.2C38.2,48.6,38.2,48.5,38.3,48z
		 M37.1,55.7c0.2-0.6,0.6-1.7,0.7-2.7c0.1-1.1,0.4-2,0.9-2.8c0.6-1.1,1.5-2.6,1.8-4.3c0.4-1.7,0.9-3.8,0.8-6.1c0-0.6,0-1,0-1.4
		c0.2-0.2,0.2-0.3,0.6-0.9c0.7-0.9,1.1-1.7,1.3-2.6l0.1-0.7c0.7,0.9,1.4,1.9,2,2.9c-0.3,0.4-0.6,0.8-0.8,1.4
		c-0.1,0.5-0.2,1.6-0.5,2.3c-0.9,1.4-1.5,2.8-1.8,3.9C42,45.6,42,46,41.8,46.8c-0.2,0.9-0.2,1.2-0.2,1.2s-0.1,1.4-0.5,2.1
		c-0.2,0.3-0.3,0.6-0.7,1.2c0.2-0.7,0.3-1,0.4-1.2c0.3-0.7,0.8-1.8,1-2.8c0.3-1.5,0.4-1.9,0.6-2.8c0.1-0.2,0.2-1,0.2-1.4
		c0-0.3-0.1-0.7,0.1-1.3c0.2-0.5,0.3-1,0.4-1.3c0.2-0.4-0.4-0.1-0.7,0.4c-0.3,0.4-0.4,1.1-0.6,1.9c-0.2,0.8-0.9,4.4-1.9,6.3
		c-0.7,1.2-1,2.7-1.4,4C38.2,54,37.6,55,37.1,55.7C37.3,55.4,37.1,55.8,37.1,55.7z M34.5,34.4c0.5,1.4,0.8,1.5,1.2,2.5
		c0.4,0.9,0.4,1.5,0.8,2.4c0.4,0.9,0.1,2.2,0,3.2s-1.3,5.2-1.5,6.1c-0.2,0.6-0.6,1.9-0.8,2.9c0-1,0-1.6,0-1.8
		c-0.1-0.9-0.3-4.7-0.5-5.9c0-0.3-0.1-0.6-0.1-0.9c0-0.4,0.2-0.8,0.3-1.1c0.4-1,0.8-1.9,1.1-2.7c0.3-0.8,0.4-1.7,0.2-1.9
		c-0.1-0.3-0.5,0.1-0.6,0.5c-0.1,0.2-0.4,1-1,2.2l0-0.6c-0.1-1.2,0-4.4,0-5.9c0-0.5,0-0.8,0.1-1.6C34.1,32.3,34.1,33.4,34.5,34.4z
		 M35.5,23.2c-0.1,0.7-0.3,1.1-1,2.5c-0.4,0.9-0.6,1.7-0.7,2.2l0,0.1c-0.1-0.5,0-0.9,0-1.5s0.2-1,0.5-1.6c0.3-0.5,0.2-1,0.1-1.2
		c-0.2-0.4-0.4,0.3-0.6,0.6c-0.2,0.4-0.6,1-0.7,1.5c0.1-0.8,0.2-0.9,0.2-1.5c0.1-2.3,1.2-5.4,1.6-6.3c0.1,0.6,0.4,2,0.5,2.6
		C35.6,22.2,35.6,22.6,35.5,23.2z M32.7,35.1c0,0.3,0,0.7-0.1,1.1c-0.2-1.2-0.3-2.2-0.4-2.8c0-0.4-0.1-1.1,0-1.9
		c0.1-0.7,0.2-1.5,0.5-2.6c0,0.6,0.2,1.1,0.3,1.5c-0.1,0.3-0.1,0.5-0.3,1.1C32.6,32.3,32.7,33.6,32.7,35.1z M27.5,48.5
		c-0.1-1.2-0.4-2.5-0.4-3.4c0-0.5,0-1.1,0-2.1c0.3,0.8,0.6,1.5,1.1,2.1c0,0.9,0,1.2,0,1.7c0,0.9,0.1,2.1,0.1,2.4
		C27.9,48.8,27.9,48.8,27.5,48.5z M27.1,39.1c0.1-1.4,0.2-2.4,0.3-2.9c0-0.4,0.1-1.1,0.2-1.7c0.3,0.5,0.5,1,0.5,1.4
		C28.2,37.2,27.5,38.1,27.1,39.1z M28.6,38.3c-0.1,1-0.2,1.9-0.2,2.4c0,0.6-0.1,1.7-0.1,2.9c-0.4-0.6-0.7-1.3-0.7-2.1
		C27.6,40.6,28.2,39.5,28.6,38.3z M28.8,54.4 M29.2,48.6c0-0.3,0-0.6,0-0.8c0-0.3,0-0.9,0-1.7c0.2,0.4,0.4,0.8,0.4,1.1
		C29.6,47.7,29.4,48.2,29.2,48.6z M30.2,55.7 M30.1,29.3c0.1,1,0.1,1.6,0.4,3c0.2,0.9-0.1,4.4-0.2,5.5c0,1.1-0.1,2.5-0.2,4.1
		c0,0.3-0.1,1.9,0,3.9c-0.2-0.4-0.5-0.8-0.9-1.2c0.1-1.6,0.3-3.6,0.4-4.6c0.2-1.9,0.6-5.3,0.6-6.9c0-1.6,0-4.2,0-5.3
		c0-1.1,0.2-2.4,0.6-4.6c0.4-2.2,0.3-3.2,0.4-3.7c0.3-1.5,0.8-1.9,1-2.3c0.2-0.4,0.2-0.9,0.2-1.2c0-0.3-0.1-0.5-0.2-0.4
		c-0.2,0.2-0.3,0.7-0.6,1.2c-0.1,0.2-1.1,1.4-1.2,2.3c-0.1,0.8-0.2,2.5-0.3,3.3c-0.1,0.9-0.9,4.3-0.8,5.2c0,0.9,0,3.6,0,4.9
		c0,0.4-0.1,1.4-0.2,2.5c-0.2-0.6-0.7-1.4-1.1-2c0.1-0.5,0.2-0.9,0.3-1.5s1-4.8,1.1-5.6c0.1-0.8,0.2-2,0-3c-0.2-0.9-0.2-3.1-0.1-4.4
		c0.1-1.4,1.7-2.3,2.2-2.8c0.5-0.5,1.7-1.4,2.1-1.6s0.6-0.3,0.6-0.3c0,0.2,0.1,1,0.2,1.4c-0.1,0.1-0.1,0.1-0.4,0.4
		c-0.2,0.3-0.5,0.8-0.9,1.8c-0.4,1-1.5,3.3-2.2,5.9C30.1,26.1,30,28.3,30.1,29.3z M31.2,27.1c0-1,0-1.3,0.3-3
		c0.2-1.4,2.5-6.7,2.8-7.2c0.2-0.4,0.3-0.5,0.3-0.6c0,0.3,0.1,0.4,0.1,0.4c0,0.1-0.2,0.3-0.4,0.9c-0.2,0.4-1.2,3-1.5,3.9
		c-0.3,0.9-1,3.2-1.1,3.9 M32,45.7c0.1,1.6,0.2,2.5,0.3,4.2c0,0,0,0,0,0.1c-0.1,0.5-0.1,1-0.2,1.4c-0.1-0.5-0.3-2.5-0.4-3.1
		C31.8,47.7,32,46.3,32,45.7z M35.5,15.8c0-0.1-0.1-0.2-0.1-0.4c0.1-0.1,0.2-0.2,0.5-0.4c0.1-0.1,0.3-0.2,0.5-0.3
		C36.2,15,35.8,15.5,35.5,15.8z M37.1,13.5c0,0-0.1,0.1-0.3,0.2c-0.4,0.2-0.6,0.3-1,0.5c-0.2,0.1-0.5,0.3-0.6,0.4
		c0-0.2-0.1-0.9-0.1-1c0.2,0,0.7-0.1,0.9-0.2c0.5-0.1,1-0.2,1.4-0.1L37.1,13.5z M38.8,9.6c0.6-0.2,0.8-0.4,1.8-0.2
		c0.3,0.1,0.4,0.1,0.8,0.3c-0.2,0.1-0.4,0.2-0.6,0.3c-0.2,0.1-0.5,0.2-0.6,0.3c-0.8-0.1-1.6-0.2-1.9-0.3C38.3,9.8,38.7,9.7,38.8,9.6
		z M35.9,10c-0.9,0.3-1.6,0.3-2.3,0.2C34.4,10,34.9,10,35.9,10z M28.7,10.8c0.9-0.3,1.6-0.2,2.7,0c-0.5,0.4-1.3,0.8-1.9,0.9
		c-1.1,0.1-1.9,0-2.1,0C27.6,11.5,28,11,28.7,10.8z M29,12.8c0.3,0,0.9-0.2,1.4-0.3c1-0.3,2.1-1.1,2.4-1.4c1.3,0.2,2.1,0.3,4.3-0.6
		c0.1,0,2.1,0.5,2.4,0.5c-0.2,0.2-0.3,0.3-0.4,0.4s-0.2,0.3-0.5,0.6c-0.3,0-0.6,0-1,0c-0.8,0.1-1.5,0.3-2.4,0.4
		c0.1-0.4,0.5-0.5,0.8-0.5c0.3-0.1,0.4,0,1-0.1S38,11,37.6,11c-0.4,0-0.5,0.1-1.1,0.1c-0.6,0-1,0-1.3,0.2c-0.3,0.1-0.7,0.4-0.8,0.9
		l-0.1,0.3c-1.2,0.1-1.6,0.8-2.2,1.4c-0.6,0.5-2.1,1.5-2.9,2.4c-0.8,0.8-0.8,1.3-1,2.5c-0.2,1.2-0.3,1.8,0,3.1
		c0.3,1.2,0.5,2.2,0.2,4.3c-0.3,2.1-0.9,3.4-1.1,4.5c0,0.2-0.2,0.5-0.2,0.7c-0.2-0.3-0.3-0.5-0.3-0.8c-0.1-1.6,1.1-3.4,1.1-5
		c0-1.6-0.7-2-1.7-3c-0.5-0.5-1.6-2.5-0.9-3.3c1.1-1.9,1.4-2,1.3-4.1c-0.1-1.3,0.1-1.9,0.3-2.4C26.7,12.7,28.1,12.8,29,12.8z
		 M20.1,21.3c1.1-2.4,1.2-2.9,1.2-5c0.1-2,0.1-3.4,2.1-3.3c1.1,0.1,1.4-0.2,2.1-0.2c-0.2,0.7-0.4,1.2-0.3,2.6
		c0.1,1.4-0.3,2.1-1.1,3.6c-0.8,1.5-0.5,2.7,0.8,4.1c0.7,0.7,2,2,1.5,3.7c-0.4,1.7-1.3,3.9-0.9,4.9c0.2,0.5,0.7,1.1,1.2,1.7
		c-0.1,1.3-0.3,3.2-0.4,4.6c-0.3-0.5-0.1-0.2-0.3-0.5c0-0.5,0-2-0.1-2.4c-0.1-0.7-0.4-1.1-0.4-2.1c0,0,0-0.2-0.1-0.5
		c-0.1-0.3-0.4-0.1-0.5,0.3c-0.1,0.8,0.2,1.6,0.2,2.3c0,0.6,0,0.8,0,1.2c-0.1-0.1-0.2-0.2-0.2-0.3c-0.1-1.4-0.2-2.8-0.4-3.7
		c-0.3-1.4-0.7-4.4-0.9-6c0.3-0.1,0.7-0.6,1.2-0.7c1-0.2,0.9-0.9,0.4-0.9s-0.9,0.3-1.6,0.4c-0.2-1.2-1.2-2.5-1.1-3.2
		c0.1-0.7,0.3-1.6,0.3-1.7c0.1-0.4-0.4-0.4-0.6,0c-0.2,0.3-0.3,0.5-0.4,1c-0.9,1.2,0.5,2.8,0.7,4.4c-0.7,0.1-1.4,0.3-1.7,0.3
		C20.1,24.5,19.6,22.7,20.1,21.3z M26.2,41.2c-0.1,0.3-0.3,0.3-0.5,0.6c-0.1-1.3,0.1-1.3,0.1-2.1c0.1-0.5,0.3-0.6,0.3-0.3
		S26.2,40.6,26.2,41.2z M25.7,43.1c0.1-0.2,0.3-0.4,0.5-0.5c0,0.8,0,1.5,0,2.2c-0.1,0.9,0,1.6,0.2,2.8c-0.2-0.2-0.6-0.5-0.8-0.7
		C25.5,45.9,25.7,43.7,25.7,43.1z M24.8,37L24.8,37L24.8,37L24.8,37z M21.4,26.5c0.3,0,0.7-0.1,1.1-0.1c0.2,1.6,0.6,4.9,0.8,6.1
		c0.1,0.4,0,0.3,0.1,1.1c-0.3-0.4-0.3-0.5-0.4-0.8c-0.3-1-0.3-1.3-0.3-2.9C22.6,28.4,22.1,27.5,21.4,26.5z M24.2,54.4
		c-0.3-1-2.5-4.5-2.3-7c0.2-2.5,0.5-6.5,0.5-7.5c-0.1-1.6-1.3-2.7-2.1-3.2c-0.8-0.5-1.4-0.9-1.9-1.7c-0.5-0.8,0.1-3.6,0.1-5.1
		c0-1.3,0.1-1.7,0.9-2.5c0.2-0.2,0.5-0.4,0.7-0.5c0.6,0.8,1.4,1.4,1.4,3.2c0,1.7-0.1,3.4,0.6,4.3c0.7,1,1.1,1.3,1.5,1.9
		c0,0.7-0.4,3.6-0.5,4.6c-0.1,1.2,0.1,3.4,0.5,5.1c0.4,1.6,0.4,4.6,0.5,5.2c0.2,1.9,1.6,4,2,4.8c0.5,0.8,1.1,1.8,1.1,2.1
		C26.7,57.1,24.5,55.4,24.2,54.4z M27.2,54.5c0,0-0.7-0.7-1.1-2.5c-0.3-1.8-0.3-1.8-0.5-3.9c0.3,0.3,0.8,0.7,0.9,0.9
		c0,0.2,0.1,1.1,0.2,2.1c0.1,0.9,0.1,2.1,0.7,3.4c0.2,0.4,0.2,0.6,0.2,0.6L27.2,54.5z M28.9,63c-0.3-0.5-0.5-1.3-0.5-1.4
		c0.6,0.7,2.3,2.7,2.6,3c0.2,0.3-0.1,0.1-0.3-0.1C30.2,64,29.2,63.5,28.9,63z M35,57.1c0-0.3,0.1-0.7,0.1-1c0.6-1.2,1.5-3.2,1.6-3.4
		c0,0.1-0.1,0.5-0.1,0.8c-0.3,1.3-0.1,0.7-0.6,2.2 M41.1,57c-0.5,0.6-0.9,0.7-1.6,1.4c0.3-0.3,1-1.1,1.6-1.9
		c0.9-1.3,1.8-2.7,1.8-2.7s-0.3,0.4-0.2,0.3C42.3,55.3,42.3,55.6,41.1,57z M43.8,51.5c-0.7,0.8-1.6,2.1-2.8,3.9
		c-0.9,1.3-1.5,1.9-2.5,2.9c0.8-1.3,1.6-2.6,1.8-2.9c0.4-0.5,1.3-2.2,1.8-2.7c0.6-0.7,1.2-1,1.8-1.5C43.9,51.3,43.8,51.4,43.8,51.5z
		 M44.1,49.6c0,0,0,0.2-0.1,0.3c-0.6,0.5-1.2,0.9-1.9,1.4c-0.6,0.4-1.5,1.7-2.1,2.6c-0.5,0.9-0.9,1.8-0.4,0.7
		c0.5-0.8,0.9-2.2,1.6-3.2c1-1.4,0.8-2.6,1.1-3.7c0.1-0.5,0.4-1.4,0.5-1.9c0.2-1.1,1-2.8,1.9-4.4c0.6-1,0.3-1.9,1.2-3.4
		c0.7,1.2,1.3,2.4,1.5,3.3c0.2,1.1,0.5,2.7,0.1,3.4C46.7,46.6,44.4,47.7,44.1,49.6z"/>
</g>
<path class="st2" d="M32,72.9"/>
</svg>
