<?xml version="1.0" encoding="utf-8"?>
<!-- Generator: Adobe Illustrator 25.0.0, SVG Export Plug-In . SVG Version: 6.00 Build 0)  -->
<svg version="1.1" id="Layer_8" xmlns="http://www.w3.org/2000/svg" xmlns:xlink="http://www.w3.org/1999/xlink" x="0px" y="0px"
	 viewBox="0 0 72 72" style="enable-background:new 0 0 72 72;" xml:space="preserve">
<style type="text/css">
	.st0{fill:#1D76BB;}
	.st1{fill:#FFFFFF;}
	.st2{fill:none;}
</style>
<g>
	<circle class="st0" cx="36.1" cy="35.7" r="36"/>
</g>
<path class="st1" d="M44.2,48.2"/>
<g>
	<path class="st2" d="M42.5,69.6l-0.4-1c0,0-0.4,0.9-0.4,0.9c-1,1-1.6,1.6-1.9,2c1.3-0.1,2.6-0.3,3.8-0.6l-0.5-0.5
		C43,70.4,42.5,69.7,42.5,69.6z"/>
	<path class="st2" d="M67.8,48.4c0-0.1-0.3-1-0.6-1c-0.9,0-1.2,0.6-1.5,1c-0.4,0.4-0.7,1.1-1.2,1.3c-0.8,0.3-1.3,0.2-1.9,0.2
		c-0.4,0-1-0.1-1.2-0.1c-0.7-0.1-1.9-0.2-2.4-0.6L58.9,49c-0.4-0.3-1.1-0.7-1.5-1.6c-0.1-0.3-0.6-0.8-1-1.3c-0.7-0.9-1.7-2-2.1-3.1
		c-0.3-0.6-1-0.9-1.2-0.9c0,0-0.8,0.3-1.1,0.5c-0.4,0.3-1.5,1-2.2,1.4c-0.6,0.4-1.9,0.5-2.6,0.5c-0.2,0-0.3,1-0.3,1.1
		c0.6,1.6,0.1,2.1-0.4,2.8c-0.3,0.5-1.4,5.9-1.4,6.4c-0.1,1.1,0.1,2.3-0.3,3.7c-0.6,2.1-0.8,3.7-0.5,4.2c0.7,1,0.3,2.2,0,3
		c-0.6,1.6-0.6,3.7-0.6,3.7l1.2,1.3c2.2-0.5,4.2-1.3,6.2-2.2c0.2-0.6,0.5-1.2,0.7-1.7c0.3-0.7,0.1-1.3-0.1-1.9
		c-0.1-0.4-0.2-0.8-0.2-1.3c0-0.7,0.8-1.7,1.5-2.2c0.6-0.5,1.3-0.7,1.9-0.6c0,0,0.1,0,0.1,0c0.3-0.2,0.8-0.4,1-1.2
		c0.3-0.7,0.6-2.4,0.7-2.9c0-0.3,0.2,0,0.5,0c0.3,0,0,1.2-0.1,1.4c-0.1,0.5-0.5,3-1.5,3.7c-0.3,0.2-0.9,0.3-1-0.1
		c-0.1-0.4-0.8-0.2-1.2,0.1c-0.7,0.5-1.1,1.6-1.1,1.8c0,0.3,0.3,0.6,0.4,1c0.2,0.7,0.4,1.5,0,2.6c-0.1,0.2-0.2,0.5-0.3,0.7
		C60,64,66,57.5,69.3,49.6C68.7,49.2,67.8,48.6,67.8,48.4z"/>
	<path class="st2" d="M40.9,67.3c-0.1-0.1-0.6-1-0.7-1.1c-0.2-0.1-0.5,0-0.9,0c-0.6,0-1.2,0.1-1.7-0.2c-0.4-0.2-0.9-0.6-1.4-1.1
		c-0.5-0.5-1.1-1.1-1.7-1.4c-0.4-0.2-0.7-0.2-1-0.1c-0.4,0.1-1,0.3-1.7-0.1c-0.9-0.5-0.9-1.1-0.9-1.5c0-0.2,0-0.4-0.1-0.6
		c-0.4-0.6-1.1-0.9-1.8-1.3l-0.4-0.2c-2.6-1.5-1.8-5.3-1.8-5.4c0.1-0.3,1.3-2.9,1.6-2.8c0.2,0,0.1,0.6,0,0.9c0.1-0.1,0.1-0.1,0,0.1
		c-0.1,0.1,0,0,0-0.1c-0.2,0.2-0.9,0.9-1,1.7c-0.2,0.8,0.1,2.1,0.5,2.9c0.8,1.8,1.4,2.1,1.4,2.1c0.8,0.5,1.7,0.9,2.2,1.7
		c0.3,0.5,0.5,0.7,0.5,1c0,0.3,0.2,0.5,0.5,0.6c0.2,0.1,0.4,0.1,0.8,0c0.5-0.1,1.1-0.3,2,0.2c0.7,0.4,1.4,1,1.9,1.6
		c0.4,0.4,0.9,0.6,1.1,0.7c0.3,0.1,0.7,0.3,1.1,0.3c0.5,0,1,0,1.4,0.1c0.5,0.2,0.5,0.3,0.5,0.1c0.1-0.3,0.2-1.8,0.3-2.1
		c0.3-1.6,0.5-4.2,0.7-5.1c0.4-1.2,0.3-1.7,0.4-2.8c0-0.5-0.1-2.5,0.3-3.7c0.4-1.2,0.8-2.3,0.7-2.4c0,0-0.2-0.2-0.5-0.2
		c-0.4,0-0.9-0.1-1.2-0.2c-0.4-0.1-0.6-0.3-0.7-0.6c-0.1-0.3-1.1-1.3-1.5-1.5c-0.6-0.4-1-0.1-1.1,0c0,0-0.7,0.8-1.2,0.8
		c-0.4,0-0.9-0.1-1.2-0.4c-0.1-0.1-0.2-0.2-0.3-0.4c-0.2-0.3-0.6-0.6-0.8-0.8c-0.6-0.5-1-0.6-1.2-0.8c-0.3-0.3-2.3-1.1-2.8-1.3
		c-0.3-0.1-0.5-0.3-0.6-0.5c-0.2-0.3-0.5-0.5-0.9-0.7c-0.7-0.2-0.8,0-1,0.2c-0.1,0.2-0.5,0.7-1.1,0.8c-0.2,0-0.6,0-1-0.3
		c-0.4-0.3-1.2-0.6-1.7-0.3c-0.2,0.1-1,1.5-1.4,1.8c-0.6,0.5-1.2,0.3-1.7,0.2c-0.4-0.1-0.9-0.3-1.6-0.3c-0.9-0.1-1.6-0.3-2-0.8
		c-0.4-0.4-0.4-0.8-0.4-1c0-0.2-0.2-0.9-0.8-1.4c-0.5-0.4-2.3-0.5-3.3-0.4c-0.2,0-0.5,0-1-0.4c-0.4-0.5-0.9-0.9-0.9-0.9
		c-0.1,0-0.8,0.2-0.9,0.3c-0.2,0.3-0.4,0.6-0.7,0.8c-0.7,0.4-4,0.2-5-0.7c-0.2-0.2-1.2-1.4-1.9-1.7c-0.6-0.2-1-0.7-1.4-1
		c-0.3-0.3-0.8-0.9-1.5-1.3c0.1,19.8,16.2,35.9,36,35.9c0.5,0,1.1,0,1.6,0C38.1,70.5,39.1,69.1,40.9,67.3
		C40.8,67.4,40.4,67.6,40.9,67.3z"/>
	<path class="st2" d="M2.4,36.6c0.3,0.3,0.6,0.5,1,0.7c0.9,0.4,1.4,0.8,1.9,1.2c0.1,0.1,0.3,0.3,0.5,0.4c0.2,0.2,0.7,0.3,1.1,0.4
		c-0.2-0.4,0-0.9,0-1.3c0-0.4,0.1-0.7,0.3-1c0.1-0.3,0.2-0.5,0.2-0.8c0.2-1.4-2-2.7-3-3.4c-0.3-0.2-0.5-0.3-0.6-0.4
		c-0.2-0.2-0.4-0.3-0.6-0.5c-0.5-0.4-0.9-0.7-1.1-1.1c-0.1-0.4-0.2-1,0-1.4C2.4,29,3,29,4,29h0.1c-0.1,0,0-0.2,0-0.3
		c0.1-0.4,0.3-1.1,1-1.3c0.3-0.1,0.7-0.2,1.1-0.3C7.2,27,8.6,26.7,9,26.3C9.4,26,9.8,26,10.1,26c1.2,0,1.5-1.7,2.3-2.5
		c0.3-0.3,0.7-0.6,1-0.7c0.4-0.2,0.6-0.4,0.7-0.6c0.2-0.5,0.5-1,0.3-1.5c-0.2-0.4-0.9-0.7-1-0.8c-0.3,0-1.2,0-1.8-0.6
		c-0.4-0.4-0.6-0.9-0.5-1.5c0.1-0.7,0.2-1.6,0.3-2.4c0.2-1.3,0.3-3.6,0-4.1c-0.3-0.6-0.5-0.9-0.6-1.2C4.4,16.4,0.3,25.3,0.1,35
		c0.1,0,0.2,0.1,0.3,0.1C1.4,35.7,2,36.2,2.4,36.6z"/>
	<path class="st2" d="M32.7,0.3c0,0.1,0.9,1.1,1,1.3c0.3,0.6,0.7,1.6,0.8,2.3c0,0.2,0,0.4,0.1,0.5c0.1,0.8,0.2,1.7-0.5,2.1
		c-0.7,0.4-1.2,0.2-1.6-0.2c-0.2-0.1-0.7-0.1-0.9-0.2c0,0-0.7,0.7-1,2c-0.2,1,0.5,2.1,0.5,2.2c0.6-0.1,1-0.1,1.7,0.2
		c1.3,0.5,2.4,1,2.3,2.1C35,13.5,35.3,13.6,36,14c0.2,0.1,0.3,0.2,0.5,0.3l0.1,0.1c0.4,0.3,0.5,0.3,0.9,0.1c0.4-0.3,1-0.2,1.5,0
		c0.4,0.2,1.2,0.8,1.2,2.3c0,0.1,0,0.2-0.1,0.3c-0.1,0.2-0.4,1-0.1,1.4c0.5,0.6,1.4,1.1,1.7,1.4c0.4,0.4,0.4,0.6,0.4,0.6
		s0.5-1.3,0.3-1.8c-0.9-1.2-1.5-2.4-1.6-3.4c-0.2-1.1,0.1-1.6,0.5-2.1c0.2-0.2,0.3-0.4,0.5-0.8c0.3-0.7,0.2-2,0.2-3.1
		c0-0.8-0.1-1.6,0-2.1C42,6.4,42.3,6,42.5,5.6c0.1-0.2,0.3-0.4,0.5-0.7c0.2-0.4,0.3-0.8,0.4-1.2c0.1-0.4,0.2-0.9,0.4-1.4
		c0.3-0.6,0.7-0.9,1.1-1.2C45,1.1,45.1,1,45.2,0.9c-2.9-0.8-5.9-1.2-9.1-1.2c-1.2,0-2.4,0.1-3.6,0.2C32.6,0,32.7,0.2,32.7,0.3z"/>
	<path class="st2" d="M45.1,3c-0.1,0.3-0.3,1.6-0.7,2.4c-0.5,0.8-1,0.6-1.1,1.7c-0.3,1.8,0.5,2.3,0.5,3c0,1.3,0,1.7-0.4,2.7
		c-0.3,0.6-0.5,1-0.7,1.3c-0.2,0.3-0.2,0.3-0.2,0.8c0.1,0.7,0.6,1.6,1.3,2.7c0.6,0.8,0.5,3.4,0.1,4.7c-0.3,0.7-0.7,1.2-1.2,1.3
		c-0.4,0.1-1.3,0.3-1.5,0.6c-0.1,0.1-0.2,0.3-0.2,0.4c-0.2,0.4-0.4,0.6-0.4,1.1c0,0.2,0,0.3,0,0.4c0,0.6,0,0.6,0.3,1.1
		c0.5,0.7,0.8,1.4,1.1,2.4c0.1,0.4,0.1,0.4,0.5,1c0.4,0.6,0.7-0.7,1.7-1.2c0.3-0.2,1-0.7,1.5-1.2c0.9-0.9,2.3-0.6,3-0.1
		c0.7,0.5,0.8,1.8,0.2,2.8c-0.2,0.3-0.1,0.8-0.1,1.1c0,0.1,0.3,1.7,0.3,2.8c0.3,0.1,0.7,0.2,0.9,0.4c0.2,0.2,0.4,0.3,0.4,0.5
		c0.1,0.4,0.3,0.7,0.6,0.7c0.7,0.1,1.2-0.3,1.3-0.5c0.2-0.3,0.9-0.9,1.7-1c0.5-0.1,1,0.1,1.4,0.6c0.1,0.1,0.2,0.2,0.3,0.3
		c0.4,0.5,1,0.3,1,0.3c0.4-0.2,1.2-0.6,2.2-0.2c0.2,0.1,0.4,0.4,0.5,0.5c0.1,0.2,0.2,0.4,0.7,0.4c0.4,0.1,0.9,0,1-0.2
		c0.1-0.1,0.4-0.5,0.8-1c0.8-0.9,1.9-2.2,2.3-2.6c0.6-0.6,1.4-2,1.5-2.9c0-0.3,0-0.7-0.1-1c-0.1-0.4-0.1-0.7,0.2-1.4
		c0.2-0.3,0.4-0.8,0.6-1.2c0.5-1.1,0.9-2.1,1.6-2.5c0.2-0.1,0.5-0.3,0.7-0.1c0.1,0.2-0.3,0.4-0.5,0.5c-0.5,0.4-1,1.6-1.4,2.6
		c-0.2,0.5-0.4,0.9-0.6,1.2c-0.2,0.4-0.2,0.6-0.1,0.9c0.1,0.3,0.2,0.6,0.1,1.1c-0.1,1.1-0.9,2.6-1.6,3.3c-0.4,0.4-1.5,1.7-2.3,2.6
		c-0.4,0.5-0.7,0.9-0.9,1c-0.3,0.4-0.9,0.4-1.3,0.4c-0.1,0-0.3,0-0.4,0c-0.7-0.1-1-0.5-1.2-0.8c0-0.1-0.1-0.1-0.1-0.1
		c-0.7-0.3-1.3,0-1.7,0.2l-0.1,0c-0.8,0.4-1.3-0.2-1.7-0.7c-0.1-0.1-0.8-0.3-1.1-0.3c-0.6,0.1-1.2,0.6-1.3,0.7
		c-0.3,0.5-1.3,0.9-2.2,0.8c-1-0.1-1.3-1-1.5-1c-0.2,0-0.2-0.1-0.3,0.3c-0.1,0.4-0.2,0.7-0.3,1.1c0,0.2,0,0.4-0.1,0.7
		c-0.1,1.3-0.3,3.1-1.2,4.3c-0.2,0.3,1.6,0,1.9-0.2c0.7-0.4,1.5-1.1,1.9-1.4c0.5-0.3,1.2-0.5,1.6-0.5c1,0,2.1,0.8,2.6,1.8
		c0.4,0.9,1.3,2,2,2.8c0.5,0.6,1,1.2,1.1,1.6c0.3,0.6,0.7,0.9,1.1,1.1l0.1,0.1c0.3,0.2,1.5,0.6,2.1,0.7c0.3,0,1.2,0.2,2.2-0.3
		c0.3-0.1,0.6-0.5,0.9-0.8c0.6-0.6,1.2-1.3,2-1.3c1.2,0,1.5,0.7,1.5,1.4c0,0.2,0.3,0.6,0.8,1.1c0.1,0.1,0.2,0.2,0.3,0.3
		c1.7-4.1,2.6-8.7,2.6-13.4c0-16-10.5-29.6-25-34.3c-0.5,0.3-0.9,0.2-1.2,0.5C45.5,2.2,45.2,2.8,45.1,3z"/>
	<path class="st1" d="M44.2,65.6c0.3-0.8,0.7-2,0-3c-0.3-0.5-0.1-2.1,0.5-4.2c0.4-1.4,0.4-2.8,0.5-3.9c0.1-0.7,0.9-4.9,1.2-6.2
		s0.4-3.5,0.6-3.5c0.7,0.1,2.1-0.3,2.8-0.7c0.7-0.4,1.6-1,2.1-1.3c0.7-0.5,1.9-0.1,2.2,0.4c0.5,1,1.6,2.3,2.3,3.2
		c0.4,0.5,2.1,2.3,2.5,2.6l0.1,0.1c0.5,0.3,1.7,0.5,2.4,0.6c0.2,0,0.8,0.1,1.2,0.1c0.6,0,1.1,0.1,1.9-0.2c0.5-0.2,0.8-0.9,1.2-1.3
		c0.4-0.4,0.6-1,1.5-1c0.3,0,0.6,0.9,0.6,1c0,0.3,1,0.9,1.5,1.3c0.1-0.2,0.1-0.3,0.2-0.5c-0.1-0.1-0.2-0.2-0.3-0.3
		c-0.5-0.4-0.8-0.9-0.8-1.1c0-0.7-0.3-1.4-1.5-1.4c-0.8,0-1.4,0.6-2,1.3c-0.3,0.3-0.7,0.7-0.9,0.8c-1,0.4-4-0.2-4.3-0.4L59.6,48
		c-0.4-0.2-1.7-2-2.2-2.7c-0.7-0.8-1.6-1.9-2-2.8c-0.5-1-1.7-1.9-2.6-1.8c-0.4,0-1.1,0.1-1.6,0.5c-0.4,0.3-1.2,1-1.9,1.4
		c-0.3,0.2-2.1,0.5-1.9,0.2c0.9-1.2,1.2-2.8,1.3-4.1c0-0.2,0.2-1.3,0.3-1.7c0.1-0.4,0.1-0.6,0.2-0.6c0.2,0,0.5,0.9,1.5,1
		c1,0.1,1.9-0.3,2.2-0.8c0.1-0.1,0.7-0.7,1.3-0.7c0.9,0,1.5,1,2.5,1l0.4-0.1c0.4-0.2,1-0.5,1.7-0.2c0,0,0.1,0.1,0.1,0.1
		c0.2,0.2,0.4,0.7,1.2,0.8c0.1,0,0.2,0,0.4,0c0.4,0,1-0.1,1.3-0.4c0.1-0.1,2.7-3.2,3.1-3.6c0.7-0.7,1.5-2.3,1.6-3.3
		c0.1-0.5,0-0.8-0.1-1.1c-0.1-0.3-0.1-0.5,0.1-0.9c0.2-0.3,0.4-0.7,0.6-1.2c0.4-0.9,0.9-2.2,1.4-2.6c0.2-0.1,0.6-0.3,0.5-0.5
		c-0.1-0.2-0.5,0-0.7,0.1c-0.7,0.5-1.1,1.4-1.6,2.5c-0.2,0.4-0.5,0.9-0.6,1.2c-0.4,0.7-0.4,1-0.2,1.4c0.1,0.2,0.2,0.7,0.1,1
		c-0.1,0.9-0.9,2.2-1.5,2.9c-0.4,0.4-3,3.5-3.1,3.6c-0.2,0.2-0.7,0.2-1,0.2c-0.4-0.1-0.5-0.2-0.7-0.4c-0.1-0.2-0.3-0.4-0.5-0.5
		c-0.5-0.2-1.4,0.1-2.1,0.1c-0.8,0-1.3-0.4-1.4-0.5c-0.4-0.4-0.9-0.6-1.4-0.6c-0.8,0.1-1.9,1-2.6,0.9c-0.3,0-0.3,0.2-1-0.4
		c-0.2-0.2-0.8-1-1.1-1c0-1-0.1-3.1,0.1-4.1c0.2-1,0.1-1.6-0.6-2.1c-0.7-0.5-2.3-0.9-3.1,0c-0.2,0.2-1,0.9-1.5,1.4
		c-0.9,0.9-0.7,1.2-1.2,1c-0.7-0.2-0.9-0.3-1-0.7c-0.3-1-0.5-1.7-1.1-2.4c-0.4-0.4-0.2-2.2,0-2.6c0.1-0.1,0.2-0.3,0.2-0.4
		c0.2-0.3,1.1-0.5,1.5-0.6c0.6-0.1,1-0.6,1.2-1.3c0.5-1.3,0.5-3.9-0.1-4.7c-0.8-1-1.2-1.9-1.3-2.7c-0.1-0.5,0.6-1.4,0.9-2
		c0.4-1,0.4-3.7,0.1-5.7C43.4,6.5,44.1,5,45,3.5c0.7-1.2,1.6-1.7,2.1-2.1c-0.6-0.2-1.3-0.4-1.9-0.6C45.1,1,45,1.1,44.9,1.1
		c-0.4,0.3-0.8,0.6-1.1,1.2C43.5,2.8,42,5,41.6,6.8c-0.1,0.6,0.2,1.5,0.3,2.3c0,1.1,0.1,2.5-0.2,3.1c-0.2,0.4-0.3,0.6-0.5,0.8
		c-0.4,0.5-0.7,1-0.5,2.1c0.1,1,0.7,2.2,1.6,3.4c0.2,0.5-0.3,1.8-0.3,1.8s0-0.3-0.4-0.6c-0.2-0.2-1.2-0.8-1.7-1.4
		c-0.3-0.4,0-1.1,0.1-1.4c0-0.1,0.1-0.2,0.1-0.3c0-1.5-0.9-2.1-1.2-2.3c-0.4-0.2-1.1-0.3-1.5,0c-0.3,0.3-0.5,0.2-0.9-0.1l-0.1-0.1
		c-0.2-0.1-0.3-0.2-0.5-0.3c-0.7-0.4-0.9-0.6-0.9-1.3c0.1-1.2-1-1.7-2.3-2.1c-0.7-0.3-1.1-0.3-1.7-0.2c0-0.1-0.7-1.2-0.5-2.2
		c0.2-1.3,0.9-2,1-2c0.1,0.1,0.7,0,0.9,0.2C32.8,6.8,33.3,7,34,6.6c0.8-0.5,0.6-1.3,0.5-2.1c0-0.2-0.6-2.2-0.8-2.9
		c-0.1-0.2-0.9-1.2-1-1.3c0-0.1-0.1-0.3-0.3-0.4c-0.3,0-0.6,0.1-0.9,0.1C32,0.6,32.9,1.7,33,1.9c0.3,0.6,0.8,2.5,0.8,2.7
		c0.1,0.8,0.1,1.2-0.2,1.4c-0.2,0.1-0.4,0-0.8-0.4c-0.2-0.2-0.4-0.3-0.6-0.4C32,5,31.7,5,31.4,5.1c-0.8,0.4-1.3,1.8-1.6,3
		c-0.2,1.2,0,2.5,0,2.6c0,0,0,0,0,0.1c-0.8,0.3-1.5,0.8-1.7,1.1c-0.7,0.7-1.3,2.8-2.1,3.8s-2,1.8-3.5,1.7c-1.4-0.2-2.3-0.9-2.4-1.7
		c0-0.1-0.1-1-0.2-1.5c-0.1-1-0.1-2.1-0.3-2.1c-0.3,0-0.4,0.2-0.4,0.6c0.1,1.2-0.1,3.6,1,4.5c0.9,0.7,1.3,1.3,3.4,1.3
		c2.1,0,2.2-0.8,2.6-1.6c0.7-1.2,2.2-3.6,2.6-4c0.4-0.4,1.9-1.2,3.1-0.7c1.5,0.5,1.1,2.2,1.8,2.6c0.1,0.1,1.6,0.9,1.9,1.1
		c0.3,0.2,1.2,0.6,2.2-0.2c0.1,0,0.3,0.1,0.4,0.2c0.2,0.2,0.3,0.5,0.3,0.9c-0.2,0.4-0.6,1.7,0.1,2.6c0.5,0.6,0.9,1,1.1,1.2
		c0.3,0.3,0.4,0.4,0.6,0.7c0.2,0.4,0.3,0.8,0.3,1.1c-0.6,0.2-1.2,0.6-1.5,1.2c-0.1,0.1-0.1,0.2-0.2,0.3c-0.3,0.4-0.6,1-0.6,2l0,0.4
		c0,0.8,0,1.3,0.8,2.2c0.3,0.4,0.5,0.9,0.7,1.2c-0.8-0.3-2-0.7-3.3-0.6c-1.1,0.1-2.6,1.6-2.7,1.7c-0.6,0.6-1,2.5-1,3.2
		c0,0.5-0.6,1.1-0.8,0.6c-0.2-0.4-1.3-1.2-1.7-2c-0.4-0.9-0.2-1.8-0.2-2c-0.2-0.8-0.5-1.1-1.8-2c-0.7-0.5-0.7-0.9-0.6-1.5
		c0-0.1,0-0.3,0-0.4c0-0.6,0.7-0.9,0.9-0.9c1-0.3,0.8-1.8,0.7-2.2c0-0.1-0.1-0.2-0.2-0.3c-1-1-2.3-2.1-3.2-1.9
		c-0.8,0.2-1.9,1.3-2.2,1.7c-0.2,0.3-1.6,1.1-1.8,1.3c-0.2,0.2-0.1,0.6,0.5,0.5c0.6-0.1,1.4-0.8,1.5-1c0.5-0.6,1.6-1.3,2.5-1.4
		c1,0.1,0.9,0.7,1.7,1.4c0,0.2,0,0.5,0,0.6c-0.8,0.3-1.6,1-1.7,2c0,0.1,0,0.2,0,0.3c-0.1,0.7-0.2,1.8,1.1,2.7
		c1.1,0.7,1.1,0.9,1.2,1.3c0,0.1,0,0.4,0,0.6c0,0.8,0.2,1.6,0.9,2.4c0.5,0.6,0.2,2.5,0.5,3.1c0.3,0.6,1,0.6,1.2,0.7c0,0,0.1,0,0.1,0
		c0.3,0,0.6-0.1,0.9-0.4c0.8-0.7,1.6-2.5,1.6-3.3c0-0.6,0.5-2,0.7-2.3c0.6-0.6,1.6-1.3,1.9-1.3c1.1-0.1,1.6,0.5,2.3,0.8
		c0,0.2,1.6,1.9,2.4,2.1c0.1,0,0.2,0,0.3,0.1c0.7,0.2,1.9,0.5,2.7-0.6c0.4-0.5,1.6-2.7,2-2.9c0.4-0.2,0.8,0.1,0.7,0.6
		c-0.2,1.1-0.3,2-0.2,2.1c0.1,0.5-0.6,5.9-0.6,6.2c-0.3,1.1-0.5,1.5-1,2.5c-0.3,0.5-1.2,2-1.2,2.8c0,0.4-0.4,2.8-0.5,2.8
		c-0.6-0.1-1-0.2-1.6-0.3c-0.6-0.2-1.6-1.1-2-1.2c-1.7-0.5-2.1,0.4-2.8,0.4c-0.6,0-4.9-3-5.4-3.3c-0.5-0.3-1.3-0.7-2-1
		c-1-0.3-1.8-0.1-2.3,0.7c-0.1,0.2-0.2,0.3-0.2,0.3c0,0,0,0-0.1-0.1c-0.7-0.5-1.9-0.9-2.9-0.1c-0.3,0.2-0.6,0.5-0.8,0.8
		c-0.3,0.3-2.4,0.5-3.4,0.4c-1-0.1-1.2-0.4-1.2-0.6c0,0,0-0.1,0-0.1c0-0.1-0.2-1.3-1.3-2.3c-0.6-0.5-1.5-0.7-2.4-0.7l-0.3-0.3
		c0,0-0.8-1.1-1.2-1.5c-0.2-0.2-0.2-0.8-0.1-1.1c0.1,0,0.2,0,0.2,0c0.4,0,1.1-0.1,1.5-0.6c0.2-0.2,0.5-1.1,0.9-1.4
		c0.8-0.6,0.9-1.9,1-3c0-0.5,0.1-0.9,0.1-1.2c0-0.1,0.2-0.3,0.3-0.4c0.3-0.4,0.6-0.7,0.5-1.2c0,0-1.1-3.5-1.6-4.3
		c-0.2-0.2-0.2-0.5-0.5-0.3c-0.2,0.2,0.1,0.9,0.3,1.1c0.3,0.4,1.1,2.8,1.2,3.4c0,0.1-0.3,0.7-0.5,0.9c-0.2,0.2-0.5,0.9-0.5,1.2
		c-0.1,0.4,0,1.2,0,1.7c-0.1,0.9-0.5,0.9-0.9,1.3c-0.7,0.5-1.1,1.5-1.1,1.6c-0.2,0.2-0.4,0.2-0.8,0.3c-0.4,0-0.9,0.1-1.1,0.6
		c-0.2,0.5-0.3,1.6,0.2,2.3c0.3,0.3,0.8,1.2,0.7,1.2l-1.2-1.1c-0.1-0.1-0.8-0.6-1.6-0.4c-0.5,0.1-0.8,0.6-1.1,0.9
		c-0.1,0.2-0.3,0.4-0.3,0.4c-0.2,0.1-0.7,0.1-1.2,0c-0.3-0.4-0.6-1.1-0.5-1.4c0-0.3,0.1-0.6,0.2-0.9c0.1-0.3,0.2-0.6,0.2-0.9
		C8.3,34.4,6,33,4.7,32.2c-0.2-0.2-0.4-0.3-0.5-0.4c-0.2-0.2-0.5-0.4-0.7-0.5c-0.4-0.3-0.7-0.5-0.8-0.7c-0.2-0.5-0.1-0.7-0.1-0.7
		c0.1-0.1,0.7-0.1,1.3-0.1h0.1c0.5,0,0.7-0.5,0.7-0.8C5,28.5,5,28.3,5.3,28.2C5.6,28.1,6,28,6.4,27.9c1.2-0.3,2.5-0.6,3.1-1
		c0.2-0.2,0.4-0.2,0.7-0.2c0.4,0,1,0.2,1.4-0.5c0.2-0.4,0.6-1.5,1.4-2.2c0.3-0.3,0.6-0.4,0.9-0.6c0.4-0.2,0.9-0.5,1.1-1
		c0.3-0.7,0.2-1.4-0.1-2c-0.3-0.7,0-0.8-1.4-1.2s-0.8,0.1-1.3-0.4c-0.2-0.2-0.3-0.5-0.3-0.9c0-0.7-0.2-1.5,0-2.3
		c0.2-1.5,0.4-3.3,0.2-4c0-0.1-0.5-1.3-0.8-1.8c-0.1,0.1-0.3,0.3-0.4,0.4c0.1,0.3,0.3,0.7,0.6,1.2c0.3,0.5,0.2,2.8,0,4.1
		c-0.1,0.8-0.3,1.7-0.3,2.4c0,0.6,0.1,1.2,0.5,1.5c0.6,0.6,1.5,0.6,1.8,0.6c0.2,0.1,0.8,0.3,1,0.8c0.2,0.4-0.1,0.9-0.3,1.5
		c-0.1,0.3-0.3,0.4-0.7,0.6c-0.3,0.2-0.7,0.4-1,0.7c-0.8,0.8-1.1,2.5-2.3,2.5C9.8,26,9.4,26,9,26.3c-0.4,0.3-1.8,0.6-2.8,0.9
		c-0.4,0.1-0.8,0.2-1.1,0.3c-0.7,0.2-0.9,0.9-1,1.3c0,0.1-0.1,0.3,0,0.3H4c-1,0-1.6,0-1.9,0.4c-0.3,0.4-0.2,0.9,0,1.4
		c0.1,0.5,0.5,0.8,1.1,1.1c0.2,0.1,0.4,0.3,0.6,0.5c0.1,0.1,0.3,0.2,0.6,0.4c1,0.6,3.2,2,3,3.4c0,0.3-0.1,0.5-0.2,0.8
		c-0.1,0.3-0.2,0.7-0.3,1c0,0.4-0.2,0.9,0,1.3c-0.3-0.1-0.8-0.2-1.1-0.4c-0.2-0.2-0.3-0.3-0.5-0.4c-0.5-0.5-2.5-1.6-2.9-1.9
		c-0.4-0.4-0.9-0.9-2-1.4c-0.1,0-0.2-0.1-0.3-0.1c0,0.2,0,0.4,0,0.7c0,0,0,0.1,0,0.1c0.7,0.4,1.2,1,1.5,1.3c0.4,0.4,3.1,2.6,3.3,2.7
		c1,0.8,4.3,1.1,5,0.7c0.3-0.2,0.5-0.5,0.7-0.8c0.1-0.1,1.3,0.1,1.8,0.6c0.4,0.5,0.8,0.5,1,0.4c1.1-0.1,2.8,0,3.3,0.4
		c0.7,0.6,0.8,1.3,0.8,1.4c0,0.2,0.1,0.6,0.4,1c0.4,0.5,0.8,0.8,1.6,1c1,0.2,3.1,0.6,3.7,0.1c0.4-0.3,1.2-1.7,1.4-1.8
		c0.5-0.3,1.4,0,1.7,0.3c0.4,0.3,0.8,0.3,1,0.3c0.6-0.1,0.9-0.6,1.1-0.8c0.1-0.2,0.3-0.4,1-0.2c0.4,0.1,0.7,0.4,0.9,0.7
		c0.2,0.2,0.4,0.4,0.6,0.5c0.5,0.2,4.1,2.7,4.4,2.9c0.8,0.6,1.4,0.8,1.9,0.8c0.9,0.1,1.6-0.3,2.3-0.1c0.5,0.1,0.8,0.4,1.1,0.8
		c0.2,0.2,0.7,0.5,1,0.7c0.3,0.1,1.4,0.4,1.4,0.4c0.1,0.3-0.6,2.2-0.8,3.4c-0.3,1.3-1,7.7-1.3,9.3c-0.1,0.4,0,2.2-0.1,2.5
		c0,0.2-0.3,1-0.8,0.8c-0.4-0.2-0.4-0.1-0.9-0.1c-0.4,0-0.8-0.2-1.1-0.3c-0.2-0.1-0.7-0.3-1.1-0.7c-0.6-0.6-1.2-1.2-1.9-1.6
		c-0.9-0.5-1.5-0.3-2-0.2c-0.4,0.1-0.5,0.1-0.8,0c-0.3-0.2-0.5-0.3-0.5-0.6c0-0.3-0.2-0.5-0.5-1c-0.5-0.8-1.4-1.2-2.2-1.7
		c0,0-0.6-0.3-1.4-2.1c-0.3-0.7-0.6-2.1-0.5-2.9c0.2-0.8,0.8-1.5,1-1.7c0.1-0.3,0.2-0.8,0-0.9c-0.3-0.1-1.5,2.5-1.6,2.8
		c0,0.2-0.8,4,1.8,5.4l0.4,0.2c0.7,0.4,1.4,0.8,1.8,1.3c0.1,0.2,0.1,0.3,0.1,0.6c0,0.4,0,1,0.9,1.5c0.7,0.4,1.3,0.3,1.7,0.1
		c0.4-0.1,0.6-0.2,1,0.1c0.6,0.3,1.2,0.9,1.7,1.4c0.5,0.5,0.9,0.9,1.4,1.1c0.5,0.2,1.2,0.2,1.7,0.2c0.3,0-0.1,1.4,0.1,1.5
		c0.1,0-1.5,1.1-2,2.2c-0.3,0.6-0.9,1.1-1.1,1.6c1.1,0.2,3.3,0.2,4,0.1c0.3-0.4,0.5-1.1,1.5-2.1c0,0,0.4-0.9,0.4-0.9l0.4,1
		c0,0.1,0.6,0.8,0.7,0.9l0.5,0.5c0.4-0.1,0.8-0.2,1.2-0.3l-1.2-1.3C43.6,69.3,43.6,67.2,44.2,65.6z"/>
	<path class="st1" d="M52.6,64.5c-0.1-0.4-0.4-0.7-0.4-1c0-0.2,0.4-1.3,1.1-1.8c0.4-0.3,1.1-0.5,1.2-0.1c0.1,0.3,0.7,0.2,1,0.1
		c1-0.7,1.5-3.2,1.5-3.7c0-0.3,0.4-1.4,0.1-1.4c-0.3,0-0.4-0.3-0.5,0c-0.1,0.5-0.4,2.2-0.7,2.9c-0.3,0.7-0.8,1-1,1.2
		c-0.1,0-0.1,0-0.1,0c-0.6-0.1-1.2,0-1.9,0.6c-0.7,0.6-1.5,1.6-1.5,2.2c0,0.5,0.1,0.9,0.2,1.3c0.2,0.6,0.3,1.2,0.1,1.9
		c-0.2,0.5-0.5,1.2-0.7,1.7c0.5-0.2,0.9-0.4,1.4-0.7c0.1-0.2,0.2-0.5,0.3-0.7C53.1,66.1,52.8,65.3,52.6,64.5z"/>
	<path class="st1" d="M28.3,52.4c0.1-0.2,0.1-0.2,0-0.1C28.3,52.4,28.2,52.5,28.3,52.4z"/>
</g>
</svg>
