<?xml version="1.0" encoding="utf-8"?>
<!-- Generator: Adobe Illustrator 25.0.0, SVG Export Plug-In . SVG Version: 6.00 Build 0)  -->
<svg version="1.1" id="Layer_1" xmlns="http://www.w3.org/2000/svg" xmlns:xlink="http://www.w3.org/1999/xlink" x="0px" y="0px"
	 viewBox="0 0 72 72" style="enable-background:new 0 0 72 72;" xml:space="preserve">
<style type="text/css">
	.st0{fill:#1C75BC;}
	.st1{fill:none;}
	.st2{fill:#FFFFFF;}
</style>
<g>
	<circle class="st0" cx="36.1" cy="36" r="36"/>
</g>
<g>
	<path class="st1" d="M63.7,54.9c-0.9,0.5-1.8,1-3.6,1c-1.7,0-2.7-0.6-3.6-1c-0.8-0.5-1.6-0.9-3-0.9s-2.1,0.4-2.9,0.8
		c-0.9,0.5-1.8,1-3.7,1c-1.6,0-2.5-0.5-3.4-1.1c-0.9-0.5-1.7-1-3.2-1c-2,0-2.8,0.5-3.6,1.1c-0.7,0.5-1.4,0.9-2.6,1.1
		c3.2,2.1,7.5,3.8,12.7,3.4c8.2-0.7,14.4-0.5,17.1-0.4c1.3-1.6,2.5-3.2,3.5-5c-0.2,0-0.3,0-0.5,0C65.3,54,64.6,54.4,63.7,54.9z"/>
	<path class="st1" d="M66.5,45.8c-0.8,0.5-1.8,1-3.6,1c-2,0-3-0.6-3.8-1.1c-0.7-0.4-1.4-0.8-2.9-0.8s-2.3,0.4-3.2,0.9s-1.8,1-3.6,1
		c-1.7,0-2.7-0.6-3.6-1c-0.8-0.5-1.6-0.9-3-0.9s-2.1,0.4-2.9,0.8c-0.9,0.5-1.8,1-3.7,1c-1.6,0-2.5-0.5-3.4-1.1c-0.9-0.5-1.7-1-3.2-1
		c-2,0-2.8,0.5-3.6,1.1c-0.5,0.3-1,0.7-1.7,0.9c1.3,1.1,2.4,2.2,3.4,3.5c1.5,0,2.2-0.4,3-0.9c0.9-0.6,1.9-1.3,4.3-1.3
		c1.9,0,2.9,0.6,3.8,1.1c0.8,0.5,1.5,0.9,2.8,0.9c1.5,0,2.3-0.4,3.1-0.9s1.8-1,3.5-1c1.8,0,2.8,0.6,3.6,1.1s1.6,0.9,3,0.9
		s2.1-0.4,3-0.9s1.9-1.1,3.8-1.1c1.8,0,2.7,0.5,3.5,1s1.5,0.9,3.2,0.9c0.5,0,0.8,0,1.2-0.1c0.7-1.6,1.2-3.2,1.6-4.8
		c-0.4-0.1-0.9-0.2-1.5-0.2C68.1,44.9,67.3,45.3,66.5,45.8z"/>
	<path class="st1" d="M64.5,50.2c-0.7-0.4-1.4-0.8-2.9-0.8s-2.3,0.4-3.2,0.9s-1.8,1-3.6,1c-1.7,0-2.7-0.6-3.6-1
		c-0.8-0.5-1.6-0.9-3-0.9s-2.1,0.4-2.9,0.8c-0.9,0.5-1.8,1-3.7,1c-1.6,0-2.5-0.5-3.4-1.1c-0.9-0.5-1.7-1-3.2-1c-2,0-2.8,0.5-3.6,1.1
		c-0.7,0.5-1.4,0.9-2.7,1.1c0.8,1,2.1,2.2,3.7,3.4c1.5-0.1,2.9-0.5,3.6-0.9c0.9-0.6,1.9-1.3,4.3-1.3c1.9,0,2.9,0.6,3.8,1.1
		c0.8,0.5,1.5,0.9,2.8,0.9c1.5,0,2.3-0.4,3.1-0.9s1.8-1,3.5-1c1.8,0,2.8,0.6,3.6,1.1s1.6,0.9,3,0.9s2.1-0.4,3-0.9s1.9-1.1,3.8-1.1
		c0.4,0,0.8,0,1.2,0.1c0.3-0.5,0.6-1.1,0.8-1.6c-0.2,0-0.4,0-0.6,0C66.3,51.2,65.3,50.7,64.5,50.2z"/>
	<path class="st1" d="M68,41c-0.8-0.4-1.5-0.8-2.9-0.8c-1.6,0-2.3,0.4-3.1,0.8c-0.8,0.5-1.8,1-3.6,1c-2,0-3-0.6-3.8-1.1
		c-0.7-0.4-1.4-0.8-2.9-0.8s-2.3,0.4-3.2,0.9s-1.8,1-3.6,1c-1.7,0-2.7-0.6-3.6-1c-0.8-0.5-1.6-0.9-3-0.9s-2.1,0.4-2.9,0.8
		c-0.9,0.5-1.8,1-3.7,1c-1.6,0-2.5-0.5-3.4-1.1c-0.9-0.5-1.7-1-3.2-1c-2,0-2.7,0.7-3.6,1.1c-3,1.4-3.5,1-5.4,1c0,0-0.2,0-0.4,0
		c1.1,0.1,1.9,0.3,2.5,0.6c1.7,0.8,3.4,1.8,4.9,2.9c1.1-0.1,1.6-0.5,2.3-0.9c0.9-0.6,1.9-1.3,4.3-1.3c1.9,0,2.9,0.6,3.8,1.1
		c0.8,0.5,1.5,0.9,2.8,0.9c1.5,0,2.3-0.4,3.1-0.9s1.8-1,3.5-1c1.8,0,2.8,0.6,3.6,1.1s1.6,0.9,3,0.9s2.1-0.4,3-0.9s1.9-1.1,3.8-1.1
		c1.8,0,2.7,0.5,3.5,1s1.5,0.9,3.2,0.9c1.5,0,2.2-0.4,3-0.8c0.9-0.5,1.8-1,3.7-1c0.7,0,1.3,0.1,1.8,0.2c0.1-0.6,0.3-1.2,0.4-1.8
		c0,0,0,0-0.1,0C69.8,42,68.8,41.5,68,41z"/>
	<path class="st1" d="M28.1,67.2c-7.6-2.3-15.5-8.5-18.4-12.9c-0.9-1.4-1.6-3-2.3-4.5c-1.4-3.4-2.7-6.3-6.3-7v-0.1
		c-0.2,0-0.3,0-0.4,0C3.9,59.4,18.6,72,36.2,72c4.8,0,9.5-1,13.7-2.7C43,69.9,37.4,70,28.1,67.2z"/>
	<path class="st1" d="M2.9,32.9c0-2.5,0.4-6.1,1.3-9.2c1.2-4.2,3.7-6.6,3.7-6.6s-2.7,8.7-2.7,12.8c0,4.6,0.4,6.1,0.4,6.1
		s0.9-6.7,1.5-9.6c1.3-5.6,1.7-6.8,3.4-10.2c1.8-3.5,4.2-5.3,4.2-5.3s-1.3,2.7-2.5,5.6c-0.5,1.1-1.3,2.9-1.6,4
		c-0.4,1-1.3,4.2-1.6,7.1c-0.3,2.3-0.3,4.2-0.3,5.5c0,1.6-0.1,3.8,0.2,2.4c0,0,2.3-10.3,3.1-12.7c2.2-6.2,4.6-10.1,6-11.7
		s8.4-4,8.4-4s-2.5,1.6-5.6,4c-3.1,2.3-4.6,7.5-6.5,11.9C12.4,27.3,11,36.1,11,36.1s1.9-6.5,3.5-10.4c2.3-5.7,7.1-11.3,8-12.4
		c1-1.3,2-0.3,3.5,0.5c0.1,0.6,0.2,1.3,0.2,2.3c-0.1,1.3-0.2,2.1-0.5,2.9c-0.4,1.4-0.9,1.2-0.9,1.2s0-2.9,0-3.5
		c0-0.4-0.1-1.1-0.1-1.7c0-0.7-0.4-0.8-0.8-0.6c-0.9,0.5-4.5,7.2-6.7,11.3C15.5,29,13.7,34.8,13,37c0.4-1.1,1.2-3.1,2.6-5.4
		c4.1-6.5,8.2-8.8,12-10.7C32.2,18.7,36,19,36,19s-4,1.1-9,4.1c-2.9,1.8-6.5,4.4-9.8,9.7C15.2,36,15,39.3,15,41c1.7,0,3.9-0.2,5.7-1
		c1-0.4,1.9-1.3,4.3-1.3c1.9,0,2.9,0.6,3.8,1.1c0.8,0.5,1.5,0.9,2.8,0.9c1.5,0,2.3-0.4,3.1-0.9s1.8-1,3.5-1c1.8,0,2.8,0.6,3.6,1.1
		s1.6,0.9,3,0.9s2.1-0.4,3-0.9s1.9-1.1,3.8-1.1c1.8,0,2.7,0.5,3.5,1s1.5,0.9,3.2,0.9c1.5,0,2.2-0.4,3-0.8c0.9-0.5,1.8-1,3.7-1
		c1.8,0,2.7,0.5,3.5,1c0.8,0.4,1.5,0.9,3.1,0.9c0.1,0,0.2,0,0.3,0c0.2-1.6,0.3-3.3,0.3-5c0-20-16.2-36.1-36.1-36.1
		C16.1-0.3,0,15.9,0,35.8c0,1.3,0.1,2.5,0.2,3.8c0.5-0.2,1.1-0.5,1.7-1.1C3.3,37,3,34.6,2.9,32.9z"/>
	<path class="st1" d="M46.9,60.7c-0.6,0-1.1,0.1-1.7,0.1c-9.9,0-16.4-7.2-18.3-9.6c-1.2-1.6-2.6-3-4.2-4.2c-0.2,0-0.3,0-0.3,0
		c0.1,0,0.1,0,0.2,0c-1.6-1.2-3.3-2.2-5.1-3.1c-1.8-0.8-7.9-0.8-11.2-0.7c-0.7,0-1.2,0-1.7,0c1.8,1.5,2.8,3.8,3.8,6.1
		c0.6,1.5,1.3,3,2.2,4.4C13.4,58,21.2,64,28.3,66.1c10.5,3.1,16.5,2.5,22.8,1.9c0.7-0.1,1.3-0.1,1.9-0.1c3.7-1.9,6.9-4.5,9.7-7.5
		C59.9,60.1,54.2,60.1,46.9,60.7z"/>
	<path class="st2" d="M0.8,43.5c3.7,0.7,5.2,2.9,6.6,6.3c0.7,1.5,1.3,3.1,2.3,4.5c2.9,4.5,10.8,10.7,18.4,12.9
		c9.3,2.8,14.9,2.7,21.8,2.1c1.1-0.5,2.2-1,3.2-1.5c-0.6,0-1.2,0.1-1.9,0.1C44.9,68.5,39,69.1,28.5,66c-7.1-2.1-14.9-8.1-17.7-12.4
		c-0.9-1.3-1.5-2.9-2.2-4.4c-1-2.3-1.5-3.7-2.8-4.9c0.4,0,1.2,0,1.9,0c2.1,0,9.1,0,10,0c0.7,0,2.9,1.1,5,2.7c1.9,1.4,3.7,3.3,4.3,4
		c1.8,2.3,8.3,9.6,18.3,9.6c0.6,0,1.1,0,1.7-0.1c7.2-0.6,12.9-0.6,15.9-0.5c0.4-0.4,0.7-0.8,1-1.2c-2.6-0.1-8.9-0.2-17.1,0.4
		c-5.2,0.4-9.5-1.3-12.7-3.4c1.2-0.2,1.9-0.6,2.6-1.1c0.8-0.6,1.6-1.1,3.6-1.1c1.5,0,2.3,0.5,3.2,1s1.8,1.1,3.4,1.1
		c1.9,0,2.9-0.6,3.7-1c0.8-0.5,1.5-0.8,2.9-0.8s2.2,0.4,3,0.9c0.9,0.5,1.9,1,3.6,1c1.7,0,2.7-0.5,3.6-1c0.8-0.5,1.6-0.9,3.2-0.9
		c0.2,0,0.4,0,0.5,0c0.2-0.4,0.4-0.8,0.7-1.2c-0.3-0.1-0.7-0.1-1.2-0.1c-1.9,0-2.9,0.6-3.8,1.1c-0.8,0.5-1.6,0.9-3,0.9
		s-2.1-0.4-3-0.9s-1.9-1.1-3.6-1.1c-1.7,0-2.7,0.5-3.5,1s-1.6,0.9-3.1,0.9c-1.3,0-2-0.4-2.8-0.9c-0.9-0.5-1.9-1.1-3.8-1.1
		c-2.4,0-3.4,0.7-4.3,1.3c-0.6,0.4-2.1,0.8-3.6,0.9c-1.6-1.2-2.8-2.5-3.7-3.4c1.3-0.2,2-0.6,2.7-1.1c0.8-0.6,1.6-1.1,3.6-1.1
		c1.5,0,2.3,0.5,3.2,1s1.8,1.1,3.4,1.1c1.9,0,2.9-0.6,3.7-1c0.8-0.5,1.5-0.8,2.9-0.8s2.2,0.4,3,0.9c0.9,0.5,1.9,1,3.6,1
		c1.7,0,2.7-0.5,3.6-1c0.8-0.5,1.6-0.9,3.2-0.9c1.5,0,2.1,0.4,2.9,0.8c0.8,0.5,1.8,1.1,3.8,1.1c0.2,0,0.4,0,0.6,0
		c0.2-0.4,0.4-0.9,0.6-1.3c-0.4,0-0.7,0-1.2,0c-1.7,0-2.4-0.4-3.2-0.9c-0.8-0.5-1.7-1-3.5-1c-1.9,0-2.9,0.6-3.8,1.1
		c-0.8,0.5-1.6,0.9-3,0.9s-2.1-0.4-3-0.9s-1.9-1.1-3.6-1.1c-1.7,0-2.7,0.5-3.5,1c-0.7,0.5-1.5,0.9-3,0.9c-1.3,0-2-0.4-2.8-0.9
		c-0.9-0.5-2-1.1-3.8-1.1c-2.4,0-3.4,0.7-4.3,1.3c-0.7,0.5-1.4,1-3,0.9c-1-1.3-2.2-2.5-3.4-3.5c0.7-0.2,1.2-0.6,1.7-0.9
		c0.8-0.6,1.6-1.1,3.6-1.1c1.5,0,2.3,0.5,3.2,1s1.8,1.1,3.4,1.1c1.9,0,2.9-0.6,3.7-1c0.8-0.5,1.5-0.8,2.9-0.8s2.2,0.4,3,0.9
		c0.9,0.5,1.9,1,3.6,1c1.7,0,2.7-0.5,3.6-1c0.8-0.5,1.6-0.9,3.2-0.9c1.5,0,2.1,0.4,2.9,0.8c0.8,0.5,1.8,1.1,3.8,1.1
		c1.8,0,2.8-0.5,3.6-1c0.8-0.4,1.6-0.8,3.1-0.8c0.6,0,1.1,0.1,1.5,0.2c0.1-0.4,0.2-0.8,0.3-1.2c-0.5-0.1-1.1-0.2-1.8-0.2
		c-1.9,0-2.9,0.5-3.7,1c-0.8,0.4-1.5,0.8-3,0.8c-1.7,0-2.4-0.4-3.2-0.9s-1.7-1-3.5-1c-1.9,0-2.9,0.6-3.8,1.1c-0.8,0.5-1.6,0.9-3,0.9
		s-2.1-0.4-3-0.9s-1.9-1.1-3.6-1.1c-1.7,0-2.7,0.5-3.5,1s-1.6,0.9-3.1,0.9c-1.3,0-2-0.4-2.8-0.9c-0.9-0.5-1.9-1.1-3.8-1.1
		c-2.4,0-3.4,0.7-4.3,1.3c-0.6,0.4-1.2,0.8-2.3,0.9c-1.5-1.1-3.1-2.1-4.9-2.9c-0.6-0.3-0.6-0.6-0.6-0.6c1.7-0.2,2-0.1,3.9-1.1
		c0.9-0.5,1.6-1.1,3.6-1.1c1.5,0,2.3,0.5,3.2,1c0.9,0.5,1.8,1.1,3.4,1.1c1.9,0,2.9-0.6,3.7-1c0.8-0.5,1.5-0.8,2.9-0.8s2.2,0.4,3,0.9
		c0.9,0.5,1.9,1,3.6,1c1.7,0,2.7-0.5,3.6-1c0.8-0.5,1.6-0.9,3.2-0.9c1.5,0,2.1,0.4,2.9,0.8c0.8,0.5,1.8,1.1,3.8,1.1
		c1.8,0,2.8-0.5,3.6-1c0.8-0.4,1.6-0.8,3.1-0.8c1.4,0,2.1,0.4,2.9,0.8c0.8,0.5,1.8,1,3.7,1c0,0,0,0,0.1,0c0.1-0.4,0.1-0.8,0.2-1.2
		c-0.1,0-0.2,0-0.3,0c-1.6,0-2.3-0.4-3.1-0.9c-0.8-0.5-1.7-1-3.5-1c-1.9,0-2.9,0.5-3.7,1c-0.8,0.4-1.5,0.8-3,0.8
		c-1.7,0-2.4-0.4-3.2-0.9s-1.7-1-3.5-1c-1.9,0-2.9,0.6-3.8,1.1c-0.8,0.5-1.6,0.9-3,0.9s-2.1-0.4-3-0.9s-1.9-1.1-3.6-1.1
		c-1.7,0-2.7,0.5-3.5,1s-1.6,0.9-3.1,0.9c-1.3,0-2-0.4-2.8-0.9c-0.9-0.5-1.9-1.1-3.8-1.1c-2.4,0-3.3,0.9-4.3,1.3c-1.9,0.8-4,1-5.7,1
		c0-1.7,0.2-5,2.2-8.2c3.3-5.3,6.9-7.9,9.8-9.7c5-3.1,9-4.1,9-4.1s-3.8-0.4-8.4,1.9c-3.8,1.9-7.9,4.2-12,10.7
		c-1.5,2.3-2.2,4.3-2.6,5.4c0.7-2.2,2.5-8,4.2-11.3c2.2-4.1,5.8-10.8,6.7-11.3c0.4-0.3,0.8-0.1,0.8,0.6c0,0.5,0.1,1.3,0.1,1.7
		c0,0.6,0,3.5,0,3.5s0.5,0.2,0.9-1.2c0.2-0.8,0.4-1.6,0.5-2.9c0-1,0-1.7-0.2-2.3c-1.6-0.8-2.5-1.8-3.5-0.5c-0.9,1.1-5.7,6.7-8,12.4
		c-1.7,3.5-3.6,10-3.6,10s1.3-8.8,3.2-13.1c1.9-4.4,3.4-9.5,6.5-11.9c3.1-2.3,5.6-4,5.6-4s-6.9,2.3-8.4,4c-1.4,1.6-3.8,5.5-6,11.7
		C11,25.3,8.8,35.5,8.8,35.5c-0.3,1.3-0.1-0.8-0.2-2.4c0-1.3,0-3.2,0.3-5.5c0.4-2.9,1.2-6.1,1.6-7.1c0.4-1.1,1.2-2.9,1.6-4
		c1.2-3,2.5-5.6,2.5-5.6s-2.4,1.8-4.2,5.3C8.7,19.6,8.2,20.9,7,26.4C6.3,29.3,5.5,36,5.5,36s0-1.2,0-2.4s-0.1-1.8,0-3.8
		c0.2-3.9,0.2-8,0.2-8s-0.4,0.8-1.2,4.6c-0.6,3.2-0.8,4.1-1.2,7c-0.2,1-0.2,1.9-0.5,3c-0.2,0.7-2.1,3-2.6,3.1c0.1,1,0.2,2.1,0.4,3.1
		C0.7,42.9,0.8,43.5,0.8,43.5z"/>
</g>
</svg>
