<?xml version="1.0" encoding="utf-8"?>
<!-- Generator: Adobe Illustrator 22.0.1, SVG Export Plug-In . SVG Version: 6.00 Build 0)  -->
<svg version="1.1" id="HEP" xmlns="http://www.w3.org/2000/svg" xmlns:xlink="http://www.w3.org/1999/xlink" x="0px" y="0px"
	 viewBox="0 0 100 59.5" style="enable-background:new 0 0 100 59.5;" xml:space="preserve">
<style type="text/css">
	.st0{opacity:0.3;}
	.st1{fill:#79BB43;}
	.st2{opacity:0.7;}
</style>
<g>
	<g class="st0">
		<path class="st1" d="M26.1,13.6h-1.8l-0.2-0.1L19.8,5l0.1,8.4c0,0.1-0.1,0.2-0.2,0.2h-2c-0.1,0-0.2-0.1-0.2-0.2V0.4
			c0-0.1,0.1-0.2,0.2-0.2h1.8l0.2,0.1L24,8.9l-0.1-8.5c0-0.1,0.1-0.2,0.2-0.2h1.9c0.1,0,0.2,0.1,0.2,0.2v12.9
			C26.3,13.5,26.2,13.6,26.1,13.6z"/>
	</g>
</g>
<g>
	<g class="st0">
		<path class="st1" d="M33.4,7.5v5.9c0,0.1-0.1,0.2-0.2,0.2h-2c-0.1,0-0.2-0.1-0.2-0.2V7.5l-3.7-6.9c0-0.1,0-0.1,0-0.1
			c0-0.1,0.1-0.2,0.2-0.2h2.3L30,0.4l2,4.1c0,0.1,0.1,0.1,0.2,0.1s0.1,0,0.2-0.1l2-4.1l0.2-0.1h2.3c0.1,0,0.2,0.1,0.2,0.2
			c0,0,0,0.1,0,0.1L33.4,7.5z"/>
	</g>
</g>
<g>
	<g class="st0">
		<path class="st1" d="M38.3,13.4c0,0-0.1,0.1-0.2,0.1h-1.3c-0.1,0-0.2-0.1-0.2-0.2c0,0,0-0.1,0-0.1l5.5-12.9c0,0,0.1-0.1,0.2-0.1
			h1.3c0.1,0,0.2,0.1,0.2,0.2c0,0,0,0.1,0,0.1L38.3,13.4z"/>
	</g>
</g>
<g>
	<g class="st0">
		<path class="st1" d="M53.6,13.6h-1.8l-0.2-0.1L47.3,5l0.1,8.4c0,0.1-0.1,0.2-0.2,0.2h-2c-0.1,0-0.2-0.1-0.2-0.2V0.4
			c0-0.1,0.1-0.2,0.2-0.2H47l0.2,0.1l4.3,8.6l-0.1-8.5c0-0.1,0.1-0.2,0.2-0.2h1.9c0.1,0,0.2,0.1,0.2,0.2v12.9
			C53.8,13.5,53.7,13.6,53.6,13.6z"/>
	</g>
</g>
<g>
	<g class="st0">
		<path class="st1" d="M61.8,12.6c-0.7,0.8-1.6,1.1-2.8,1.1c-0.5,0-1.1-0.1-1.8-0.4c-1.3-0.7-2-1.6-2-2.1c0-0.1,0-0.1,0.1-0.2
			l1.9-0.9c0,0,0.1,0,0.1,0c0.1,0,0.2,0.1,0.3,0.4c0.3,0.7,0.7,1,1.4,1c0.9,0,1.5-0.7,1.5-1.5V0.4c0-0.1,0.1-0.2,0.2-0.2h2
			c0.1,0,0.2,0.1,0.2,0.2v9.4C62.9,10.8,62.5,11.8,61.8,12.6z"/>
	</g>
</g>
<g>
	<path class="st1" d="M17,28.7h-2c-0.1,0-0.2-0.1-0.2-0.2v-5.2c0-0.1-0.1-0.2-0.2-0.2h-3.9c-0.1,0-0.2,0.1-0.2,0.2v5.2
		c0,0.1-0.1,0.2-0.2,0.2h-2C8,28.7,8,28.6,8,28.5V15.6c0-0.1,0.1-0.2,0.2-0.2h2c0.1,0,0.2,0.1,0.2,0.2v5c0,0.1,0.1,0.2,0.2,0.2h3.9
		c0.1,0,0.2-0.1,0.2-0.2v-5c0-0.1,0.1-0.2,0.2-0.2h2c0.1,0,0.2,0.1,0.2,0.2v12.9C17.2,28.6,17.1,28.7,17,28.7z"/>
</g>
<g>
	<path class="st1" d="M28.1,28.5c0,0.1-0.1,0.2-0.2,0.2h-2.1c-0.1,0-0.2,0-0.2-0.1l-0.6-2.2c0-0.1-0.1-0.1-0.2-0.1h-3
		c-0.1,0-0.2,0-0.2,0.1l-0.6,2.2c0,0.1-0.1,0.1-0.2,0.1h-2.1c-0.1,0-0.2-0.1-0.2-0.2c0,0,0,0,0-0.1l3.9-12.9c0-0.1,0.1-0.1,0.2-0.1
		H24c0.1,0,0.2,0,0.2,0.1L28.1,28.5C28.1,28.4,28.1,28.5,28.1,28.5z M23.5,20.9c0-0.1-0.1-0.5-0.2-1.2h-0.1c-0.1,0.7-0.2,1-0.3,1.2
		l-0.7,2.8c0,0,0,0.1,0,0.1c0,0.1,0.1,0.2,0.2,0.2H24c0.1,0,0.2-0.1,0.2-0.2c0,0,0-0.1,0-0.1L23.5,20.9z"/>
</g>
<g>
	<path class="st1" d="M38,28.5c0,0.1-0.1,0.2-0.2,0.2h-2.2c-0.1,0-0.1,0-0.2-0.1l-1.9-5.4L33.4,23h-1.9c-0.1,0-0.2,0.1-0.2,0.2v5.2
		c0,0.1-0.1,0.2-0.2,0.2h-2c-0.1,0-0.2-0.1-0.2-0.2V15.6c0-0.1,0.1-0.2,0.2-0.2h4.8c2.4,0,3.9,1.5,3.9,3.9v0.2c0,1-0.5,1.8-0.9,2.3
		c-0.4,0.4-0.9,0.6-0.9,0.8v0l2,5.8C38,28.4,38,28.5,38,28.5z M35.3,19.1c0-0.8-0.7-1.5-1.5-1.5h-2.3c-0.1,0-0.2,0.1-0.2,0.2v2.8
		c0,0.1,0.1,0.2,0.2,0.2h2.3c0.8,0,1.5-0.7,1.5-1.5V19.1z"/>
</g>
<g>
	<path class="st1" d="M43.9,28.7h-4.8c-0.1,0-0.2-0.1-0.2-0.2V15.6c0-0.1,0.1-0.2,0.2-0.2h4.8c2.4,0,3.9,1.5,3.9,3.9v0.2
		c0,0.5-0.2,1-0.5,1.4c-0.4,0.6-0.7,0.9-0.7,1c0,0.1,0.3,0.4,0.7,1c0.3,0.5,0.5,1.1,0.5,1.6v0.3C47.8,27.2,46.3,28.7,43.9,28.7z
		 M45.4,19.1c0-0.8-0.7-1.5-1.5-1.5h-2.3c-0.1,0-0.2,0.1-0.2,0.2v2.8c0,0.1,0.1,0.2,0.2,0.2h2.3c0.8,0,1.5-0.7,1.5-1.5V19.1z
		 M45.4,24.5c0-0.8-0.7-1.5-1.5-1.5h-2.3c-0.1,0-0.2,0.1-0.2,0.2v3c0,0.1,0.1,0.2,0.2,0.2h2.3c0.8,0,1.5-0.7,1.5-1.5V24.5z"/>
</g>
<g>
	<path class="st1" d="M53.7,28.9h-1c-2.4,0-3.9-1.5-3.9-3.7v-6.3c0-2.2,1.6-3.7,3.9-3.7h1c2.4,0,3.9,1.5,3.9,3.7v6.3
		C57.6,27.4,56,28.9,53.7,28.9z M55.2,18.9c0-0.9-0.7-1.5-1.5-1.5h-1c-0.8,0-1.5,0.7-1.5,1.5v6.3c0,0.8,0.7,1.5,1.5,1.5h1
		c0.8,0,1.5-0.7,1.5-1.5V18.9z"/>
</g>
<g>
	<path class="st1" d="M67.8,28.5c0,0.1-0.1,0.2-0.2,0.2h-2.2c-0.1,0-0.1,0-0.2-0.1l-1.9-5.4L63.2,23h-1.9c-0.1,0-0.2,0.1-0.2,0.2
		v5.2c0,0.1-0.1,0.2-0.2,0.2h-2c-0.1,0-0.2-0.1-0.2-0.2V15.6c0-0.1,0.1-0.2,0.2-0.2h4.8c2.4,0,3.9,1.5,3.9,3.9v0.2
		c0,1-0.5,1.8-0.9,2.3c-0.4,0.4-0.9,0.6-0.9,0.8v0l2,5.8C67.8,28.4,67.8,28.5,67.8,28.5z M65.2,19.1c0-0.8-0.7-1.5-1.5-1.5h-2.3
		c-0.1,0-0.2,0.1-0.2,0.2v2.8c0,0.1,0.1,0.2,0.2,0.2h2.3c0.8,0,1.5-0.7,1.5-1.5V19.1z"/>
</g>
<g>
	<g class="st2">
		<path class="st1" d="M11.4,44c-0.7,0-1.5-0.3-2.3-0.7c-0.6-0.4-0.9-0.6-1-0.6S7.7,43,7,43.5C6.6,43.8,5.9,44,5,44H4.3
			c-2.4,0-3.9-1.5-3.9-3.9v-0.5c0-0.5,0.2-1.1,0.4-1.4c0.5-0.7,0.8-1.1,0.8-1.1c0-0.1-0.3-0.5-0.9-1.3c-0.1-0.2-0.3-0.8-0.3-1.5
			c0-2.5,1.5-4,3.9-4c2.4,0,3.9,1.5,3.9,4v0.4c0,0.6-0.3,1.4-0.7,2c-0.3,0.5-0.9,0.5-0.9,0.7c0,0.2,0.6,0.8,0.8,0.8
			c0.1,0,0.4-0.5,1-1.2c0.5-0.6,1.5-1,2.6-1h0.7c0.1,0,0.2,0.1,0.2,0.2v2c0,0.1-0.1,0.2-0.2,0.2h-0.8c-0.8,0-1.5,0.7-1.5,1.5v0.3
			l0.1,0.1c0.8,0.9,1.6,1,2.3,1.3c0.1,0,0.2,0.1,0.2,0.2v2C11.9,44,11.8,44,11.4,44z M5.9,34c0-0.8-0.7-1.5-1.5-1.5
			c-0.8,0-1.5,0.7-1.5,1.5c0,0.7,0.5,1.3,1.5,1.9l0.1,0c0.9-0.3,1.4-0.8,1.4-1.6V34z M6.4,40.9c0-0.3-0.8-1.3-2.7-2.5H3.5
			c-0.5,0.4-0.7,0.8-0.7,1.3v0.6c0,0.8,0.7,1.5,1.5,1.5H5C5.5,41.8,6,41.5,6.4,40.9C6.4,40.9,6.4,40.9,6.4,40.9z"/>
		<path class="st1" d="M25.1,43.8h-7.5c-0.1,0-0.2-0.1-0.2-0.2V30.7c0-0.1,0.1-0.2,0.2-0.2h7.5c0.1,0,0.2,0.1,0.2,0.2v1.8
			c0,0.1-0.1,0.2-0.2,0.2h-5c-0.1,0-0.2,0.1-0.2,0.2v2.8c0,0.1,0.1,0.2,0.2,0.2h4.1c0.1,0,0.2,0.1,0.2,0.2v1.8
			c0,0.1-0.1,0.2-0.2,0.2H20c-0.1,0-0.2,0.1-0.2,0.2v3c0,0.1,0.1,0.2,0.2,0.2h5c0.1,0,0.2,0.1,0.2,0.2v1.8
			C25.3,43.7,25.2,43.8,25.1,43.8z"/>
	</g>
</g>
<g>
	<g class="st2">
		<path class="st1" d="M29.3,34c0,1,1,1.3,2.5,2c2.3,1,3.3,2.2,3.3,4.3c0,2.2-1.5,3.7-3.9,3.7h-0.8c-1.2,0-2.1-0.3-2.8-1
			c-0.7-0.7-1-1.3-1-1.5c0,0,0-0.1,0.1-0.1l1.8-0.9c0,0,0.1,0,0.1,0c0.1,0,0.2,0.2,0.4,0.6c0.2,0.4,0.8,0.8,1.2,0.8h0.8
			c0.8,0,1.5-0.7,1.5-1.5c0-1.1-0.9-1.4-2.3-2.1c-2.3-1.1-3.5-2.1-3.5-4.2c0-2.2,1.6-3.7,3.9-3.7h0.3c1,0,1.7,0.2,2.4,0.7
			c0.8,0.6,1.4,1.5,1.4,1.8c0,0.1,0,0.1-0.1,0.2l-1.8,0.9c0,0-0.1,0-0.1,0c-0.1,0-0.1-0.1-0.3-0.3c-0.4-0.7-0.8-1.1-1.4-1.1h-0.3
			C30,32.5,29.3,33.1,29.3,34z"/>
		<path class="st1" d="M43.2,32.7h-2.3c-0.1,0-0.2,0.1-0.2,0.2v10.7c0,0.1-0.1,0.2-0.2,0.2h-2c-0.1,0-0.2-0.1-0.2-0.2V32.9
			c0-0.1-0.1-0.2-0.2-0.2h-2.3c-0.1,0-0.2-0.1-0.2-0.2v-1.8c0-0.1,0.1-0.2,0.2-0.2h7.4c0.1,0,0.2,0.1,0.2,0.2v1.8
			C43.4,32.6,43.3,32.7,43.2,32.7z"/>
		<path class="st1" d="M49.5,44h-1c-2.4,0-3.9-1.5-3.9-3.7v-9.6c0-0.1,0.1-0.2,0.2-0.2h2c0.1,0,0.2,0.1,0.2,0.2v9.6
			c0,0.8,0.7,1.5,1.5,1.5h1c0.8,0,1.5-0.7,1.5-1.5v-9.6c0-0.1,0.1-0.2,0.2-0.2h2c0.1,0,0.2,0.1,0.2,0.2v9.6
			C53.4,42.5,51.9,44,49.5,44z"/>
		<path class="st1" d="M64,43.6c0,0.1-0.1,0.2-0.2,0.2h-2.1c-0.1,0-0.2,0-0.2-0.1l-0.6-2.2c0-0.1-0.1-0.1-0.2-0.1h-3
			c-0.1,0-0.2,0-0.2,0.1l-0.6,2.2c0,0.1-0.1,0.1-0.2,0.1h-2.1c-0.1,0-0.2-0.1-0.2-0.2c0,0,0,0,0-0.1l3.9-12.9c0-0.1,0.1-0.1,0.2-0.1
			h1.5c0.1,0,0.2,0,0.2,0.1L64,43.6C63.9,43.6,64,43.6,64,43.6z M59.3,36c0-0.1-0.1-0.5-0.2-1.2H59c-0.1,0.7-0.2,1-0.3,1.2L58,38.8
			c0,0,0,0.1,0,0.1c0,0.1,0.1,0.2,0.2,0.2h1.5c0.1,0,0.2-0.1,0.2-0.2c0,0,0-0.1,0-0.1L59.3,36z"/>
		<path class="st1" d="M74.1,43.6c0,0.1-0.1,0.2-0.2,0.2h-2.2c-0.1,0-0.1,0-0.2-0.1l-1.9-5.4l-0.2-0.1h-1.9c-0.1,0-0.2,0.1-0.2,0.2
			v5.2c0,0.1-0.1,0.2-0.2,0.2h-2c-0.1,0-0.2-0.1-0.2-0.2V30.7c0-0.1,0.1-0.2,0.2-0.2h4.8c2.4,0,3.9,1.5,3.9,3.9v0.2
			c0,1-0.5,1.8-0.9,2.3c-0.4,0.4-0.9,0.6-0.9,0.8v0l2,5.8C74.1,43.6,74.1,43.6,74.1,43.6z M71.4,34.2c0-0.8-0.7-1.5-1.5-1.5h-2.3
			c-0.1,0-0.2,0.1-0.2,0.2v2.8c0,0.1,0.1,0.2,0.2,0.2h2.3c0.8,0,1.5-0.7,1.5-1.5L71.4,34.2L71.4,34.2z"/>
	</g>
</g>
<g>
	<g class="st2">
		<path class="st1" d="M80.3,37.7v5.9c0,0.1-0.1,0.2-0.2,0.2h-2c-0.1,0-0.2-0.1-0.2-0.2v-5.9l-3.7-6.9c0-0.1,0-0.1,0-0.1
			c0-0.1,0.1-0.2,0.2-0.2h2.3l0.2,0.1l2,4.1c0,0.1,0.1,0.1,0.2,0.1s0.1,0,0.2-0.1l2-4.1l0.2-0.1h2.3c0.2,0,0.2,0.1,0.2,0.2
			c0,0,0,0.1,0,0.1L80.3,37.7z"/>
	</g>
</g>
<g>
	<g class="st0">
		<path class="st1" d="M34.8,49.5c0,2.2-1.6,3.7-3.9,3.7H29c-0.1,0-0.2,0.1-0.2,0.2v5.2c0,0.1-0.1,0.2-0.2,0.2h-2
			c-0.1,0-0.2-0.1-0.2-0.2V45.8c0-0.1,0.1-0.2,0.2-0.2h4.3C33.3,45.6,34.8,47.1,34.8,49.5z M32.4,49.3c0-0.8-0.7-1.5-1.5-1.5H29
			c-0.1,0-0.2,0.1-0.2,0.2v2.8c0,0.1,0.1,0.2,0.2,0.2h1.9c0.8,0,1.5-0.7,1.5-1.5V49.3z"/>
		<path class="st1" d="M45.5,58.8c0,0.1-0.1,0.2-0.2,0.2h-2.2c-0.1,0-0.1,0-0.2-0.1L41,53.4l-0.2-0.1H39c-0.1,0-0.2,0.1-0.2,0.2v5.2
			c0,0.1-0.1,0.2-0.2,0.2h-2c-0.1,0-0.2-0.1-0.2-0.2V45.8c0-0.1,0.1-0.2,0.2-0.2h4.8c2.4,0,3.9,1.5,3.9,3.9v0.2c0,1-0.5,1.8-0.9,2.3
			c-0.4,0.4-0.9,0.6-0.9,0.8v0l2,5.8C45.5,58.7,45.5,58.7,45.5,58.8z M42.8,49.3c0-0.8-0.7-1.5-1.5-1.5H39c-0.1,0-0.2,0.1-0.2,0.2
			v2.8c0,0.1,0.1,0.2,0.2,0.2h2.3c0.8,0,1.5-0.7,1.5-1.5V49.3z"/>
		<path class="st1" d="M52,59.1h-1c-2.4,0-3.9-1.5-3.9-3.7v-6.3c0-2.2,1.6-3.7,3.9-3.7h1c2.4,0,3.9,1.5,3.9,3.7v6.3
			C55.9,57.6,54.3,59.1,52,59.1z M53.5,49.1c0-0.9-0.7-1.5-1.5-1.5h-1c-0.8,0-1.5,0.7-1.5,1.5v6.3c0,0.8,0.7,1.5,1.5,1.5h1
			c0.8,0,1.5-0.7,1.5-1.5V49.1z"/>
	</g>
</g>
<g>
	<g class="st0">
		<path class="st1" d="M65.6,46.1c0.8,0.6,1.3,1.5,1.3,1.8c0,0.1,0,0.1-0.1,0.2L65,49c0,0-0.1,0-0.1,0c-0.1,0-0.2-0.1-0.3-0.4
			c-0.4-0.7-0.8-1-1.4-1h-1.4c-0.8,0-1.5,0.7-1.5,1.5v6.3c0,0.8,0.7,1.5,1.5,1.5h1c0.8,0,1.5-0.7,1.5-1.5v-1c0-0.1-0.1-0.2-0.2-0.2
			h-2c-0.1,0-0.2-0.1-0.2-0.2v-1.8c0-0.1,0.1-0.2,0.2-0.2h4.4c0.2,0,0.2,0.1,0.2,0.2v3.2c0,2.2-1.6,3.7-3.9,3.7h-1
			c-2.4,0-3.9-1.5-3.9-3.7v-6.3c0-2.2,1.6-3.7,3.9-3.7h1.4C64.2,45.4,65,45.6,65.6,46.1z"/>
	</g>
</g>
<g>
	<g class="st0">
		<path class="st1" d="M78.3,58.8c0,0.1-0.1,0.2-0.2,0.2h-2.2c-0.1,0-0.1,0-0.2-0.1l-1.9-5.4l-0.2-0.1h-1.9c-0.1,0-0.2,0.1-0.2,0.2
			v5.2c0,0.1-0.1,0.2-0.2,0.2h-2c-0.1,0-0.2-0.1-0.2-0.2V45.8c0-0.1,0.1-0.2,0.2-0.2h4.8c2.4,0,3.9,1.5,3.9,3.9v0.2
			c0,1-0.5,1.8-0.9,2.3c-0.4,0.4-0.9,0.6-0.9,0.8v0l2,5.8C78.3,58.7,78.3,58.7,78.3,58.8z M75.7,49.3c0-0.8-0.7-1.5-1.5-1.5h-2.3
			c-0.1,0-0.2,0.1-0.2,0.2v2.8c0,0.1,0.1,0.2,0.2,0.2h2.3c0.8,0,1.5-0.7,1.5-1.5V49.3z"/>
		<path class="st1" d="M88.2,58.7c0,0.1-0.1,0.2-0.2,0.2h-2.1c-0.1,0-0.2,0-0.2-0.1L85,56.6c0-0.1-0.1-0.1-0.2-0.1h-3
			c-0.1,0-0.2,0-0.2,0.1l-0.6,2.2c0,0.1-0.1,0.1-0.2,0.1h-2.1c-0.1,0-0.2-0.1-0.2-0.2c0,0,0,0,0-0.1l3.9-12.9c0-0.1,0.1-0.1,0.2-0.1
			H84c0.1,0,0.2,0,0.2,0.1L88.2,58.7C88.2,58.7,88.2,58.7,88.2,58.7z M83.6,51.1c0-0.1-0.1-0.5-0.2-1.2h-0.1c-0.1,0.7-0.2,1-0.3,1.2
			l-0.7,2.8c0,0,0,0.1,0,0.1c0,0.1,0.1,0.2,0.2,0.2H84c0.1,0,0.2-0.1,0.2-0.2c0,0,0-0.1,0-0.1L83.6,51.1z"/>
	</g>
</g>
<g>
	<g class="st0">
		<path class="st1" d="M99.5,58.9h-1.9c-0.1,0-0.2-0.1-0.2-0.2l0.2-8.2L95.1,57C95,57,95,57.1,94.9,57.1h-1.1c-0.1,0-0.1,0-0.2-0.1
			l-2.4-6.5l0.2,8.2c0,0.1-0.1,0.2-0.2,0.2h-2c-0.1,0-0.2-0.1-0.2-0.2V45.8c0-0.1,0.1-0.2,0.2-0.2h1.8c0.1,0,0.1,0.1,0.2,0.1
			l3.1,8.4l3.1-8.4c0.1-0.1,0.1-0.1,0.2-0.1h1.8c0.1,0,0.2,0.1,0.2,0.2v12.9C99.7,58.9,99.6,58.9,99.5,58.9z"/>
	</g>
</g>
</svg>
