<?xml version="1.0" encoding="utf-8"?>
<!-- Generator: Adobe Illustrator 22.0.1, SVG Export Plug-In . SVG Version: 6.00 Build 0)  -->
<svg version="1.1" id="HRF" xmlns="http://www.w3.org/2000/svg" xmlns:xlink="http://www.w3.org/1999/xlink" x="0px" y="0px"
	 viewBox="0 0 95.8 44.7" style="enable-background:new 0 0 95.8 44.7;" xml:space="preserve">
<style type="text/css">
	.st0{fill:#159AD6;}
	.st1{opacity:0.7;}
	.st2{opacity:0.3;}
</style>
<g>
	<g>
		<path class="st0" d="M9.4,13.8h-2c-0.1,0-0.2-0.1-0.2-0.2V8.3c0-0.1-0.1-0.2-0.2-0.2H3.1c-0.1,0-0.2,0.1-0.2,0.2v5.2
			c0,0.1-0.1,0.2-0.2,0.2h-2c-0.1,0-0.2-0.1-0.2-0.2V0.7c0-0.1,0.1-0.2,0.2-0.2h2c0.1,0,0.2,0.1,0.2,0.2v5c0,0.1,0.1,0.2,0.2,0.2H7
			c0.1,0,0.2-0.1,0.2-0.2v-5c0-0.1,0.1-0.2,0.2-0.2h2c0.1,0,0.2,0.1,0.2,0.2v12.9C9.6,13.7,9.6,13.8,9.4,13.8z"/>
	</g>
	<g>
		<path class="st0" d="M16.1,14h-1c-2.4,0-3.9-1.5-3.9-3.7V0.7c0-0.1,0.1-0.2,0.2-0.2h2c0.1,0,0.2,0.1,0.2,0.2v9.6
			c0,0.8,0.7,1.5,1.5,1.5h1c0.8,0,1.5-0.7,1.5-1.5V0.7c0-0.1,0.1-0.2,0.2-0.2h2C20,0.4,20,0.5,20,0.7v9.6C20,12.5,18.5,14,16.1,14z"
			/>
	</g>
	<g>
		<path class="st0" d="M26.9,13.8h-4.8c-0.1,0-0.2-0.1-0.2-0.2V0.7c0-0.1,0.1-0.2,0.2-0.2h4.8c2.4,0,3.9,1.5,3.9,3.9v5.5
			C30.8,12.2,29.3,13.8,26.9,13.8z M28.4,4.2c0-0.8-0.7-1.5-1.5-1.5h-2.3c-0.1,0-0.2,0.1-0.2,0.2v8.5c0,0.1,0.1,0.2,0.2,0.2h2.3
			c0.8,0,1.5-0.7,1.5-1.5V4.2z"/>
	</g>
	<g>
		<path class="st0" d="M34.6,4c0,1,1,1.3,2.5,2c2.3,1,3.3,2.2,3.3,4.3c0,2.2-1.5,3.7-3.9,3.7h-0.8c-1.2,0-2.1-0.3-2.7-1
			c-0.7-0.7-1-1.3-1-1.5c0,0,0-0.1,0.1-0.1l1.8-0.9c0,0,0.1,0,0.1,0c0.1,0,0.2,0.2,0.4,0.6c0.2,0.4,0.8,0.8,1.2,0.8h0.8
			c0.8,0,1.5-0.7,1.5-1.5c0-1.1-0.9-1.4-2.3-2.1C33.3,7,32.2,6.1,32.2,4c0-2.2,1.6-3.7,3.9-3.7h0.3c1,0,1.7,0.2,2.4,0.7
			c0.8,0.6,1.4,1.5,1.4,1.8c0,0.1,0,0.1-0.1,0.2l-1.8,0.9c0,0-0.1,0-0.1,0c-0.1,0-0.1-0.1-0.3-0.3c-0.4-0.7-0.8-1.1-1.4-1.1h-0.3
			C35.3,2.5,34.6,3.1,34.6,4z"/>
	</g>
	<g>
		<path class="st0" d="M46.8,14h-1c-2.4,0-3.9-1.5-3.9-3.7V4c0-2.2,1.6-3.7,3.9-3.7h1c2.4,0,3.9,1.5,3.9,3.7v6.3
			C50.7,12.5,49.1,14,46.8,14z M48.3,4c0-0.9-0.7-1.5-1.5-1.5h-1c-0.8,0-1.5,0.7-1.5,1.5v6.3c0,0.8,0.7,1.5,1.5,1.5h1
			c0.8,0,1.5-0.7,1.5-1.5V4z"/>
	</g>
	<g>
		<path class="st0" d="M61.2,13.8h-1.8l-0.2-0.1l-4.3-8.5l0.1,8.4c0,0.1-0.1,0.2-0.2,0.2h-2c-0.1,0-0.2-0.1-0.2-0.2V0.7
			c0-0.1,0.1-0.2,0.2-0.2h1.8l0.2,0.1l4.3,8.6L59,0.7c0-0.1,0.1-0.2,0.2-0.2h1.9c0.1,0,0.2,0.1,0.2,0.2v12.9
			C61.4,13.7,61.3,13.8,61.2,13.8z"/>
	</g>
	<g>
		<g class="st1">
			<path class="st0" d="M17.6,28.7c0,0.1-0.1,0.2-0.2,0.2h-2.2c-0.1,0-0.1,0-0.2-0.1l-1.9-5.4L13,23.2h-1.9c-0.1,0-0.2,0.1-0.2,0.2
				v5.2c0,0.1-0.1,0.2-0.2,0.2h-2c-0.1,0-0.2-0.1-0.2-0.2V15.8c0-0.1,0.1-0.2,0.2-0.2h4.8c2.4,0,3.9,1.5,3.9,3.9v0.2
				c0,1-0.5,1.8-0.9,2.3c-0.4,0.4-0.9,0.6-0.9,0.8v0l2,5.8C17.6,28.7,17.6,28.7,17.6,28.7z M15,19.3c0-0.8-0.7-1.5-1.5-1.5h-2.3
				c-0.1,0-0.2,0.1-0.2,0.2v2.8c0,0.1,0.1,0.2,0.2,0.2h2.3c0.8,0,1.5-0.7,1.5-1.5V19.3z"/>
		</g>
	</g>
	<g>
		<g class="st1">
			<path class="st0" d="M21.2,28.9h-2c-0.1,0-0.2-0.1-0.2-0.2V15.8c0-0.1,0.1-0.2,0.2-0.2h2c0.1,0,0.2,0.1,0.2,0.2v12.9
				C21.4,28.8,21.4,28.9,21.2,28.9z"/>
		</g>
	</g>
	<g>
		<g class="st1">
			<path class="st0" d="M28.3,28.7c0,0.1-0.1,0.1-0.2,0.1h-1.5c-0.1,0-0.2,0-0.2-0.1l-3.9-12.9c0,0,0-0.1,0-0.1
				c0-0.1,0.1-0.2,0.2-0.2h2.1c0.1,0,0.2,0,0.2,0.1l2.4,8.6l2.3-8.6c0-0.1,0.1-0.1,0.2-0.1h2.1c0.1,0,0.2,0.1,0.2,0.2
				c0,0,0,0.1,0,0.1L28.3,28.7z"/>
		</g>
	</g>
	<g>
		<g class="st1">
			<path class="st0" d="M40.8,28.9h-7.5c-0.1,0-0.2-0.1-0.2-0.2V15.8c0-0.1,0.1-0.2,0.2-0.2h7.5c0.1,0,0.2,0.1,0.2,0.2v1.8
				c0,0.1-0.1,0.2-0.2,0.2h-5c-0.1,0-0.2,0.1-0.2,0.2v2.8c0,0.1,0.1,0.2,0.2,0.2h4.1c0.1,0,0.2,0.1,0.2,0.2V23
				c0,0.1-0.1,0.2-0.2,0.2h-4.1c-0.1,0-0.2,0.1-0.2,0.2v3c0,0.1,0.1,0.2,0.2,0.2h5c0.1,0,0.2,0.1,0.2,0.2v1.8
				C41,28.8,41,28.9,40.8,28.9z"/>
		</g>
	</g>
	<g>
		<g class="st1">
			<path class="st0" d="M51.8,28.7c0,0.1-0.1,0.2-0.2,0.2h-2.2c-0.1,0-0.1,0-0.2-0.1l-1.9-5.4l-0.2-0.1h-1.9c-0.1,0-0.2,0.1-0.2,0.2
				v5.2c0,0.1-0.1,0.2-0.2,0.2h-2c-0.1,0-0.2-0.1-0.2-0.2V15.8c0-0.1,0.1-0.2,0.2-0.2h4.8c2.4,0,3.9,1.5,3.9,3.9v0.2
				c0,1-0.5,1.8-0.9,2.3c-0.4,0.4-0.9,0.6-0.9,0.8v0l2,5.8C51.8,28.7,51.8,28.7,51.8,28.7z M49.1,19.3c0-0.8-0.7-1.5-1.5-1.5h-2.3
				c-0.1,0-0.2,0.1-0.2,0.2v2.8c0,0.1,0.1,0.2,0.2,0.2h2.3c0.8,0,1.5-0.7,1.5-1.5V19.3z"/>
		</g>
	</g>
	<g>
		<g class="st2">
			<path class="st0" d="M11.4,32.9h-5c-0.1,0-0.2,0.1-0.2,0.2v2.8c0,0.1,0.1,0.2,0.2,0.2h4.1c0.1,0,0.2,0.1,0.2,0.2v1.8
				c0,0.1-0.1,0.2-0.2,0.2H6.4c-0.1,0-0.2,0.1-0.2,0.2v5.2C6.2,43.9,6.1,44,6,44H4c-0.1,0-0.2-0.1-0.2-0.2V30.9
				c0-0.1,0.1-0.2,0.2-0.2h7.5c0.1,0,0.2,0.1,0.2,0.2v1.8C11.6,32.8,11.6,32.9,11.4,32.9z"/>
		</g>
	</g>
	<g>
		<g class="st2">
			<path class="st0" d="M16.9,44.2h-1c-2.4,0-3.9-1.5-3.9-3.7v-6.3c0-2.2,1.6-3.7,3.9-3.7h1c2.4,0,3.9,1.5,3.9,3.7v6.3
				C20.9,42.7,19.3,44.2,16.9,44.2z M18.4,34.2c0-0.9-0.7-1.5-1.5-1.5h-1c-0.8,0-1.5,0.7-1.5,1.5v6.3c0,0.8,0.7,1.5,1.5,1.5h1
				c0.8,0,1.5-0.7,1.5-1.5V34.2z"/>
			<path class="st0" d="M27.5,44.2h-1c-2.4,0-3.9-1.5-3.9-3.7v-9.6c0-0.1,0.1-0.2,0.2-0.2h2c0.1,0,0.2,0.1,0.2,0.2v9.6
				c0,0.8,0.7,1.5,1.5,1.5h1c0.8,0,1.5-0.7,1.5-1.5v-9.6c0-0.1,0.1-0.2,0.2-0.2h2c0.1,0,0.2,0.1,0.2,0.2v9.6
				C31.4,42.7,29.8,44.2,27.5,44.2z"/>
			<path class="st0" d="M41.9,44h-1.8l-0.2-0.1l-4.3-8.5l0.1,8.4c0,0.1-0.1,0.2-0.2,0.2h-2c-0.1,0-0.2-0.1-0.2-0.2V30.9
				c0-0.1,0.1-0.2,0.2-0.2h1.8l0.2,0.1l4.3,8.6l-0.1-8.5c0-0.1,0.1-0.2,0.2-0.2h1.9c0.1,0,0.2,0.1,0.2,0.2v12.9
				C42.1,43.9,42,44,41.9,44z"/>
			<path class="st0" d="M49.2,44h-4.8c-0.1,0-0.2-0.1-0.2-0.2V30.9c0-0.1,0.1-0.2,0.2-0.2h4.8c2.4,0,3.9,1.5,3.9,3.9v5.5
				C53.2,42.5,51.7,44,49.2,44z M50.8,34.4c0-0.8-0.7-1.5-1.5-1.5h-2.3c-0.1,0-0.2,0.1-0.2,0.2v8.5c0,0.1,0.1,0.2,0.2,0.2h2.3
				c0.8,0,1.5-0.7,1.5-1.5V34.4z"/>
		</g>
	</g>
	<g>
		<g class="st2">
			<path class="st0" d="M63.3,43.8c0,0.1-0.1,0.2-0.2,0.2H61c-0.1,0-0.2,0-0.2-0.1l-0.6-2.2c0-0.1-0.1-0.1-0.2-0.1h-3
				c-0.1,0-0.2,0-0.2,0.1L56,43.9c0,0.1-0.1,0.1-0.2,0.1h-2.1c-0.1,0-0.2-0.1-0.2-0.2c0,0,0,0,0-0.1l3.9-12.9c0-0.1,0.1-0.1,0.2-0.1
				h1.5c0.1,0,0.2,0,0.2,0.1L63.3,43.8C63.3,43.8,63.3,43.8,63.3,43.8z M58.7,36.2c0-0.1-0.1-0.5-0.2-1.2h-0.1
				c-0.1,0.7-0.2,1-0.3,1.2L57.4,39c0,0,0,0.1,0,0.1c0,0.1,0.1,0.2,0.2,0.2h1.5c0.2,0,0.2-0.1,0.2-0.2c0,0,0-0.1,0-0.1L58.7,36.2z"
				/>
		</g>
	</g>
	<g>
		<g class="st2">
			<path class="st0" d="M70.1,32.9h-2.3c-0.1,0-0.2,0.1-0.2,0.2v10.7c0,0.1-0.1,0.2-0.2,0.2h-2c-0.1,0-0.2-0.1-0.2-0.2V33.1
				c0-0.1-0.1-0.2-0.2-0.2h-2.3c-0.1,0-0.2-0.1-0.2-0.2v-1.8c0-0.1,0.1-0.2,0.2-0.2h7.4c0.1,0,0.2,0.1,0.2,0.2v1.8
				C70.3,32.8,70.2,32.9,70.1,32.9z"/>
		</g>
	</g>
	<g>
		<g class="st2">
			<path class="st0" d="M73.7,44h-2c-0.1,0-0.2-0.1-0.2-0.2V30.9c0-0.1,0.1-0.2,0.2-0.2h2c0.1,0,0.2,0.1,0.2,0.2v12.9
				C73.9,43.9,73.9,44,73.7,44z"/>
			<path class="st0" d="M80.6,44.2h-1c-2.4,0-3.9-1.5-3.9-3.7v-6.3c0-2.2,1.6-3.7,3.9-3.7h1c2.4,0,3.9,1.5,3.9,3.7v6.3
				C84.5,42.7,83,44.2,80.6,44.2z M82.1,34.2c0-0.9-0.7-1.5-1.5-1.5h-1c-0.8,0-1.5,0.7-1.5,1.5v6.3c0,0.8,0.7,1.5,1.5,1.5h1
				c0.8,0,1.5-0.7,1.5-1.5V34.2z"/>
		</g>
	</g>
	<g>
		<g class="st2">
			<path class="st0" d="M94.8,44H93l-0.2-0.1l-4.3-8.5l0.1,8.4c0,0.1-0.1,0.2-0.2,0.2h-2c-0.1,0-0.2-0.1-0.2-0.2V30.9
				c0-0.1,0.1-0.2,0.2-0.2h1.8l0.2,0.1l4.3,8.6l-0.1-8.5c0-0.1,0.1-0.2,0.2-0.2h1.9c0.1,0,0.2,0.1,0.2,0.2v12.9
				C95,43.9,94.9,44,94.8,44z"/>
		</g>
	</g>
</g>
</svg>
