<?xml version="1.0" encoding="utf-8"?>
<!-- Generator: Adobe Illustrator 25.2.1, SVG Export Plug-In . SVG Version: 6.00 Build 0)  -->
<svg version="1.1" id="Layer_1" xmlns="http://www.w3.org/2000/svg" xmlns:xlink="http://www.w3.org/1999/xlink" x="0px" y="0px"
	 viewBox="0 0 72 72" style="enable-background:new 0 0 72 72;" xml:space="preserve">
<style type="text/css">
	.st0{fill:#E3BE3A;}
	.st1{fill:none;}
	.st2{fill:none;stroke:#FFFFFF;stroke-width:0.7613;stroke-miterlimit:10;}
	.st3{fill:none;stroke:#FFFFFF;stroke-width:0.75;stroke-miterlimit:10;}
	.st4{fill:none;stroke:#FFFFFF;stroke-width:0.7761;stroke-miterlimit:10;}
	.st5{fill:#1C75BC;stroke:#FFFFFF;stroke-width:0.75;stroke-miterlimit:10;}
	.st6{fill:#1C75BC;stroke:#FFFFFF;stroke-miterlimit:10;}
	.st7{fill:none;stroke:#FFFFFF;stroke-width:0.7946;stroke-miterlimit:10;}
</style>
<g>
	<circle class="st0" cx="36" cy="36.1" r="35.9"/>
</g>
<g>
	<path class="st1" d="M19.2,55.5c0,0,7.8-3.8,13.7-4.9s8.4,0.4,12.2,0s6-3.8,6-3.8s7.1,1.3,9.3-1.1c2.2-2.4,4.7-6.8,4.6-8.5
		c0-0.7-1.7-5.5-1.7-5.5s1.6-4.2-0.9-6.7c-2.4-2.4-4.9-5.1-5.3-6.2c-0.4-1.1-2.4-2.7-8-2.4C43.6,16.7,39,18,37.5,18s-3.9-1.1-9,2.9
		s-8.9,3.1-10.2,9.8c-1.3,6.7-0.2,4.1-3.5,8.4s-3.8,7.1-3.2,10.2c0.6,3.1-2.1,4.4,2.8,5.3S19.2,55.5,19.2,55.5z"/>
	<path class="st2" d="M19.3,54.4c0,0,7.5-3.6,13.2-4.6s8.1,0.4,11.7,0c3.6-0.4,5.8-3.6,5.8-3.6s6.8,1.3,8.9-1c2.1-2.3,4.5-6.4,4.4-8
		c0-0.6-1.7-5.2-1.7-5.2s1.5-4-0.9-6.3s-4.6-4.7-5-5.7s-2.3-2.5-7.7-2.3s-9.7,1.5-11.1,1.5c-1.4,0-3.8-1-8.7,2.7s-8.5,2.9-9.8,9.2
		S18.2,35,15,39s-3.7,6.7-3.1,9.7c0.6,2.9-2,4.2,2.7,5C19.3,54.4,19.3,54.4,19.3,54.4z"/>
	<path class="st3" d="M21.2,52.8c0,0,6.6-3.2,11.7-4.1s7.2,0.4,10.4,0s5.1-3.2,5.1-3.2s6,1.1,7.9-0.9c1.9-2.1,4-5.8,3.9-7.2
		c0-0.6-1.5-4.7-1.5-4.7s1.3-3.6-0.8-5.6c-2.1-2.1-4.2-4.3-4.5-5.3c-0.4-0.9-2.1-2.3-6.8-2.1S38.1,21,36.9,21s-3.3-0.9-7.7,2.4
		s-7.6,2.6-8.7,8.3c-1.1,5.6-0.2,3.5-3,7.1s-3.3,6.1-2.8,8.7c0.5,2.6-1.8,3.8,2.4,4.5C21.2,52.8,21.2,52.8,21.2,52.8z"/>
	<path class="st4" d="M20.7,53.2c0,0,6.1-3,10.9-3.8s6.7,0.3,9.7,0s4.7-3,4.7-3s5.6,1,7.4-0.9c1.8-1.9,3.7-5.4,3.7-6.7
		c0-0.5-1.4-4.3-1.4-4.3s1.2-3.3-0.7-5.2c-1.9-1.9-3.9-4-4.2-4.9c-0.4-0.9-1.9-2.1-6.3-1.9s-8,1.2-9.2,1.2s-3.1-0.9-7.1,2.3
		s-7,2.4-8.1,7.7s-0.2,3.2-2.8,6.6s-3,5.6-2.6,8.1c0.5,2.4-1.6,3.5,2.2,4.2S20.7,53.2,20.7,53.2z"/>
	<path class="st3" d="M22.8,50.3c0,0,5.2-2.5,9.3-3.2s5.7,0.3,8.2,0s4-2.5,4-2.5s4.8,0.9,6.3-0.7s3.2-4.5,3.1-5.5
		c0-0.4-1.2-3.6-1.2-3.6s1-2.8-0.6-4.3c-1.6-1.6-3.3-3.3-3.6-4.1c-0.3-0.7-1.6-1.7-5.4-1.6c-3.7,0.1-6.8,1-7.8,1s-2.6-0.7-6.1,1.9
		s-6,2-6.9,6.4c-0.9,4.3-0.1,2.7-2.4,5.5c-2.2,2.8-2.6,4.7-2.2,6.7s-1.4,2.9,1.9,3.5S22.8,50.3,22.8,50.3z"/>
	<path class="st4" d="M23.2,49.9c0,0,4.8-2.3,8.5-2.9c3.7-0.7,5.2,0.3,7.6,0c2.3-0.3,3.7-2.3,3.7-2.3s4.4,0.8,5.8-0.7
		s2.9-4.1,2.9-5.1c0-0.4-1.1-3.3-1.1-3.3s1-2.5-0.5-4s-3-3.1-3.3-3.7c-0.3-0.7-1.5-1.6-4.9-1.5s-6.3,0.9-7.2,0.9S32.1,26.6,29,29
		s-5.5,1.9-6.3,5.9s-0.1,2.5-2.2,5.1s-2.4,4.3-2,6.2s-1.3,2.7,1.7,3.2S23.2,49.9,23.2,49.9z"/>
	<path class="st3" d="M25.2,46.4c0,0,3.7-1.6,6.5-2.1s4,0.2,5.8,0s2.8-1.6,2.8-1.6s3.4,0.6,4.4-0.5c1-1,2.2-2.9,2.2-3.6
		c0-0.2,0-1.6-0.3-3c-0.2-0.9-0.5-1.8-0.9-2.2c-1.2-1-2.3-2.2-2.5-2.7s-1.2-1.1-3.8-1s-4.8,0.7-5.5,0.7s-1.9-0.5-4.3,1.2
		s-4.2,1.3-4.8,4.2s-0.1,1.8-1.7,3.6s-1.8,3.1-1.5,4.4s-1,1.9,1.3,2.3S25.2,46.4,25.2,46.4z"/>
	<path class="st3" d="M25.8,45.7c0,0,2.8-1.2,4.9-1.6s3,0.1,4.4,0s2.2-1.2,2.2-1.2s2.5,0.4,3.3-0.4c0.8-0.8,1.7-2.2,1.7-2.8
		c0-0.2-0.6-1.8-0.6-1.8s0.6-1.4-0.3-2.2s-1.8-1.7-1.9-2s-1-0.7-3-0.7c-2,0.1-3.6,0.5-4.2,0.5c-0.5,0-1.4-0.4-3.2,0.9
		c-1.8,1.3-3.2,1-3.7,3.2s-0.1,1.3-1.3,2.7c-1.2,1.4-1.4,2.3-1.2,3.3c0.2,1-0.7,1.4,1,1.7C25.8,45.7,25.8,45.7,25.8,45.7z"/>
	<line class="st3" x1="47" y1="27.6" x2="43.1" y2="30.7"/>
	<path class="st5" d="M48.7,34.9l2,0.2L48.7,34.9z"/>
	<polyline class="st3" points="46.6,35.6 48.7,34.9 52.6,34.8 58.8,32.7 61.7,32 	"/>
	<polyline class="st6" points="40.2,43.1 44.4,44.7 49.8,46.4 	"/>
	<path class="st7" d="M19.6,54.4c0,0,7.8-3.7,13.8-4.8s8.4,0.4,12.2,0s6-3.7,6-3.7s7.1,1.3,9.3-1.1c2.2-2.4,4.7-6.7,4.6-8.4
		c0-0.7-1.7-5.4-1.7-5.4s1.6-4.2-0.9-6.6c-2.4-2.4-4.9-5-5.3-6.1c-0.4-1.1-2.4-2.6-8-2.4c-5.5,0.2-10.1,1.5-11.6,1.5s-3.9-1.1-9,2.8
		s-9,3.2-10.3,9.8s-0.2,4.1-3.5,8.3s-3.8,7-3.2,10.1c0.6,3.1-2.1,4.4,2.8,5.2S19.6,54.4,19.6,54.4z"/>
</g>
</svg>
