<?xml version="1.0" encoding="utf-8"?>
<!-- Generator: Adobe Illustrator 25.2.1, SVG Export Plug-In . SVG Version: 6.00 Build 0)  -->
<svg version="1.1" id="Layer_1" xmlns="http://www.w3.org/2000/svg" xmlns:xlink="http://www.w3.org/1999/xlink" x="0px" y="0px"
	 viewBox="0 0 72 72" style="enable-background:new 0 0 72 72;" xml:space="preserve">
<style type="text/css">
	.st0{fill:#E3BE3A;}
	.st1{fill:#FFFFFF;}
</style>
<g>
	<circle class="st0" cx="36" cy="36" r="36"/>
	<path class="st1" d="M34.2,22.4c0,0-1.9,1.6-2.8,2.5c-1.3,1.3-3.2,4.1-3.2,4.1s-2.9,0.3-4.4,0.9c-3.6,1.5-6.2,3-7.5,3.6
		c-1.1,0.5-5.8,2.5-6.6,3.1c-0.8,0.5-2.1,1.5-2.1,2.3c-0.1,0.8,0.6,1.3,1.7,2s0.9,0.3,3.4,1.3c1.2,0.5,2.3,0.6,5.2,1.3
		c1.8,0.5,3.6,0.1,3.6,0.1s2.1,2.1,3.9,3c1.7,0.8,2.4,0.6,3.5,0.3c-1.2-1.6-2.1-3.4-2.1-3.4s4.6,0.4,7.2,0.3
		c2.8-0.1,4.9-0.5,5.5-0.7c1.4-0.4,2.9-0.9,2.9-0.9s0.9,1.5,1.6,2.1c1.1,0.9,2.7,0.7,2.9,0.4c0.3-0.4-0.1-0.8,0.5-2.1
		c0.6-1.2,1.2-1.5,1.5-2s0.7-1,1-1.9c1.6-0.5,5.2,0.1,6.1,0.3c0.5,0.1,1.5,1.4,2.3,2.1c1.1,1,2,1.6,3,2.1c0.8,0.4,2.1,0.7,2.5,0.4
		c-0.3-1.1-1.4-2.6-1.8-4.8c-0.4-2.1-0.7-3.8,0-6.5c0.5-2,1.5-4.1,1.4-4.7c-0.7,0-3.1,1.3-4.5,2.7c-1.7,1.8-3,2.5-3,2.5
		s-2.8,0.4-4.8-0.3c0.4-0.4,1-1.4,1.2-1.9c0.1-0.5-1.8-0.7-2.5-1.2c-1.6-1-2.1-1.1-2.6-1.5s-1.5-1.4-1.8-2.1c-0.2-0.6-1-0.6-1.7,0
		c-0.9,0.7-2.5,2.5-3.1,3c-0.3,0.2-1.6,0.1-1.5,0c0.4-1.7,0.8-3-0.2-3.4c-1.7-0.7-3.5-3.1-3.5-3.1L34.2,22.4z"/>
</g>
</svg>
