<?xml version="1.0" encoding="utf-8"?>
<!-- Generator: Adobe Illustrator 25.2.1, SVG Export Plug-In . SVG Version: 6.00 Build 0)  -->
<svg version="1.1" id="Layer_1" xmlns="http://www.w3.org/2000/svg" xmlns:xlink="http://www.w3.org/1999/xlink" x="0px" y="0px"
	 viewBox="0 0 72 72" style="enable-background:new 0 0 72 72;" xml:space="preserve">
<style type="text/css">
	.st0{fill:#E3BE3A;}
	.st1{fill:none;}
	.st2{fill:#FFFFFF;}
</style>
<g>
	<circle class="st0" cx="36" cy="36" r="36"/>
</g>
<path class="st1" d="M15.1,46.3V32.4H15h-1c-0.4,0-0.7-0.3-0.7-0.7L13.6,18c0-0.4,0.3-0.7,0.7-0.7l3.4-0.1v-1.1
	c-1.1-0.5-1.9-1.5-1.9-2.8c0-1.7,1.4-3,3-3c1.7,0,3,1.4,3,3c0,1.3-0.8,2.4-1.9,2.8v1.1l3.4,0.1c0.4,0,0.7,0.3,0.7,0.7l0.4,13.6
	c0,0.4-0.3,0.7-0.7,0.7h-1h-0.1v13.8c0,0.2-0.1,0.5-0.3,0.6h5.8c-0.2-0.1-0.4-0.3-0.4-0.6v-9.9c0-0.1-0.3-0.1-0.4-0.1
	c-0.5,0-0.9-0.1-1-0.5c0,0-0.8-4.4-0.2-9.7c0.4-2.8,1.2-6.5,1.2-6.5c0-0.4,0.3-0.7,0.7-0.7l2-0.4l0.1-0.9c-1-0.4-1.7-1.4-1.7-2.5
	c0-1.5,1.2-2.7,2.7-2.7c1.5,0,2.7,1.2,2.7,2.7c0,1.1-0.6,2-1.6,2.5v1l2.1,0.5c0.4,0,0.7,0.3,0.7,0.7c0,0,1,3.7,1.3,6.6
	c0.5,3.8-0.3,9.1-0.4,9.6c-0.1,0.5-0.9,0.4-1.1,0.4s-0.4,0-0.5,0.1c0,0.1,0,9.8,0,9.8c0,0.3-0.2,0.5-0.5,0.6H40
	c-0.2,0-0.4-0.2-0.4-0.5V35.6h-0.1h-0.8c-0.3,0-0.5-0.2-0.5-0.5l0.4-10.6c0-0.3,0.2-0.5,0.5-0.5h2.5v-1c-0.8-0.4-1.4-1.2-1.4-2.2
	c0-1.3,1.1-2.4,2.4-2.4s2.4,1.1,2.4,2.4c0,1-0.6,1.8-1.5,2.2v0.8l2.1,0.1c0.3,0,0.5,0.2,0.5,0.5l1,3.6l1.7-0.4l13.6-9.8
	c0.3-0.2,0.7-0.1,0.9,0.2l0.3,0.4c0.2,0.2,0.2,0.5,0,0.7v27.7h6.5c1.1-3.4,1.7-7,1.7-10.8c0-19.9-16.1-36-36-36S0,16.2,0,36
	c0,3.8,0.6,7.4,1.7,10.8h13.7C15.2,46.7,15.1,46.5,15.1,46.3z"/>
<path class="st1" d="M56.1,65.5c-1.9,0-2.9-0.5-3.8-1c-0.8-0.4-1.5-0.8-2.9-0.8c-1.6,0-2.4,0.4-3.2,0.9c-0.9,0.5-1.8,1-3.6,1
	c-2,0-3-0.6-3.8-1.1c-0.8-0.4-1.4-0.8-2.9-0.8c-1.6,0-2.4,0.5-3.2,0.9c-0.9,0.5-1.9,1-3.6,1s-2.7-0.6-3.6-1.1
	c-0.8-0.5-1.6-0.9-3.1-0.9c-1.4,0-2.1,0.4-2.9,0.9c-0.9,0.5-1.9,1.1-3.8,1.1c-0.1,0-0.2,0-0.3,0c5.8,4,12.9,6.4,20.6,6.4
	s14.8-2.4,20.6-6.5C56.5,65.5,56.3,65.5,56.1,65.5z"/>
<path class="st1" d="M52.1,27.9L48,30.7h-0.2l-2.2,1.6c0,1.5,0,3.3,0,3.3v10.8c0,0.3-0.2,0.5-0.5,0.5h17.4V20.1l-9.8,7.1
	C52.6,27.3,52.5,27.6,52.1,27.9z"/>
<path class="st1" d="M43,46.3V35.2h-0.6v11.1c0,0.3-0.2,0.5-0.4,0.5h1.5C43.2,46.8,43,46.6,43,46.3z"/>
<path class="st1" d="M13.6,60.2c1.6,0,2.3-0.4,3.1-0.9c0.8-0.5,1.8-1,3.5-1c1.8,0,2.8,0.6,3.7,1.1c0.9,0.5,1.6,0.9,3,0.9
	s2.1-0.4,3-0.9s1.9-1.1,3.8-1.1c1.8,0,2.7,0.5,3.5,1s1.5,0.9,3.2,0.9c1.5,0,2.2-0.4,3-0.8c0.9-0.5,1.9-1,3.8-1c1.8,0,2.7,0.5,3.5,1
	c0.8,0.4,1.5,0.9,3.1,0.9c1.7,0,2.4-0.4,3.2-0.9s1.7-1.1,3.5-1.1c1.4,0,2.4,0.3,3.1,0.7c0.4-0.5,0.8-1,1.2-1.5
	c-1.1-0.1-1.9-0.5-2.6-0.9c-0.8-0.5-1.6-0.9-3.3-0.9c-1.5,0-2.1,0.4-2.9,0.9c-0.8,0.5-1.8,1.1-3.8,1.1c-1.9,0-2.9-0.5-3.8-1
	c-0.8-0.4-1.5-0.8-2.9-0.8c-1.6,0-2.4,0.4-3.2,0.9c-0.9,0.5-1.8,1-3.6,1c-2,0-3-0.6-3.8-1.1c-0.8-0.4-1.4-0.8-2.9-0.8
	c-1.6,0-2.4,0.5-3.2,0.9c-0.9,0.5-1.9,1-3.6,1s-2.7-0.6-3.6-1.1c-0.8-0.5-1.6-0.9-3.1-0.9c-1.4,0-2.1,0.4-2.9,0.9
	c-0.9,0.5-1.9,1.1-3.8,1.1c-1.6,0-2.6-0.5-3.5-1.1c-0.8-0.5-1.5-0.9-2.8-1c0.6,0.9,1.3,1.9,2,2.8c1.4,0.1,2.2,0.6,3,1.1
	C11.6,59.8,12.3,60.2,13.6,60.2z"/>
<path class="st1" d="M15.8,64.3c1.6,0,2.3-0.4,3.1-0.9s1.8-1,3.5-1c1.8,0,2.8,0.6,3.7,1.1c0.9,0.5,1.6,0.9,3,0.9s2.1-0.4,3-0.9
	c0.9-0.5,1.9-1.1,3.8-1.1c1.8,0,2.7,0.5,3.5,1s1.5,0.9,3.2,0.9c1.5,0,2.2-0.4,3-0.8c0.9-0.5,1.9-1,3.8-1c1.8,0,2.7,0.5,3.5,1
	c0.8,0.4,1.5,0.9,3.1,0.9c1.7,0,2.4-0.4,3.2-0.9c0.1-0.1,0.2-0.1,0.3-0.2c1.2-1,2.3-2.1,3.3-3.2c-0.6-0.2-1.3-0.4-2.3-0.4
	c-1.5,0-2.1,0.4-2.9,0.9C57,60.9,56,61.5,54,61.5c-1.9,0-2.9-0.5-3.8-1c-0.8-0.4-1.5-0.8-2.9-0.8c-1.6,0-2.4,0.4-3.2,0.9
	c-0.9,0.5-1.8,1-3.6,1c-2,0-3-0.6-3.8-1.1c-0.8-0.4-1.4-0.8-2.9-0.8c-1.6,0-2.4,0.5-3.2,0.9c-0.9,0.5-1.9,1-3.6,1s-2.7-0.6-3.6-1.1
	c-0.8-0.5-1.6-0.9-3.1-0.9c-1.4,0-2.1,0.4-2.9,0.9c-0.9,0.5-1.9,1.1-3.8,1.1c-1.6,0-2.6-0.5-3.5-1.1c-0.3-0.2-0.7-0.4-1-0.5
	c1,1.1,2,2.1,3.1,3.1c0.3,0.1,0.5,0.3,0.8,0.4C13.7,63.9,14.5,64.3,15.8,64.3z"/>
<path class="st1" d="M9.2,55.4c0.8,0.5,1.5,0.9,2.8,0.9c1.6,0,2.3-0.4,3.1-0.9s1.8-1,3.5-1c1.8,0,2.8,0.6,3.7,1.1
	c0.9,0.5,1.6,0.9,3,0.9s2.1-0.4,3-0.9s1.9-1.1,3.8-1.1c1.8,0,2.7,0.5,3.5,1s1.5,0.9,3.2,0.9c1.5,0,2.2-0.4,3-0.8
	c0.9-0.5,1.9-1,3.8-1c1.8,0,2.7,0.5,3.5,1c0.8,0.4,1.5,0.9,3.1,0.9c1.7,0,2.4-0.4,3.2-0.9s1.7-1.1,3.5-1.1c2,0,3,0.6,3.9,1.1
	c0.8,0.4,1.5,0.8,2.8,0.8c1.7-2.5,3.1-5.2,4.1-8.1H2.1c0.8,2.1,1.7,4.2,2.9,6.1c0.1,0,0.2,0,0.3,0C7.2,54.2,8.3,54.8,9.2,55.4z"/>
<path class="st1" d="M31.5,46.2v-9.9h-0.7v9.9c0,0.3-0.2,0.5-0.4,0.6H32C31.7,46.8,31.5,46.5,31.5,46.2z"/>
<path class="st1" d="M19.3,46.3V32h-0.8v14.3c0,0.2-0.1,0.4-0.3,0.5h1.4C19.4,46.7,19.3,46.5,19.3,46.3z"/>
<path class="st2" d="M11.7,57.5c1.9,0,2.9-0.6,3.8-1.1c0.8-0.5,1.5-0.9,2.9-0.9s2.2,0.4,3.1,0.9s1.9,1.1,3.6,1.1s2.7-0.6,3.6-1
	c0.8-0.5,1.7-0.9,3.2-0.9s2.1,0.4,2.9,0.8c0.8,0.5,1.8,1.1,3.8,1.1c1.8,0,2.8-0.5,3.6-1c0.8-0.4,1.6-0.9,3.2-0.9
	c1.5,0,2.1,0.4,2.9,0.8c0.9,0.5,1.8,1,3.8,1c2.1,0,3-0.6,3.8-1.1c0.7-0.5,1.4-0.9,2.9-0.9c1.6,0,2.4,0.4,3.3,0.9
	c0.7,0.4,1.4,0.8,2.6,0.9c0.3-0.4,0.6-0.8,0.8-1.2c-1.3,0-2-0.4-2.8-0.8c-0.9-0.5-1.9-1.1-3.9-1.1c-1.9,0-2.7,0.6-3.5,1.1
	c-0.7,0.5-1.5,0.9-3.2,0.9c-1.6,0-2.3-0.4-3.1-0.9s-1.8-1-3.5-1c-1.9,0-2.9,0.5-3.8,1c-0.8,0.4-1.5,0.8-3,0.8
	c-1.7,0-2.4-0.4-3.2-0.9s-1.7-1-3.5-1c-1.9,0-2.9,0.6-3.8,1.1c-0.8,0.5-1.6,0.9-3,0.9s-2.1-0.4-3-0.9s-1.9-1.1-3.7-1.1
	c-1.7,0-2.7,0.5-3.5,1S13.4,56,11.9,56c-1.3,0-2-0.4-2.8-0.9C8.1,54.6,7,54,5.2,54c-0.1,0-0.2,0-0.3,0c0.2,0.4,0.5,0.8,0.8,1.3
	c1.3,0.1,2,0.5,2.8,1C9,57,10,57.5,11.7,57.5z"/>
<path class="st2" d="M18.5,64.8c0.8-0.5,1.5-1,2.9-1s2.2,0.4,3.1,1c0.9,0.5,1.9,1.2,3.7,1.2s2.7-0.6,3.7-1.1c0.8-0.5,1.7-1,3.2-1
	s2.1,0.4,2.9,0.9c0.8,0.5,1.8,1.2,3.9,1.2c1.8,0,2.8-0.5,3.7-1.1c0.8-0.4,1.6-1,3.2-1c1.5,0,2.1,0.4,2.9,0.9
	c0.9,0.5,1.8,1.1,3.9,1.1c0.2,0,0.3,0,0.5,0c1-0.8,2.1-1.6,3-2.6c-0.1,0.1-0.2,0.1-0.3,0.2c-0.8,0.5-1.5,1-3.2,1
	c-1.6,0-2.3-0.4-3.1-1c-0.8-0.5-1.8-1.1-3.6-1.1c-1.9,0-2.9,0.5-3.9,1.1c-0.8,0.4-1.5,0.9-3,0.9c-1.7,0-2.4-0.4-3.2-1
	c-0.8-0.5-1.7-1.1-3.6-1.1c-1.9,0-2.9,0.6-3.9,1.2c-0.8,0.5-1.6,1-3,1s-2.1-0.4-3-1c-0.9-0.5-1.9-1.2-3.8-1.2
	c-1.7,0-2.7,0.5-3.6,1.1c-0.8,0.5-1.6,1-3.1,1c-1.3,0-2-0.4-2.8-1c-0.2-0.1-0.5-0.3-0.8-0.4c1,1,2.1,1.9,3.2,2.8c0.1,0,0.2,0,0.3,0
	C16.6,65.9,17.6,65.4,18.5,64.8z"/>
<path class="st2" d="M63.2,46.6V18.8c0.1-0.2,0.1-0.5,0-0.7l-0.3-0.4c-0.2-0.3-0.6-0.4-0.9-0.2l-13.6,9.8l-1.8,0.4l-1-3.6
	c-0.1-0.3-0.4-0.5-0.8-0.5L43,23.5v-0.8c0.9-0.4,1.5-1.2,1.5-2.2c0-1.3-1.1-2.4-2.4-2.4s-2.4,1.1-2.4,2.4c0,1,0.6,1.8,1.4,2.2v0.8
	h-1.9c-0.7,0-1,0.6-1,1.1l-0.4,10c0,0.3,0.2,0.5,0.5,0.5H39h0.1v10.8c0,0.3,0.2,0.5,0.4,0.5h-6.1c0.3-0.1,0.5-0.3,0.5-0.6V36
	c0-0.1,0.3-0.1,0.5-0.1s1,0.1,1.1-0.4s0.9-5.9,0.4-9.6c-0.5-2.8-1.5-6.5-1.5-6.5c0-0.4-0.3-0.7-0.7-0.7l-2.1-0.5v-1
	c0.9-0.4,1.6-1.4,1.6-2.5c0-1.5-1.2-2.7-2.7-2.7s-2.7,1.2-2.7,2.7c0,1.2,0.7,2.1,1.7,2.5l-0.1,1.1l-2,0.4c-0.4,0-0.7,0.3-0.7,0.7
	c0,0-0.8,3.7-1.2,6.5c-0.7,5.3,0.2,9.7,0.2,9.7c0.1,0.5,0.5,0.5,1,0.5c0.1,0,0.4-0.1,0.4,0.1v9.9c0,0.3,0.2,0.5,0.4,0.6h-5.8
	c0.2-0.1,0.3-0.3,0.3-0.6v-14h0.1h1c0.4,0,0.7-0.3,0.7-0.7l-0.2-12.7c-0.1-0.7-0.7-1.5-1.5-1.5l-2.7-0.1V16c1.1-0.5,1.9-1.5,1.9-2.8
	c0-1.7-1.4-3-3-3c-1.7,0-3,1.4-3,3c0,1.3,0.8,2.3,1.9,2.8v1.1l-2.9,0.1c-0.8,0-1.3,0.9-1.3,1.4l-0.3,13c0,0.4,0.3,0.7,0.7,0.7h1h0.1
	v13.9c0,0.2,0.1,0.4,0.3,0.5H1.1c0.1,0.4,0.3,0.8,0.4,1.2H62v10.4c-0.5-0.1-1.2-0.2-1.9-0.2c-1.9,0-2.7,0.6-3.5,1.1
	c-0.7,0.5-1.5,0.9-3.2,0.9c-1.6,0-2.3-0.4-3.1-0.9s-1.8-1-3.5-1c-1.9,0-2.9,0.5-3.8,1c-0.8,0.4-1.5,0.8-3,0.8
	c-1.7,0-2.4-0.4-3.2-0.9s-1.7-1-3.5-1c-1.9,0-2.9,0.6-3.8,1.1c-0.8,0.5-1.6,0.9-3,0.9s-2.1-0.4-3-0.9s-1.9-1.1-3.7-1.1
	c-1.7,0-2.7,0.5-3.5,1S14.7,60,13.2,60c-1.3,0-2-0.4-2.8-0.9s-1.6-1-3-1.1c0.4,0.6,1,1.3,1.5,1.8c0.4,0.2,0.7,0.4,1,0.5
	c0.9,0.5,1.8,1.1,3.5,1.1c1.9,0,2.8-0.5,3.7-1c0.8-0.5,1.5-0.9,2.9-0.9s2.2,0.4,3.1,0.9s1.9,1.1,3.6,1.1s2.7-0.6,3.6-1
	c0.8-0.5,1.7-0.9,3.2-0.9s2.1,0.4,2.9,0.8c0.8,0.5,1.8,1.1,3.8,1.1c1.8,0,2.8-0.5,3.6-1c0.8-0.4,1.6-0.9,3.2-0.9
	c1.5,0,2.1,0.6,2.9,1c0.9,0.5,1.8,1,3.8,1c2.1,0,3-0.9,3.8-1.4c0.7-0.5,1.3-0.8,2.8-0.8c0.7,0,1.3,0.1,1.9,0.3
	c0.3-0.3,1-0.9,1.3-1.3h-0.3V47.8h6.5c0.1-0.4,0.3-0.8,0.4-1.2C70.2,46.6,63.2,46.6,63.2,46.6z M17.6,46.6c0.2-0.1,0.3-0.3,0.3-0.5
	V31.7h0.8V46c0,0.2,0.1,0.5,0.3,0.6C19,46.6,17.6,46.6,17.6,46.6z M29.7,46.6c0.2-0.1,0.4-0.3,0.4-0.6v-9.9h0.7V46
	c0,0.3,0.2,0.5,0.5,0.6H29.7z M41.3,46.6c0.2,0,0.4-0.2,0.4-0.5V34.9h0.7V46c0,0.3,0.2,0.5,0.5,0.5L41.3,46.6L41.3,46.6z M44.5,46.6
	c0.3,0,0.5-0.2,0.5-0.5V35.3c0,0,0-1.8,0-3.3l0.6-0.4c0,0,0.4,0,0.5,0s0.3,0,0.4-0.1c0.1-0.1,1.7-1.7,1.7-1.7l13.8-10v25.3l0,0v1.5
	H44.5z"/>
</svg>
