<?xml version="1.0" encoding="utf-8"?>
<!-- Generator: Adobe Illustrator 25.2.1, SVG Export Plug-In . SVG Version: 6.00 Build 0)  -->
<svg version="1.1" id="Layer_1" xmlns="http://www.w3.org/2000/svg" xmlns:xlink="http://www.w3.org/1999/xlink" x="0px" y="0px"
	 viewBox="0 0 72 72" style="enable-background:new 0 0 72 72;" xml:space="preserve">
<style type="text/css">
	.st0{fill:#E3BE3A;}
	.st1{fill:#FFFFFF;}
</style>
<g>
	<circle class="st0" cx="36" cy="36.1" r="35.9"/>
</g>
<path class="st1" d="M18.6,17.2c-0.1,0.1,0,0.2,0.1,0.2c0.2-0.1,7.5-3,7.5-3l3.8-1.7c0,0,2.4-0.7,3.3,0.6s0.8,3-0.8,5.4
	C31,21,28.6,25,27.9,26.2c-0.6,1-1,3.3-0.6,4.5c0.7,2.1,1.3,3.5,1.3,3.5s-0.1,2.4,0,3.8c0,1.2,1.4,5,2.8,6.4
	c0.4,0.4-0.2-1.8-0.2-1.8s0.9-2.6,1.2-1.4c0.2,0.8,0.2,0.8,1.2,2.3c0.9,1.4,2.5,1.7,3,2.2c0.4,0.4,1.1,0.3,1.1,1.5
	c0,0.3,0.2,7.3,0.2,7.8c0,1.1,0.3,7.7,0.3,7.7s-1.1,0.6-1.8,0.9s-3,2-3,2l0.4,0.3l2.7-1.6l1.6-0.6v3.7l0.8,0.1c0,0-0.1-3-0.1-3.7
	c0-0.3,1.3,0.9,1.3,0.9l1.6,0.9l0.6,0.2l0.1-0.3l-2-1.4L39,62.8l-0.4-6.2v-10c0,0,1.4,1.1,2.2,1.5c0.1,1.1,0.3,8.4,0.3,8.4l0.2,5.5
	l-0.4,0.9l-0.8,1l0.4,0.4l1.2-1.5l2.3,2.9l0.3-0.4l-2.1-2.6h1.5l2.5,0.6l-0.1-0.4l-2.4-0.6L42,62.1l-0.3-5.6v-8.1l2,1.5
	c0,0,0.7,0.4,2.2,1.7c1.6,1.3,2.3,3.2,2.1,3.8s0.1,1.3,1.2,0.6c1.1-0.8,1.8-4.2,1.1-6.4s0.2-2.2-1.3-3.7c0.7,0.7,0.9,1.2,1.8,4.3
	c0,0,0.8-4.6-0.6-8.6c-1.5-4.4-2.5-2.2-4-7.7c-0.8-3-2.8-4.4-4.6-6.1c-2.2-2.1-4.6-1.8-6.1-1.4c-1.2,0.3-3.5,2.8-3.8,2.4
	s-0.9-0.4-0.3-2.3c0.7-1.9,1.7-3.7,3.5-6.2c1.2-1.6,2.3-3.8,2.1-6.5c0-2.8-1.1-5.2-3.4-5.9c-1.8-0.6-4.1-0.6-5.8,1.1
	c-1.1,1.1-1.3,1.9-1.3,2.2s-1.3,1.3-2.4,2S18.7,17.1,18.6,17.2z"/>
</svg>
