<?xml version="1.0" encoding="utf-8"?>
<!-- Generator: Adobe Illustrator 25.0.0, SVG Export Plug-In . SVG Version: 6.00 Build 0)  -->
<svg version="1.1" id="Layer_1" xmlns="http://www.w3.org/2000/svg" xmlns:xlink="http://www.w3.org/1999/xlink" x="0px" y="0px"
	 viewBox="0 0 72 72" style="enable-background:new 0 0 72 72;" xml:space="preserve">
<style type="text/css">
	.st0{fill:#1C75BC;}
	.st1{fill:none;}
	.st2{fill:#FFFFFF;}
</style>
<g>
	<circle class="st0" cx="35.7" cy="36.1" r="36"/>
</g>
<g>
	<path class="st1" d="M7,51.8c0.8,0.5,1.6,0.9,3,0.9c1.4,0,2.1-0.4,3-0.9c0.9-0.5,1.9-1.1,3.8-1.1c1.8,0,2.7,0.5,3.5,1
		c0.5,0.3,1,0.6,1.7,0.7c-0.1-0.4-0.3-0.8-0.4-1.2c-0.6-1.4-0.9-3.3-1.6-5.1c-0.2-0.1-0.4-0.2-0.5-0.3c-0.7-0.4-1.4-0.8-2.9-0.8
		c-1.5,0-2.3,0.4-3.2,0.9c-0.9,0.5-1.8,1-3.6,1C8,47,7,46.5,6.1,46c-0.8-0.5-1.6-0.9-3-0.9c-1,0-1.6,0.2-2.1,0.4
		c0.5,1.8,1.1,3.6,1.9,5.2c0.2,0,0.3,0,0.5,0C5.1,50.7,6.1,51.3,7,51.8z"/>
	<path class="st1" d="M28.4,36.5c0.6,1,1.1,2,1.5,2.8c0,0,0,0,0,0c0-0.3-0.1-0.6-0.2-1c-0.7-2-1.5-4.3-2.3-6.3
		c0.2,1.3,0.4,2.5,0.7,3.5C28.2,35.8,28.3,36.2,28.4,36.5z"/>
	<path class="st1" d="M32.1,27.6c0.2-0.8,0.3-1.2,0.4-1.4c0.1-1,0.1-1.9,0.2-2.8c-0.4-0.9-0.7-1.8-1-2.4c-0.2-0.6-0.5-1.1-0.7-1.7
		c0,0.4-0.1,0.8-0.1,1.2c-0.1,0.8-0.2,2.1-0.3,3.1c0.5,1.1,0.9,2.3,1.4,3.6C32,27.4,32,27.5,32.1,27.6z"/>
	<path class="st1" d="M25.4,27.9c-2.1-3.9-4.7-8.6-5.5-9.1c-0.4-0.3-0.8-0.1-0.8,0.6c0,0.5-0.1,1.3-0.1,1.7c0,0.3,0,1.3,0,2.1
		c1.5,0.7,2.8,1.4,3.4,2c0.8,0.9,1.8,2.4,2.9,4.6C25.3,29.1,25.4,28.5,25.4,27.9z"/>
	<path class="st1" d="M16.5,57.1c1.9,0,2.9,0.6,3.8,1.1c0.8,0.5,1.5,0.9,2.8,0.9c1.5,0,2.3-0.4,3.1-0.9c0.8-0.5,1.8-1,3.5-1
		c1.8,0,2.8,0.6,3.6,1.1c0.8,0.5,1.6,0.9,3,0.9c1.4,0,2.1-0.4,3-0.9c0.9-0.5,1.9-1.1,3.8-1.1c1.8,0,2.7,0.5,3.5,1
		c0.8,0.5,1.5,0.9,3.2,0.9c1.5,0,2.2-0.4,3-0.8c0.9-0.5,1.8-1,3.7-1c1.8,0,2.7,0.5,3.5,1c0.8,0.4,1.5,0.9,3.1,0.9c0.1,0,0.2,0,0.3,0
		c0,0,0,0,0,0.1c1.9-2.3,3.5-4.7,4.8-7.4c-0.3,0.1-0.6,0.3-1,0.5c-0.9,0.5-1.8,1-3.7,1c-1.6,0-2.5-0.5-3.4-1.1c-0.9-0.5-1.7-1-3.2-1
		c-2,0-2.7,0.6-3.6,1.1c-1.2,0.6-1.7,0.8-2.4,0.9c-0.5,1.2-1.1,1.6-1.1,1.6s-7,0.9-12.4,0.7c-0.7,0-1.4,0-2.1,0
		c-6.8-0.2-11.6-0.8-11.6-0.8c-0.5-0.1-0.9-0.4-1.1-0.9c-1.4-0.1-2.2-0.6-2.9-1c-0.7-0.4-1.4-0.8-2.9-0.8c-1.5,0-2.3,0.4-3.2,0.9
		c-0.9,0.5-1.8,1-3.6,1c-1.7,0-2.7-0.6-3.6-1c-0.8-0.5-1.6-0.9-3-0.9c1.3,2.6,2.9,5.1,4.8,7.3c1.3-0.1,2.7-0.4,4-0.9
		C13.2,57.9,14.1,57.1,16.5,57.1z"/>
	<path class="st1" d="M56.8,64.2c-1.6,0-2.3,0.4-3.1,0.8c-0.8,0.5-1.8,1-3.6,1c-2,0-3-0.6-3.8-1.1c-0.7-0.4-1.4-0.8-2.9-0.8
		c-1.5,0-2.3,0.4-3.2,0.9c-0.9,0.5-1.8,1-3.6,1c-1.7,0-2.7-0.6-3.6-1c-0.8-0.5-1.6-0.9-3-0.9c-1.4,0-2.1,0.4-2.9,0.8
		c-0.9,0.5-1.8,1-3.7,1c-1.6,0-2.5-0.5-3.4-1.1c-0.9-0.5-1.7-1-3.2-1c-1.5,0-2.3,0.4-2.9,0.7c6,4.6,13.6,7.4,21.8,7.4
		c8.4,0,16.2-2.9,22.3-7.8C57.7,64.3,57.3,64.2,56.8,64.2z"/>
	<path class="st1" d="M31,32.1c0,0.1,0,0.1,0,0.2c0-0.1,0-0.2,0.1-0.3c-0.1-0.3-0.2-0.6-0.3-1C30.9,31.4,31,31.8,31,32.1z"/>
	<path class="st1" d="M20.7,63.9c0.8,0.5,1.5,0.9,2.8,0.9c1.5,0,2.3-0.4,3.1-0.9c0.8-0.5,1.8-1,3.5-1c1.8,0,2.8,0.6,3.6,1.1
		c0.8,0.5,1.6,0.9,3,0.9c1.4,0,2.1-0.4,3-0.9c0.9-0.5,1.9-1.1,3.8-1.1c1.8,0,2.7,0.5,3.5,1c0.8,0.5,1.5,0.9,3.2,0.9
		c1.5,0,2.2-0.4,3-0.8c0.9-0.5,1.8-1,3.7-1c1,0,1.7,0.2,2.3,0.4c1.1-1,2.2-2,3.2-3.1c-1.4-0.1-2.2-0.6-3-1c-0.8-0.4-1.5-0.8-2.9-0.8
		c-1.6,0-2.3,0.4-3.1,0.8c-0.8,0.5-1.8,1-3.6,1c-2,0-3-0.6-3.8-1.1c-0.7-0.4-1.4-0.8-2.9-0.8c-1.5,0-2.3,0.4-3.2,0.9
		c-0.9,0.5-1.8,1-3.6,1c-1.7,0-2.7-0.6-3.6-1c-0.8-0.5-1.6-0.9-3-0.9c-1.4,0-2.1,0.4-2.9,0.8c-0.9,0.5-1.8,1-3.7,1
		c-1.6,0-2.5-0.5-3.4-1.1c-0.9-0.5-1.7-1-3.2-1c-2,0-2.7,0.6-3.6,1.1c-1.8,0.9-2.2,0.9-3.7,1.1c1.1,1.2,2.4,2.4,3.7,3.5
		c0.9-0.5,1.9-1.2,4-1.2C18.7,62.8,19.7,63.4,20.7,63.9z"/>
	<path class="st1" d="M6.7,44.9c0.8,0.5,1.6,0.9,3,0.9c1.4,0,2.1-0.4,3-0.9c0.9-0.5,1.9-1.1,3.8-1.1c1,0,1.7,0.1,2.2,0.4
		c0-0.1-0.1-0.1-0.1-0.2c-2.2-2.4-4.4-3.7-6.4-5c-0.5-0.3,2.7,0.3,5.6,2.1c1.5,0.9,3,1.9,3.7,2.7c0.3,0.4,0.7,1.2,0.8,1.3
		c0.3,0.3,0-0.9-0.1-1.1c-1.8-2.2-4.3-4.7-7.3-6.4c-5-3.1-8.7-3.9-8.7-3.9s3.2-0.1,8.1,1.5c4.2,1.4,5.5,2.4,7.7,4.2
		c0.4,0.4,1,1,1.3,1.4c0.1,0.1,0-0.8-0.2-1.1c-1.9-4.2-4.7-8.2-6-9.3c-0.2-0.2-0.7,0.4-0.7,0.8c0,0.5-0.1,1.6-0.2,2
		c-0.1,0.6-0.1,1.2-0.1,1.2s-0.2,0.5-0.5-0.2c-0.3-0.8-0.3-1.3-0.3-1.8c0-1,0-1.8,0-2.4c1.6-0.8,2-1.2,2.7-0.7
		c0.6,0.5,2.2,1.9,3.9,4.1c-1.7-2.6-3.5-4.6-5.1-5.6c-5-3.1-9-4.1-9-4.1s3.8-0.4,8.4,1.9c2.2,1.1,4.5,2.3,6.9,4.4
		c-0.9-1.9-2-3.6-3.4-4.6c-3.1-2.3-5.6-4-5.6-4s1.9,0.6,3.9,1.5c-0.1-0.6-0.2-1.3-0.3-2.2c0-1,0-1.7,0.2-2.3
		c1.6-0.8,2.5-1.8,3.5-0.5c0.6,0.7,2.7,3.3,4.8,6.5c0.4-1.1,0.7-1.8,0.7-1.8s0,1.3,0.1,3.1c0.4,0.6,0.7,1.3,1.1,1.9
		c0.2,0.2,0.4,0.5,0.6,0.8c-0.1-1.3-0.1-2.3-0.1-3.3c-1.5-3.7-2.9-7.4-5.4-9.3c-3.1-2.3-5.6-4-5.6-4s6.9,2.3,8.4,4
		c0.8,0.9,1.9,2.6,3.2,5c0.2-1.3,0.6-2.4,1-3.3c-0.5-1.2-0.9-2-0.9-2s0.5,0.4,1.2,1.1c0.6-1.3,1.1-2,1.1-2s-0.2,1.2-0.4,2.9
		c0.6,0.7,1.3,1.6,1.9,2.7c0.5-3,1.1-5.1,1.6-6.3c0.9-2,6.8-6.3,6.8-6.3s-1.9,2.3-4.2,5.4c-1.9,2.7-2.1,6.9-2.5,11
		c0.1,0.3,0.2,0.7,0.4,1c0.5-1.6,1.1-2.8,2-4.7c0.2-0.5,0.5-0.9,0.7-1.3c0.8-2.2,1.5-3.9,1.7-4.5c0.6-1.5,1.8-0.8,3.5-0.6
		c0.3,0.5,0.6,1.2,0.8,2.1c0,0,0,0,0,0.1c0.2-0.3,0.5-0.6,0.7-0.8c1.4-1.6,8.4-4,8.4-4s-2.5,1.6-5.6,4c-1.2,0.9-2.2,2.3-3.1,4
		c-0.1,1.1-0.5,1.1-0.5,1.1s0,0,0-0.1c-1,2.2-1.9,4.6-2.9,6.9c-0.3,0.7-0.6,1.5-0.8,2.3c1.9-4.4,4.4-7,6.8-9.2
		c0.2-0.2,0.3-0.3,0.5-0.5c0.9-1.1,1.6-2,1.9-2.3c0.6-0.8,1.3-0.7,2-0.3c1.8-0.9,3-1.2,3-1.2s-0.9,0.5-2.2,1.6
		c0.2,0.1,0.4,0.2,0.7,0.3c0.1,0.6,0.2,1.3,0.2,2.3c-0.1,1.2-0.2,2-0.4,2.8c2-0.8,3.9-1.5,3.9-1.5s-2.5,1.6-5.6,4
		c-1.2,0.9-2.2,2.3-3,3.8c2.3-2,4.5-3.2,6.6-4.2c4.6-2.2,8.4-1.9,8.4-1.9s-4,1.1-9,4.1c-2.2,1.4-4.6,4.5-6.8,8.4
		c2.6-3.8,6-6.8,6.6-7.4c0.5-0.4,1.3-0.4,2.8,0.4c0.1,0.6,0,1.1,0,2c-0.1,1.3-0.1,1.2-0.3,2c-0.4,1.4-0.7-0.1-0.6-1.2
		c0-0.4,0-1.3,0-1.9c0-0.7-0.7-0.3-1.1,0c-0.9,0.5-3.5,4.8-5.6,8.9c-1.7,3.3-3.1,6.1-1.6,3.8c3.2-5,6.5-7.4,9-8.3
		c4.9-1.6,7.8-0.5,7.8-0.5s-3.1,0.2-7.6,3c-1.8,1.1-4.6,2.8-6.4,8.3c-0.4,1.2,1.3-2.3,2.3-3.3c1.3-1.3,1.6-1.4,3.2-2.4
		c1.9-1.1,4-1.2,3.3-0.8c-1.1,0.6-3,1.6-4.9,3.8c-1.1,1.4-1.7,2.4-2,3.7c0.5-0.1,1-0.3,1.4-0.5c1-0.4,1.9-1.3,4.3-1.3
		c1.9,0,2.9,0.6,3.8,1.1c0.8,0.5,1.5,0.9,2.8,0.9c1.5,0,2.3-0.4,3.1-0.9c0.8-0.5,1.7-1,3.4-1c0.6-2.6,0.9-5.3,0.9-8
		c0-19.9-16.1-36-36-36c-19.9,0-36,16.1-36,36c0,2.8,0.3,5.5,0.9,8.1C1.3,44,2,43.8,3.1,43.8C4.8,43.8,5.9,44.4,6.7,44.9z"/>
	<path class="st1" d="M64.3,47.3c-1.6,0-2.5-0.5-3.4-1.1c-0.9-0.5-1.7-1-3.2-1c-2,0-2.7,0.6-3.6,1.1c-1.2,0.6-1.7,0.8-2.4,0.9
		c-0.1,0.4-0.1,0.8-0.1,1.2c-0.1,1.4-0.1,2.1-0.3,3.2c0.4-0.1,0.9-0.3,1.3-0.4c1-0.4,1.9-1.3,4.3-1.3c1.9,0,2.9,0.6,3.8,1.1
		c0.8,0.5,1.5,0.9,2.8,0.9c1.5,0,2.3-0.4,3.1-0.9c0.6-0.3,1.3-0.7,2.2-0.9c0.7-1.6,1.2-3.2,1.7-4.8c-1.1,0.1-1.8,0.4-2.5,0.8
		C67.1,46.7,66.1,47.3,64.3,47.3z"/>
	<path class="st1" d="M42.5,35.7c0.1-0.2,0.2-0.3,0.3-0.5c2-5.1,4-8.4,5.3-9.8c0.6-0.6,2-1.4,3.5-2.1c0-0.9,0-2.2,0-2.6
		c0-0.4-0.1-1.1-0.1-1.7c0-0.4-0.2-0.6-0.4-0.7c-0.4,0.4-0.9,0.8-1.4,1.3c-1.5,2.2-4,6.9-5.7,10.2c-1.3,2.4-2.6,6.2-3.5,9
		c0,0.1,0,0.2,0.1,0.3C41.2,38.1,41.7,37,42.5,35.7z"/>
	<path class="st1" d="M38.8,26.9c1.5-4.2,3.1-7.4,4.4-9.4C43.1,17.2,43,17,43,16.9c-0.1-0.3-0.4-1.1-0.6-1.6
		c-0.2-0.6-0.5-0.7-0.9-0.4c0,0-0.2,0.5-0.6,1.3c-0.7,2.4-1.7,7.5-2.4,11.1c0,0,0,0.1,0,0.1C38.6,27.3,38.7,27.1,38.8,26.9z"/>
	<path class="st2" d="M16.5,58.3c1.5,0,2.3,0.5,3.2,1c0.9,0.5,1.8,1.1,3.4,1.1c1.9,0,2.9-0.6,3.7-1c0.8-0.5,1.5-0.8,2.9-0.8
		c1.4,0,2.2,0.4,3,0.9c0.9,0.5,1.9,1,3.6,1c1.7,0,2.7-0.5,3.6-1c0.8-0.5,1.6-0.9,3.2-0.9c1.5,0,2.1,0.4,2.9,0.8
		c0.8,0.5,1.8,1.1,3.8,1.1c1.8,0,2.8-0.5,3.6-1c0.8-0.4,1.6-0.8,3.1-0.8c1.4,0,2.1,0.4,2.9,0.8c0.7,0.4,1.5,0.9,3,1
		c0.3-0.4,0.7-0.8,1-1.2c0,0,0,0,0-0.1c-0.1,0-0.2,0-0.3,0c-1.6,0-2.3-0.4-3.1-0.9c-0.8-0.5-1.7-1-3.5-1c-1.9,0-2.9,0.5-3.7,1
		c-0.8,0.4-1.5,0.8-3,0.8c-1.7,0-2.4-0.4-3.2-0.9c-0.8-0.5-1.7-1-3.5-1c-1.9,0-2.9,0.6-3.8,1.1c-0.8,0.5-1.6,0.9-3,0.9
		c-1.4,0-2.1-0.4-3-0.9c-0.9-0.5-1.9-1.1-3.6-1.1c-1.7,0-2.7,0.5-3.5,1c-0.8,0.5-1.6,0.9-3.1,0.9c-1.3,0-2-0.4-2.8-0.9
		c-0.9-0.5-1.9-1.1-3.8-1.1c-2.4,0-3.3,0.9-4.3,1.3c-1.3,0.5-2.7,0.8-4,0.9c0.3,0.4,0.7,0.8,1,1.2c1.5-0.2,1.9-0.1,3.7-1.1
		C13.8,58.9,14.5,58.3,16.5,58.3z"/>
	<path class="st2" d="M20,65c0.9,0.5,1.8,1.1,3.4,1.1c1.9,0,2.9-0.6,3.7-1c0.8-0.5,1.5-0.8,2.9-0.8c1.4,0,2.2,0.4,3,0.9
		c0.9,0.5,1.9,1,3.6,1c1.7,0,2.7-0.5,3.6-1c0.8-0.5,1.6-0.9,3.2-0.9c1.5,0,2.1,0.4,2.9,0.8c0.8,0.5,1.8,1.1,3.8,1.1
		c1.8,0,2.8-0.5,3.6-1c0.8-0.4,1.6-0.8,3.1-0.8c0.5,0,0.9,0,1.2,0.1c0.4-0.3,0.8-0.6,1.1-0.9c-0.6-0.2-1.3-0.4-2.3-0.4
		c-1.9,0-2.9,0.5-3.7,1c-0.8,0.4-1.5,0.8-3,0.8c-1.7,0-2.4-0.4-3.2-0.9c-0.8-0.5-1.7-1-3.5-1c-1.9,0-2.9,0.6-3.8,1.1
		c-0.8,0.5-1.6,0.9-3,0.9c-1.4,0-2.1-0.4-3-0.9c-0.9-0.5-1.9-1.1-3.6-1.1c-1.7,0-2.7,0.5-3.5,1c-0.8,0.5-1.6,0.9-3.1,0.9
		c-1.3,0-2-0.4-2.8-0.9c-0.9-0.5-1.9-1.1-3.8-1.1c-2.1,0-3.1,0.7-4,1.2c0.3,0.3,0.7,0.5,1,0.8c0.7-0.4,1.4-0.7,2.9-0.7
		C18.4,64,19.2,64.5,20,65z"/>
	<path class="st2" d="M9.9,53.9c1.7,0,2.7-0.5,3.6-1c0.8-0.5,1.6-0.9,3.2-0.9c1.5,0,2.1,0.4,2.9,0.8c0.7,0.4,1.5,0.9,2.9,1
		c0.3,0.5,0.6,0.8,1.1,0.9c0,0,4.8,0.6,11.6,0.8c0.6,0,1.3,0,2.1,0c5.4,0.2,12.3-0.6,12.3-0.6s0.7-0.5,1.2-1.7
		c0.6-0.1,1.2-0.3,2.4-0.9c0.9-0.5,1.6-1.1,3.6-1.1c1.5,0,2.3,0.5,3.2,1c0.9,0.5,1.8,1.1,3.4,1.1c1.9,0,2.9-0.6,3.7-1
		c0.3-0.2,0.6-0.3,1-0.5c0.2-0.5,0.5-1,0.7-1.5c-1,0.2-1.6,0.6-2.2,0.9C65.7,51.6,65,52,63.4,52c-1.3,0-2-0.4-2.8-0.9
		c-0.9-0.5-1.9-1.1-3.8-1.1c-2.4,0-3.3,0.9-4.3,1.3c-0.4,0.2-0.8,0.3-1.3,0.4c0.2-1.1,0.1-1.8,0.3-3.2c0-0.4,0.1-0.9,0.1-1.2
		c0.7-0.1,1.2-0.3,2.4-0.9c0.9-0.5,1.6-1.1,3.6-1.1c1.5,0,2.3,0.5,3.2,1c0.9,0.5,1.8,1.1,3.4,1.1c1.9,0,2.9-0.6,3.7-1
		c0.7-0.4,1.3-0.8,2.5-0.8c0.1-0.4,0.2-0.8,0.3-1.2c-1.6,0-2.6,0.5-3.4,1c-0.8,0.5-1.6,0.9-3.1,0.9c-1.3,0-2-0.4-2.8-0.9
		c-0.9-0.5-1.9-1.1-3.8-1.1c-2.4,0-3.3,0.9-4.3,1.3c-0.5,0.2-0.9,0.4-1.4,0.5c0.3-1.3,0.9-2.3,2-3.7c1.8-2.2,3.8-3.2,4.9-3.8
		c0.7-0.4-1.4-0.3-3.3,0.8c-1.6,1-1.9,1-3.2,2.4c-1,1-2.7,4.5-2.3,3.3c1.9-5.4,4.6-7.1,6.4-8.3c4.5-2.8,7.6-3,7.6-3
		s-2.9-1.1-7.8,0.5c-2.6,0.9-5.9,3.2-9,8.3c-1.4,2.3-0.1-0.5,1.6-3.8c2.2-4.1,4.7-8.4,5.6-8.9c0.4-0.3,1.1-0.6,1.1,0
		c0,0.5,0.1,1.5,0,1.9c-0.1,1.1,0.2,2.6,0.6,1.2c0.2-0.8,0.3-0.7,0.3-2c0-1,0.1-1.5,0-2c-1.6-0.8-2.3-0.8-2.8-0.4
		c-0.6,0.6-4,3.6-6.6,7.4c2.2-3.9,4.6-7.1,6.8-8.4c5-3.1,9-4.1,9-4.1s-3.8-0.4-8.4,1.9c-2.1,1-4.4,2.2-6.6,4.2
		c0.8-1.6,1.8-2.9,3-3.8c3.1-2.3,5.6-4,5.6-4s-1.9,0.6-3.9,1.5c0.2-0.8,0.4-1.5,0.4-2.8c0-1,0-1.7-0.2-2.3c-0.2-0.1-0.4-0.2-0.7-0.3
		c1.3-1.1,2.2-1.6,2.2-1.6s-1.3,0.3-3,1.2c-0.8-0.4-1.4-0.5-2,0.3c-0.3,0.4-1,1.2-1.9,2.3c-0.2,0.1-0.3,0.3-0.5,0.5
		c-2.4,2.3-4.8,4.8-6.8,9.2c0.3-0.9,0.6-1.7,0.8-2.3c1-2.2,1.9-4.7,2.9-6.9c0,0,0,0.1,0,0.1s0.4,0,0.5-1.1c0.9-1.6,1.8-3,3.1-4
		c3.1-2.3,5.6-4,5.6-4s-6.9,2.3-8.4,4c-0.2,0.2-0.4,0.5-0.7,0.8c0,0,0,0,0-0.1c-0.2-1-0.5-1.7-0.8-2.1c-1.7-0.3-2.9-0.9-3.5,0.6
		c-0.2,0.6-0.9,2.3-1.7,4.5c-0.2,0.4-0.5,0.8-0.7,1.3c-0.9,1.8-1.5,3.1-2,4.7c-0.1-0.4-0.2-0.7-0.4-1c0.3-4.1,0.6-8.4,2.5-11
		c2.2-3.1,4.2-5.4,4.2-5.4s-5.9,4.3-6.8,6.3c-0.5,1.2-1.2,3.3-1.6,6.3c-0.6-1.1-1.3-2-1.9-2.7c0.2-1.7,0.4-2.9,0.4-2.9
		s-0.5,0.7-1.1,2c-0.7-0.8-1.2-1.1-1.2-1.1s0.4,0.8,0.9,2c-0.4,0.9-0.7,2.1-1,3.3c-1.2-2.4-2.4-4.1-3.2-5c-1.4-1.6-8.4-4-8.4-4
		s2.5,1.6,5.6,4c2.5,1.9,3.9,5.7,5.4,9.3c0,1,0,2,0.1,3.3c-0.2-0.3-0.4-0.5-0.6-0.8c-0.4-0.7-0.7-1.3-1.1-1.9
		c-0.1-1.8-0.1-3.1-0.1-3.1s-0.4,0.7-0.7,1.8c-2.1-3.2-4.2-5.8-4.8-6.5c-1-1.3-2-0.3-3.5,0.5c-0.1,0.6-0.2,1.3-0.2,2.3
		c0,0.9,0.1,1.6,0.3,2.2c-2-0.8-3.9-1.5-3.9-1.5s2.5,1.6,5.6,4c1.4,1.1,2.5,2.7,3.4,4.6c-2.3-2.1-4.6-3.4-6.9-4.4
		c-4.6-2.2-8.4-1.9-8.4-1.9s4,1.1,9,4.1c1.7,1,3.4,3,5.1,5.6c-1.7-2.1-3.3-3.6-3.9-4.1c-0.6-0.5-1.1-0.1-2.7,0.7
		c-0.1,0.6-0.1,1.4,0,2.4c0,0.5,0,1,0.3,1.8c0.3,0.7,0.5,0.2,0.5,0.2s0.1-0.6,0.1-1.2c0.1-0.4,0.1-1.5,0.2-2c0-0.4,0.5-1,0.7-0.8
		c1.3,1.1,4.1,5.1,6,9.3c0.2,0.3,0.2,1.2,0.2,1.1c-0.3-0.4-0.9-1.1-1.3-1.4c-2.1-1.8-3.5-2.8-7.7-4.2c-4.9-1.6-8.1-1.5-8.1-1.5
		s3.7,0.8,8.7,3.9c2.9,1.8,5.4,4.3,7.3,6.4c0.2,0.2,0.4,1.4,0.1,1.1c-0.1-0.1-0.5-0.9-0.8-1.3c-0.7-0.8-2.1-1.7-3.7-2.7
		c-2.9-1.7-6.1-2.4-5.6-2.1c2,1.3,4.1,2.6,6.4,5c0,0.1,0.1,0.1,0.1,0.2c-0.6-0.2-1.3-0.4-2.2-0.4c-1.9,0-2.9,0.6-3.8,1.1
		c-0.8,0.5-1.6,0.9-3,0.9c-1.4,0-2.1-0.4-3-0.9c-0.9-0.5-1.9-1.1-3.6-1.1c-1,0-1.8,0.2-2.4,0.5c0.1,0.4,0.2,0.8,0.3,1.2
		c0.6-0.3,1.2-0.4,2.1-0.4c1.4,0,2.2,0.4,3,0.9C7,46.5,8,47,9.7,47c1.7,0,2.7-0.5,3.6-1c0.8-0.5,1.6-0.9,3.2-0.9
		c1.5,0,2.1,0.4,2.9,0.8c0.2,0.1,0.4,0.2,0.5,0.3c0.7,1.7,1.1,3.7,1.6,5.1c0.2,0.4,0.3,0.8,0.4,1.2c-0.8-0.2-1.2-0.4-1.7-0.7
		c-0.8-0.5-1.7-1-3.5-1c-1.9,0-2.9,0.6-3.8,1.1c-0.8,0.5-1.6,0.9-3,0.9c-1.4,0-2.1-0.4-3-0.9c-0.9-0.5-1.9-1.1-3.6-1.1
		c-0.2,0-0.3,0-0.5,0C3,51.2,3.2,51.6,3.4,52c1.4,0,2.2,0.4,3,0.9C7.2,53.4,8.2,53.9,9.9,53.9z M44.2,29.8c1.7-3.2,4.2-8,5.7-10.2
		c0.5-0.5,1-0.9,1.4-1.3c0.2,0,0.4,0.2,0.4,0.7c0,0.5,0.1,1.3,0.1,1.7c0,0.4,0,1.7,0,2.6c-1.5,0.7-3,1.4-3.5,2.1
		c-1.3,1.4-3.3,4.7-5.3,9.8c-0.1,0.2-0.2,0.3-0.3,0.5c-0.8,1.2-1.4,2.4-1.8,3.4c0-0.1,0-0.2-0.1-0.3C41.6,36,42.9,32.2,44.2,29.8z
		 M40.9,16.3c0.4-0.8,0.6-1.3,0.6-1.3c0.3-0.3,0.7-0.2,0.9,0.4c0.2,0.5,0.4,1.2,0.6,1.6c0,0.1,0.1,0.3,0.2,0.6
		c-1.3,2.1-2.9,5.2-4.4,9.4c-0.1,0.2-0.1,0.4-0.2,0.6c0,0,0-0.1,0-0.1C39.2,23.8,40.2,18.7,40.9,16.3z M31.1,32.3c0-0.1,0-0.1,0-0.2
		c-0.1-0.4-0.1-0.7-0.2-1.1c0.1,0.3,0.2,0.6,0.3,1C31.1,32.1,31.1,32.2,31.1,32.3z M30.9,20.6c0-0.4,0.1-0.8,0.1-1.2
		c0.2,0.5,0.5,1.1,0.7,1.7c0.3,0.6,0.7,1.5,1,2.4c-0.1,0.9-0.2,1.8-0.2,2.8c-0.1,0.2-0.2,0.7-0.4,1.4c0-0.1-0.1-0.2-0.1-0.3
		c-0.5-1.3-1-2.5-1.4-3.6C30.6,22.6,30.8,21.4,30.9,20.6z M29.8,38.3c0.1,0.3,0.1,0.7,0.2,1c0,0,0,0,0,0c-0.4-0.8-0.9-1.8-1.5-2.8
		c-0.1-0.3-0.2-0.7-0.3-1c-0.3-0.9-0.5-2.2-0.7-3.5C28.3,34,29.1,36.3,29.8,38.3z M22.4,25.2c-0.6-0.6-1.9-1.3-3.4-2
		c0-0.8,0-1.8,0-2.1c0-0.4,0.1-1.1,0.1-1.7c0-0.7,0.4-0.8,0.8-0.6c0.7,0.4,3.4,5.1,5.5,9.1c-0.1,0.6-0.1,1.2-0.1,1.8
		C24.2,27.6,23.2,26.1,22.4,25.2z"/>
</g>
</svg>
