<?xml version="1.0" encoding="utf-8"?>
<!-- Generator: Adobe Illustrator 25.2.1, SVG Export Plug-In . SVG Version: 6.00 Build 0)  -->
<svg version="1.1" id="Layer_5" xmlns="http://www.w3.org/2000/svg" xmlns:xlink="http://www.w3.org/1999/xlink" x="0px" y="0px"
	 viewBox="0 0 72 72" style="enable-background:new 0 0 72 72;" xml:space="preserve">
<style type="text/css">
	.st0{fill:#E3BE3A;}
	.st1{fill:none;}
	.st2{fill:#FFFFFF;}
</style>
<g>
	<circle class="st0" cx="36" cy="36" r="36"/>
</g>
<g>
	<path class="st1" d="M61.8,53.4c-2,0-3-0.6-3.8-1.1c-0.8-0.4-1.4-0.8-2.9-0.8c-1.6,0-2.4,0.5-3.2,0.9c-0.9,0.5-1.9,1-3.6,1
		c-1.7,0-2.7-0.6-3.6-1.1c-0.8-0.5-1.6-0.9-3.1-0.9c-1.4,0-2.1,0.4-2.9,0.9c-0.9,0.5-1.9,1.1-3.8,1.1c-1.6,0-2.6-0.5-3.5-1.1
		c-0.9-0.5-1.7-1-3.2-1c-1.3,0-2,0.2-2.6,0.5c0.7,0.5,1.3,1,2,1.5c0.4,0.3,0.8,0.6,1.2,0.9c0.5-0.1,1-0.1,1.6-0.1
		c1.9,0,2.9,0.6,3.8,1.1c0.8,0.5,1.5,0.9,2.8,0.9c1.6,0,2.3-0.4,3.1-0.9s1.8-1,3.5-1c1.8,0,2.8,0.6,3.7,1.1s1.6,0.9,3,0.9
		s2.1-0.4,3-0.9s1.9-1.1,3.8-1.1c1.8,0,2.7,0.5,3.5,1s1.5,0.9,3.2,0.9c0.9,0,1.5-0.1,2-0.3c0.9-1.4,1.7-2.8,2.4-4.3
		c-1.5,0-2.2,0.4-3,0.9C64.6,52.9,63.6,53.4,61.8,53.4z"/>
	<path class="st1" d="M63.9,48.5c-0.9,0.5-1.8,1-3.6,1c-2,0-3-0.6-3.8-1.1c-0.8-0.4-1.4-0.8-2.9-0.8c-1.6,0-2.4,0.5-3.2,0.9
		c-0.9,0.5-1.9,1-3.6,1c-1.7,0-2.7-0.6-3.6-1.1c-0.8-0.5-1.6-0.9-3.1-0.9c-1.4,0-2.1,0.4-2.9,0.9c-0.9,0.5-1.9,1.1-3.8,1.1
		c-1.6,0-2.6-0.5-3.5-1.1c-0.9-0.5-1.7-1-3.2-1c-2,0-2.8,0.5-3.6,1.1c-0.6,0.4-1.2,0.8-2.1,1c0.3,0.1,0.6,0.2,1,0.3
		c0.8,0.2,1.6,0.7,2.5,1.2c0.8-0.5,1.8-1,3.8-1c1.9,0,2.9,0.6,3.8,1.1c0.8,0.5,1.5,0.9,2.8,0.9c1.6,0,2.3-0.4,3.1-0.9s1.8-1,3.5-1
		c1.8,0,2.8,0.6,3.7,1.1s1.6,0.9,3,0.9s2.1-0.4,3-0.9s1.9-1.1,3.8-1.1c1.8,0,2.7,0.5,3.5,1S60,52,61.7,52c1.5,0,2.2-0.4,3-0.8
		c0.9-0.5,1.9-1,3.8-1c0.1,0,0.3,0,0.4,0c0.3-0.7,0.6-1.3,0.8-2c-0.7-0.4-1.4-0.7-2.8-0.7C65.4,47.6,64.7,48,63.9,48.5z"/>
	<path class="st1" d="M48.3,38.8c0,0,0-0.2-0.3-0.2c-0.1,0-0.4,0.1-0.7,0.2c-0.2,0.1-0.4,0-0.5-0.1s-0.2-0.4-0.1-0.5
		c0.2-0.4,0.3-0.9,0.2-1.1c-0.3-0.5-0.9-0.2-1-0.1c-0.2,0.1-0.4,0.1-0.6-0.1c-0.2-0.2-0.2-0.4-0.1-0.6c0,0,0-0.1,0-0.2
		c0-0.1-0.2-0.2-0.4-0.3c-0.3-0.1-0.5-0.1-0.6,0S44.1,36,44.1,36c-0.1,0.2-0.3,0.4-0.6,0.4c-0.2,0-0.4-0.2-0.4-0.5
		c0-0.1,0-0.7-0.5-0.7c-0.3,0-0.5,0-0.7,0.2S41.7,36,41.7,36c0,0.3-0.2,0.5-0.4,0.5c-0.3,0-0.5-0.1-0.5-0.4c0-0.1-0.2-0.7-0.8-0.6
		c-0.2,0-0.5,0.5-0.6,0.9c-0.1,0.2-0.2,0.3-0.4,0.3s-0.4-0.1-0.5-0.2c-0.2-0.3-0.7-0.8-1-0.9h-0.1c-0.5,0.4-0.3,1.1-0.3,1.2
		c0.1,0.2,0,0.5-0.3,0.6c-0.2,0.1-0.5,0-0.6-0.2c-0.1-0.1-0.3-0.5-0.7-0.5c-0.2,0-0.4,0-0.6,0.1c-0.3,0.2-0.2,0.4-0.2,0.6
		c0.1,0.2,0,0.5-0.2,0.6s-0.5,0.1-0.6-0.1c-0.3-0.3-0.8-0.7-1.1-0.6c0,0-0.1,0-0.2,0.1c-0.4,0.7,0.1,1.3,0.2,1.3
		c0.1,0.2,0.2,0.4,0.1,0.6s-0.3,0.3-0.5,0.2c0,0-0.6-0.1-0.9,0.3c-0.2,0.3,0.2,0.8,0.3,1c0.1,0.1,0.2,0.3,0.1,0.5
		c0,0.2-0.2,0.3-0.3,0.3c-0.2,0.1-0.9,0.2-1.1,0.3s-0.6,0.7-0.5,0.9c0.2,0.4,0.5,0.7,0.7,0.6c0.6-0.3,1.1-0.1,1.4,0.1
		c0.2-0.1,0.3-0.2,0.5-0.4c1.5-1.2,3.7-1.9,6.4-1.9c0.8,0,1.5,0,2.2,0.1c2,0.1,3.7,0.2,6-0.8c0.3-0.1,0.5-0.2,0.8-0.3
		C48.4,39.2,48.4,38.9,48.3,38.8z"/>
	<path class="st1" d="M60.1,56.4c-0.8-0.4-1.4-0.8-2.9-0.8c-1.6,0-2.4,0.5-3.2,0.9c-0.9,0.5-1.9,1-3.6,1c-1.7,0-2.7-0.6-3.6-1.1
		c-0.8-0.5-1.6-0.9-3.1-0.9c-1.4,0-2.1,0.4-2.9,0.9c-0.9,0.5-1.9,1.1-3.8,1.1c-1.6,0-2.6-0.5-3.5-1.1c-0.9-0.5-1.7-1-3.2-1h-0.1
		c1.8,1.3,3.8,2.5,5.8,3.2c6,1.9,10.7,2.5,15.2,3c1.3,0.1,2.6,0.3,3.9,0.5c1.5,0.2,3.1,0.5,4.6,0.9c1.9-1.7,3.6-3.5,5.1-5.5
		c-0.3,0-0.6,0.1-1,0.1C61.9,57.5,61,56.9,60.1,56.4z"/>
	<path class="st1" d="M14.9,37.5c0.4,0.3,0.8,0.2,0.5-0.2c-0.4-0.5-0.5-0.6-0.9-0.9c-0.3-0.3-0.5-0.1-0.5,0.1
		C14.1,37.1,14.7,37.3,14.9,37.5z"/>
	<path class="st1" d="M55.1,63.3c-1.3-0.2-2.6-0.3-3.9-0.5c-4.6-0.5-9.4-1-15.5-3c-2.7-0.9-5.1-2.5-7.3-4.1
		c-0.2-0.2-0.6-0.5-1.2-0.9c-0.1-0.1-0.3-0.2-0.4-0.3c-0.9-0.7-2.5-1.9-3.6-2.6c-0.6-0.4-1.2-0.6-1.7-0.8c-1.9-0.6-2.3-1-2.8-1.3
		s-0.6-0.5-0.5-0.3c0.2,0.2,0.1,0.5-0.1,0.5c-0.1,0-0.4,0-0.6,0c-1,0-1.7,0-2,0s-0.2-0.6-0.1-0.6S16,49,16,49v-1.5
		c-0.4-0.3-0.8-0.5-1.3-0.8c-0.4-0.3-0.9-0.7-1.3-1.2c-0.5-0.5-1.1-1.2-1.6-1.3c-0.6-0.2-1.3-0.3-1.9-0.4c0,0.5,0,1.1,0,1.2
		c0,0.3,0,1.1,0,1.4c0,0.2,0,0.4,0.3,0.5c0.2,0.1,0.3,0.5,0.1,0.4c-0.2,0-0.6-0.1-1.2-0.1c-0.5,0-0.7,0-1.2,0.1
		c-0.3,0-0.4-0.2-0.1-0.3c0.3-0.2,0.4-0.3,0.4-0.3s0-2,0-3.2c-0.8-0.1-1.5-0.1-2.2-0.1s-1.4-0.1-2-0.1c-1.5-0.1-2.5-0.8-3.3-1.3
		C3.3,59,18.2,72,36,72c8.6,0,16.5-3,22.7-8C57.5,63.7,56.2,63.4,55.1,63.3z"/>
	<path class="st1" d="M14.3,44.6c0.4,0.4,0.8,0.8,1.1,1c0.2,0.1,0.5,0.3,0.7,0.4c0-1.3,0-4,0-5.4c0-2-1.3-2.6-1.5-2.8
		c-0.3-0.3-0.7-0.4-0.9-0.8c-0.2-0.4-0.3-0.5-0.3-0.5s-1,1-1.4,1.8c-0.4,0.7-1.9,1.4-1.9,1.4s-0.1,1.2-0.2,2.7
		c0.8,0.1,1.5,0.3,2.3,0.5C13,43.2,13.7,43.9,14.3,44.6z"/>
	<path class="st1" d="M10.9,38.4c0.3-0.2,0.6-0.7,0.7-0.9c0.1-0.6-0.2-0.4-0.4-0.1c-0.2,0.3-0.8,0.4-0.9,0.6
		c-0.1,0.5-0.1,0.7-0.1,0.7S10.7,38.5,10.9,38.4z"/>
	<path class="st1" d="M4,42c0.6,0.1,1.2,0.1,1.9,0.1s1.4,0.1,2.2,0.1c0-0.2,0-0.4,0-0.6c0-0.5,0.1-2.4-0.1-2.4
		c-1.1,0.2-1.1-0.6-1.5-0.7c-0.6-0.1-0.5-0.4-0.9-0.6c-0.8-0.4-1.7-0.7-1.7-1.3c0-1.1,0.7-1,0.7-1.9c0-1.1-1.7-1.6-1.7-2.1
		c0-1.3,0.4-1.9,0.9-1.9c1.1,0-0.1-1.7,1.3-1.7c1.3,0,1.9-0.1,2-0.1c0.6,0-0.5-0.6,0.2-1.1c0.3-0.2,1.9-0.9,3.3-0.1
		c1.2,0.7-0.5,1.3,0.4,1.5c0.3,0.1,0.5-0.5,1.3-0.2c0.2,0.1,0.3,0.5,0.4,0.7c0.2,0.4,0.1,0.7-0.1,1.3c-0.1,0.4,0.2,0.8,0.4,1
		c0.1,0.1,0.3,0.2,0.4,0.1c0.1-0.1,0-0.4,0-0.4c-0.3-0.5-0.3-1.4-0.1-1.6c0.3-0.4,0.5-0.4,0.7-0.9c0.2-0.6-0.6,0.1-1.1-0.8
		c-0.2-0.3-0.1-1-0.5-1.1s-1.2-0.4-1.5-0.6c-0.6-0.4-1.3-2-1.3-2.4C9.8,23,10,21.9,10.4,22c0.6,0.1,0.4-0.3,0.7-0.9
		c0.1-0.2,0.5-0.8,0.9-0.9c0.9-0.1,0.8,0.2,1.3,0.4c0.5,0.2,0.9,0.2,0.6-0.6c-0.3-0.8,0-1.6,0.4-1.6s0.7,0.5,0.9-0.2
		c0.1-0.3-0.7-0.3-0.9-0.6s0.2-1,0.4-1.2s1-0.1,1-0.3c0-0.6-0.1-1.1,0.6-1.6c1-0.8,2.2,1.8,2.9,1c0.7-0.8,0-1,0.7-1.3
		c0.5-0.3,0.7-0.7,1-0.6c0.7,0.2,1-0.2,1.6,0.2c0.6,0.5,0.1,0.8,0.5,1c0.4,0.1,0.4-0.5,1-0.2c0.3,0.2,0.1,0.5,0.3,0.5
		c0.4,0.1,1,0.1,0.9,1.3c-0.2,1.5,0.4,1.3-0.1,1.8s-1,0.4-0.8,0.8s-0.6,0.6,0,1c0.5,0.3,0.4-0.4,0.7-0.2c0.5,0.2,0.4-0.3,1.2,0
		c0.8,0.3,1.3,0.3,1,1.6c-0.1,0.5,0.5,0.1,0.8,0.6c0.1,0.3-0.1,0.9-0.1,1.3s0.3,0.8-0.2,1.3c-0.2,0.3-2.2,0.3-2.1,0.6
		c0.1,0.2-0.1,0.3,0.6,0.3s0.9,0.5,1,0.5c0.6,0.4,0.7,0.8,0.4,1.4c0,0.1,0.1,0.3,0,0.7c-0.1,0.4-0.4,0.1-0.4,0.4
		c0,0.5,0.3,0.4,0.4,0.8c0.1,0.5-0.2,0.8-0.7,1.2c-0.1,0.1,0,0.5-0.4,0.9c-0.2,0.2-0.7,0.1-0.8,0.4c-0.1,0.4-0.9,0.3-1,0.5
		c-0.3,1.1,0.4,0.5-0.7,2.1c-0.2,0.2-0.9-0.3-0.9,0.1c0,0.6,0,1.3-1.2,1.2c-0.3,0,0.3,0.7,0.1,1.1c-0.2,0.5-0.6,0.5-1.2,1.2
		s-0.9-0.2-1.2-0.1c-0.8,0.3-0.8,0.5-0.9,0.9c-0.1,0.3-0.4,0.9-0.4,1.6c-0.2,1.7-0.2,4-0.2,4.7s0,1.7,0.1,2.3
		c0.2,0.1,0.5,0.5,0.6,0.6c0.4,0.2,0.6,0.3,0.7,0.3c0-0.3-0.2-0.5-0.2-0.7c0-0.1,0.1-0.6,0.3-0.8c0.3-0.3,0.6-0.2,0.6-0.2
		s0.3-0.2,0.4-0.5s-0.2-0.5-0.3-0.7c0-0.3,0-0.5,0-1.1s0.9-0.4,0.8-1.1c-0.1-0.4-0.1-0.4-0.2-0.6s-0.2-1.2,0.2-1.3
		c0.5-0.2,0.5,0,0.4-0.6c-0.1-0.5-0.1-0.3,0.2-0.9c0.1-0.2-0.1-0.4,0.2-0.7c0.4-0.3,0.5-0.1,0.9-0.6s1-0.7,1-0.7s0.8-0.3,1.6,0.2
		s0.4,0.7,0.4,1.3c0,0.3,0.3,0.1,0.7,0.2c0.3,0.1,0.4,0.7,0.5,1c0,0.5-0.2,1.1-0.2,1.1s0.3-0.3,0.7-0.1c0.3,0.2,0.4,0.7,0.3,1.3
		c0,0.2,0.1,0.6,0,0.9c-0.1,0.2-0.5,0.6-0.3,0.6c0.4,0.2,0.7,0.7,0.6,1.4c0,0,0.2,0.1,0.5,0.2c0.6-0.3,1.4-0.8,2.2-1.3h-0.1
		c-0.5,0-1.1-0.4-1.5-1.1c-0.2-0.3-0.2-0.7,0-1.1c0.2-0.5,0.6-1.1,1-1.2c0.1-0.1,0.4-0.1,0.6-0.2c-0.2-0.5-0.3-1.1,0-1.6
		c0.3-0.4,0.6-0.6,1-0.7c-0.2-0.5-0.2-1.1,0.2-1.7c0.3-0.4,0.6-0.6,0.9-0.6c0.4-0.1,0.8,0.1,1.1,0.3c0.1-0.2,0.3-0.5,0.6-0.6
		c0.4-0.3,0.9-0.4,1.4-0.2c0.1,0,0.2,0.1,0.4,0.1c0.1-0.3,0.3-0.7,0.6-0.9s0.6-0.3,0.9-0.3c0.4,0.1,0.9,0.4,1.2,0.7
		c0.2-0.4,0.6-0.7,1.1-0.8c0.6-0.1,1,0.1,1.3,0.4c0.1-0.1,0.1-0.1,0.2-0.2c0.2-0.2,0.7-0.5,1.5-0.4c0.6,0,0.9,0.3,1.1,0.7
		c0.4-0.2,0.8-0.2,1.3-0.1c0.5,0.2,0.9,0.4,1.1,0.8c0,0.1,0,0.1,0.1,0.2c0.5-0.1,1.2,0.1,1.6,0.7c0.2,0.3,0.2,0.7,0.1,1
		c0.2,0,0.3,0,0.5,0.1c0.6,0.2,0.8,0.6,0.9,0.9c0.1,0.3,0.1,0.6,0,1c0.1,0,0.2-0.1,0.3-0.1c0.1-0.1,0.3-0.1,0.4-0.2
		c-0.1-0.2,0-0.7,0-1c0-0.5,0-0.8,0-1.1s-0.4-0.5-0.5-0.7c-0.3-0.6-0.6-0.4-0.5-1.1c0-0.3,0-0.9,0.1-1.2c0.4-1,0.6-0.1,0.7-0.7
		c0-0.2-0.2-0.9-0.1-1.7s0.3-1.2,1-1.8s1,0.3,1,0.3s0.7,0.2,0.7-0.2c0-0.2,0-0.6,0.1-0.8c0.3-0.5,0.7-0.8,1.4-0.8
		c0.8,0,0.9,0.6,1.5,0.5s1.4,0.4,1.5,1s0.4,0.5,0.6,0.8c0.2,0.3,0.2,1.4,0.2,1.7c0,0.6,0.3-0.3,0.3-0.6c0-0.4-0.1-0.9,0.2-1
		c0.1,0,0.3-0.4,0.3-0.7c0-0.3,0.6-0.8,0.8-0.6c0,0.1,0-0.6,0.2-0.6s0.4,0.1,0.4,0c0.1-0.3,0.4-0.4,0.5-0.3s0.2,0,0.2,0
		c0.1-0.2,0.3-0.3,1-0.2c0.3,0,1,0.4,1,1.1c0,0.5,0.5,0.5,0.5,0.9c0,0.6,0.4,0.3,0.6,0.9c0.1,0.2,0.2,0.7,0.1,1.4
		c0,0.3,0.2,0.6,0.4,0.7c0.2,0,0.2,0.2,0.2,0.5c0,0.4,0,0.7,0.2,0.6c0.2,0,0.3,0.3,0.3,0.9c0,0.6,0.1,1.2,0.1,1.6
		c0.9-0.1,1.9-0.4,2.9-0.6c1.3-0.4,2.7-0.7,4.3-0.9C71.5,15.7,55.6,0.1,36,0.1C16.1,0.1,0,16.2,0,36c0,1.4,0.1,2.9,0.3,4.3
		c0.3,0.2,0.6,0.4,0.9,0.6C2,41.4,2.7,41.9,4,42z M34.1,25.8l-0.7-0.7l3.1-3.1l0.7,0.7L34.1,25.8z M41,29.2h-1V24h1V29.2z
		 M47.1,25.8L44,22.7l0.7-0.7l3.1,3.1L47.1,25.8z M51,19.2h-5.3v-1H51V19.2z M47.1,11.5l0.7,0.7l-3.2,3.2l-0.7-0.7L47.1,11.5z
		 M40,8.2h1v5.2h-1V8.2z M40.4,14.6c2.2,0,3.9,1.7,3.9,3.9s-1.7,3.9-3.9,3.9s-3.9-1.7-3.9-3.9C36.5,16.4,38.2,14.6,40.4,14.6z
		 M34.1,11.4l3.2,3.2l-0.7,0.7l-3.2-3.2L34.1,11.4z M29.9,18.2h5.2v1h-5.2C29.9,19.2,29.9,18.2,29.9,18.2z"/>
	<path class="st1" d="M20.3,22.7c0.6,0.4,0.8-0.2,0.8-0.5c0-0.2-0.7-0.5-0.7-0.5C20.3,22.3,19.7,22.3,20.3,22.7z"/>
	<path class="st1" d="M22.5,25.5c0.3,0.1,0.5,0.4,0.6,0s0.3-0.4,0.2-0.5c-0.1-0.1-0.5,0-0.5,0C22.6,25.3,22.1,25.4,22.5,25.5z"/>
	<path class="st1" d="M18,37.7c0,0,0.6-0.3,0.8-0.6c0.4-0.5,0.4-0.6,0.2-0.7c-0.1-0.1-0.2-0.1-0.5,0.1c-0.5,0.3-0.7,0.1-0.7,0.1
		s-0.1,0.3-0.1,0.6C17.8,37.6,17.8,37.8,18,37.7z"/>
	<path class="st1" d="M15,26.7c0.4,0.5,0.3,0.8,0.5,0.8s-0.2-1.4-0.2-1.8c-0.1-0.5-0.6-0.7-0.9-0.8c-0.6-0.3,0.2,0.4,0.3,0.7
		C15,25.9,14.9,26.5,15,26.7z"/>
	<path class="st1" d="M15.2,35.9c0,0.1,0.1,0.5,0.3,0.9c0.1,0.2,0.8,1.6,0.7,0.9c0-0.3,0-1.1,0-1.3c0-0.4,0-0.5,0-1.2
		c0-0.6-0.3-0.4-0.6,0.3C15.6,35.8,15.2,35.3,15.2,35.9z"/>
	<path class="st1" d="M64.4,38c-2,0.1-3.4,0.1-4.6,0c-1.3,0-2.3,0-3.6,0.1c-1.5,0.2-3.9,1.3-6.1,2.3c-0.9,0.4-1.8,0.8-2.6,1.2
		c-2.6,1.1-4.5,1-6.5,0.9c-0.7,0-1.4-0.1-2.1-0.1c-2.4,0-4.3,0.6-5.6,1.6c-1.3,1.1-2.9,2-4,2.6c0.5,0.2,0.9,0.4,1.2,0.6
		c0.8,0.5,1.5,0.9,2.8,0.9c1.6,0,2.3-0.4,3.1-0.9s1.8-1,3.5-1c1.8,0,2.8,0.6,3.7,1.1s1.6,0.9,3,0.9s2.1-0.4,3-0.9s1.9-1.1,3.8-1.1
		c1.8,0,2.7,0.5,3.5,1s1.5,0.9,3.2,0.9c1.5,0,2.2-0.4,3-0.8c0.9-0.5,1.9-1,3.8-1c1.5,0,2.4,0.4,3.2,0.8c1.1-3.4,1.7-7,1.8-10.7
		c-1.4,0.1-2.7,0.5-4,0.8C66.7,37.6,65.5,38,64.4,38z"/>
	<path class="st2" d="M5.9,43.4c0.7,0,1.4,0,2.2,0.1c0,1.2,0,3.2,0,3.2S8,46.8,7.7,47c-0.2,0.1-0.2,0.3,0.1,0.3
		c0.5,0,0.8-0.1,1.2-0.1c0.6,0,1,0.1,1.2,0.1s0.1-0.3-0.1-0.4c-0.2-0.1-0.3-0.3-0.3-0.5c0-0.3,0-1.2,0-1.4c0-0.1,0-0.7,0-1.2
		c0.7,0.1,1.3,0.2,1.9,0.4c0.5,0.2,1.1,0.8,1.6,1.3c0.4,0.5,0.9,0.9,1.3,1.2c0.5,0.3,0.9,0.6,1.3,0.8V49c0,0-0.3,0.4-0.4,0.5
		S15.3,50,15.6,50s1,0,2,0c0.2,0,0.5,0,0.6,0c0.2,0,0.2-0.3,0.1-0.5s0,0,0.5,0.3s0.8,0.7,2.8,1.3c0.5,0.2,1.1,0.4,1.7,0.8
		c1.1,0.7,2.7,1.9,3.6,2.6c0.1,0.1,0.3,0.2,0.4,0.3c0.6,0.4,0.9,0.7,1.2,0.9c2.2,1.6,4.6,3.3,7.3,4.1c6.1,2,10.9,2.5,15.5,3
		c1.3,0.1,2.6,0.3,3.9,0.5c1.2,0.2,2.4,0.4,3.6,0.7c0.4-0.3,0.8-0.7,1.2-1c-1.5-0.4-3.1-0.7-4.6-0.9c-1.3-0.2-2.6-0.3-3.9-0.5
		c-4.6-0.5-9.3-1-15.2-3c-2.1-0.7-4-1.9-5.8-3.2h0.1c1.5,0,2.4,0.5,3.2,1c0.9,0.5,1.8,1.1,3.5,1.1c1.9,0,2.9-0.6,3.8-1.1
		c0.8-0.5,1.5-0.9,2.9-0.9s2.2,0.4,3.1,0.9c0.9,0.5,1.9,1.1,3.6,1.1c1.7,0,2.7-0.6,3.6-1c0.8-0.5,1.7-0.9,3.2-0.9s2.1,0.4,2.9,0.8
		c0.8,0.5,1.8,1.1,3.8,1.1c0.3,0,0.7,0,1-0.1c0.4-0.5,0.7-1,1.1-1.5c-0.5,0.2-1.1,0.3-2,0.3c-1.7,0-2.4-0.4-3.2-0.9s-1.7-1-3.5-1
		c-1.9,0-2.9,0.6-3.8,1.1c-0.8,0.5-1.6,0.9-3,0.9s-2.1-0.4-3-0.9s-1.9-1.1-3.7-1.1c-1.7,0-2.7,0.5-3.5,1s-1.6,0.9-3.1,0.9
		c-1.3,0-2-0.4-2.8-0.9c-0.9-0.5-2-1.1-3.8-1.1c-0.6,0-1.2,0.1-1.6,0.1c-0.4-0.3-0.8-0.6-1.2-0.9c-0.7-0.5-1.4-1.1-2-1.5
		c0.6-0.3,1.4-0.5,2.6-0.5c1.5,0,2.4,0.5,3.2,1c0.9,0.5,1.8,1.1,3.5,1.1c1.9,0,2.9-0.6,3.8-1.1c0.8-0.5,1.5-0.9,2.9-0.9
		s2.2,0.4,3.1,0.9c0.9,0.5,1.9,1.1,3.6,1.1c1.7,0,2.7-0.6,3.6-1c0.8-0.5,1.7-0.9,3.2-0.9s2.1,0.4,2.9,0.8c0.8,0.5,1.8,1.1,3.8,1.1
		c1.8,0,2.8-0.5,3.6-1c0.8-0.4,1.5-0.8,3-0.9c0.2-0.4,0.4-0.8,0.6-1.2c-0.1,0-0.3,0-0.4,0c-1.9,0-2.9,0.5-3.8,1
		c-0.8,0.4-1.5,0.8-3,0.8c-1.7,0-2.4-0.4-3.2-0.9s-1.7-1-3.5-1c-1.9,0-2.9,0.6-3.8,1.1c-0.8,0.5-1.6,0.9-3,0.9s-2.1-0.4-3-0.9
		s-1.9-1.1-3.7-1.1c-1.7,0-2.7,0.5-3.5,1s-1.6,0.9-3.1,0.9c-1.3,0-2-0.4-2.8-0.9c-0.9-0.5-2-1.1-3.8-1.1c-1.9,0-3,0.5-3.8,1
		c-0.9-0.6-1.7-1-2.5-1.2c-0.4-0.1-0.7-0.2-1-0.3c0.9-0.2,1.5-0.6,2.1-1c0.8-0.6,1.6-1.1,3.6-1.1c1.5,0,2.4,0.5,3.2,1
		c0.9,0.5,1.8,1.1,3.5,1.1c1.9,0,2.9-0.6,3.8-1.1c0.8-0.5,1.5-0.9,2.9-0.9s2.2,0.4,3.1,0.9c0.9,0.5,1.9,1.1,3.6,1.1
		c1.7,0,2.7-0.6,3.6-1c0.8-0.5,1.7-0.9,3.2-0.9s2.1,0.4,2.9,0.8c0.8,0.5,1.8,1.1,3.8,1.1c1.8,0,2.8-0.5,3.6-1
		c0.8-0.4,1.6-0.9,3.2-0.9c1.4,0,2,0.3,2.8,0.7c0.1-0.4,0.3-0.8,0.4-1.2c-0.7-0.4-1.6-0.8-3.2-0.8c-1.9,0-2.9,0.5-3.8,1
		c-0.8,0.4-1.5,0.8-3,0.8c-1.7,0-2.4-0.4-3.2-0.9s-1.7-1-3.5-1c-1.9,0-2.9,0.6-3.8,1.1c-0.8,0.5-1.6,0.9-3,0.9s-2.1-0.4-3-0.9
		s-1.9-1.1-3.7-1.1c-1.7,0-2.7,0.5-3.5,1s-1.6,0.9-3.1,0.9c-1.3,0-2-0.4-2.8-0.9c-0.4-0.2-0.8-0.4-1.2-0.6c-0.7,0.4-1.3,0.7-1.3,0.7
		l-0.5-1.1c0,0,0.4-0.2,1-0.5c-0.2-0.1-0.5-0.2-0.5-0.2c0.1-0.7-0.2-1.2-0.6-1.4c-0.1-0.1,0.3-0.4,0.3-0.6c0.1-0.4-0.1-0.7,0-0.9
		c0.1-0.5,0-1.1-0.3-1.3c-0.4-0.2-0.7,0.1-0.7,0.1s0.3-0.6,0.2-1.1c0-0.3-0.2-0.9-0.5-1c-0.4-0.1-0.7,0.2-0.7-0.2
		c0-0.5,0.4-0.7-0.4-1.3s-1.6-0.2-1.6-0.2s-0.6,0.2-1,0.7s-0.5,0.3-0.9,0.6s-0.1,0.5-0.2,0.7c-0.3,0.6-0.3,0.3-0.2,0.9
		c0.1,0.5,0.1,0.4-0.4,0.6c-0.5,0.2-0.3,1.1-0.2,1.3s0.1,0.2,0.2,0.6c0.2,0.7-0.8,0.5-0.8,1.1s-0.1,0.9,0,1.1c0,0.3,0.4,0.4,0.3,0.7
		s-0.4,0.5-0.4,0.5s-0.3,0-0.6,0.2C20.1,47,20,47.5,20,47.6c0,0.2,0.2,0.4,0.2,0.7c-0.1,0-0.3,0-0.7-0.3c-0.2-0.1-0.5-0.4-0.6-0.6
		c0-0.6-0.1-1.6-0.1-2.3s0-3,0.2-4.7c0.1-0.8,0.3-1.3,0.4-1.6c0.2-0.4,0.1-0.6,0.9-0.9c0.3-0.1,0.6,0.7,1.2,0.1
		c0.6-0.7,1-0.7,1.2-1.2c0.2-0.4-0.4-1.2-0.1-1.1c1.2,0.1,1.2-0.5,1.2-1.2c0-0.4,0.7,0.1,0.9-0.1c1.1-1.6,0.4-1.1,0.7-2.1
		c0.1-0.2,0.9-0.2,1-0.5s0.5-0.2,0.8-0.4c0.5-0.4,0.3-0.8,0.4-0.9c0.5-0.4,0.8-0.7,0.7-1.2c-0.1-0.4-0.4-0.3-0.4-0.8
		c0-0.3,0.3,0,0.4-0.4s-0.1-0.6,0-0.7c0.2-0.6,0.2-1-0.4-1.4c-0.1-0.1-0.3-0.5-1-0.5s-0.5-0.1-0.6-0.3c-0.1-0.3,1.9-0.4,2.1-0.6
		c0.5-0.5,0.2-0.9,0.2-1.3s0.2-1,0.1-1.3c-0.3-0.5-0.9-0.1-0.8-0.6c0.3-1.3-0.2-1.3-1-1.6c-0.8-0.3-0.6,0.3-1.2,0
		c-0.3-0.1-0.2,0.5-0.7,0.2c-0.6-0.3,0.2-0.6,0-1s0.3-0.3,0.8-0.8s0-0.3,0.1-1.8c0.1-1.2-0.5-1.2-0.9-1.3c-0.2-0.1,0-0.3-0.3-0.5
		c-0.6-0.4-0.7,0.3-1,0.2c-0.4-0.2,0.1-0.5-0.5-1s-0.9-0.1-1.6-0.2c-0.3-0.1-0.5,0.4-1,0.6c-0.7,0.3-0.1,0.6-0.7,1.3
		c-0.7,0.8-1.8-1.8-2.9-1c-0.6,0.5-0.6,0.9-0.6,1.6c0,0.2-0.8,0.1-1,0.3c-0.2,0.2-0.5,1-0.4,1.2s0.9,0.2,0.9,0.6
		c-0.1,0.6-0.4,0.2-0.9,0.2c-0.4,0-0.7,0.8-0.4,1.6c0.3,0.8-0.1,0.8-0.6,0.6c-0.5-0.2-0.4-0.5-1.3-0.4c-0.3,0-0.8,0.7-0.9,0.9
		c-0.3,0.6-0.1,1-0.7,0.9c-0.4-0.1-1.4,1-1.3,2.3c0.1,1.5,0.8,1.9,1.4,2.2c0.3,0.2,0.9,0.2,1.3,0.3c0.4,0.1,0.1,0.8,0.3,1.2
		c0.3,0.6,0.7,0.1,1,0.7c0.2,0.5-0.1,0.6-0.2,1.5c0,0.6,0.4,0.9,0.6,1.5c0,0.1,0.1,0.4,0,0.4c-0.1,0.1-0.3,0.1-0.4-0.1
		c-0.2-0.3-0.5-0.7-0.4-1c0.2-0.6,0.3-0.9,0.1-1.3c-0.1-0.2-0.2-0.6-0.4-0.7c-0.7-0.3-0.9,0.3-1.3,0.2c-1-0.2,0.7-0.9-0.4-1.5
		c-1.4-0.8-2.9-0.2-3.3,0.1c-0.8,0.5,0.4,1.1-0.2,1.1c-0.2,0-0.8,0.1-2,0.1c-1.4,0-0.2,1.7-1.3,1.7c-0.5,0-0.9,0.6-0.9,1.9
		c0,0.6,1.7,1.1,1.7,2.1s-0.7,0.9-0.7,1.9c0,0.6,0.9,0.9,1.7,1.3c0.4,0.2,0.4,0.5,0.9,0.6c0.4,0.1,0.4,0.9,1.5,0.7
		c0.2,0,0.1,1.8,0.1,2.4c0,0.1,0,0.3,0,0.6c-0.8-0.1-1.5-0.1-2.2-0.1S5.3,42,4.8,42c-1.2-0.1-2-0.6-2.8-1.1
		c-0.3-0.2-0.6-0.4-0.9-0.6c0.1,0.5,0.1,1.1,0.2,1.6c0.8,0.6,1.8,1.2,3.3,1.3C4.5,43.3,5.1,43.3,5.9,43.4z M22.8,25.1
		c0,0,0.4-0.1,0.5,0s-0.1,0.1-0.2,0.5s-0.3,0.2-0.6,0C22.1,25.4,22.6,25.3,22.8,25.1z M20.4,21.7c0,0,0.7,0.2,0.7,0.5
		c0,0.2-0.2,0.8-0.8,0.5S20.3,22.3,20.4,21.7z M17.8,36.6c0,0,0.3,0.2,0.7-0.1c0.3-0.2,0.4-0.2,0.5-0.1c0.2,0.2,0.1,0.3-0.2,0.7
		c-0.2,0.3-0.8,0.6-0.8,0.6c-0.2,0.1-0.2-0.1-0.3-0.5C17.8,36.9,17.8,36.6,17.8,36.6z M15.7,35.5c0.2-0.7,0.5-0.9,0.6-0.3
		c0,0.6,0,0.8,0,1.2c0,0.2,0,1,0,1.3c0,0.7-0.6-0.7-0.7-0.9c-0.2-0.4-0.3-0.8-0.3-0.9C15.2,35.3,15.6,35.8,15.7,35.5z M14.5,24.8
		c0.3,0.2,0.8,0.4,0.9,0.8c0,0.4,0.4,1.8,0.2,1.8s-0.1-0.3-0.5-0.8c-0.1-0.1-0.1-0.8-0.2-1.1C14.7,25.2,13.9,24.6,14.5,24.8z
		 M14.5,36.5c0.3,0.3,0.4,0.4,0.9,0.9c0.4,0.4,0,0.5-0.5,0.2c-0.2-0.2-0.8-0.4-0.9-1C14,36.3,14.2,36.1,14.5,36.5z M10.3,38
		c0.1-0.2,0.7-0.3,0.9-0.6s0.5-0.4,0.4,0.1c-0.1,0.2-0.4,0.8-0.7,0.9c-0.2,0.1-0.7,0.3-0.7,0.3S10.2,38.4,10.3,38z M10.1,39.8
		c0,0,1.5-0.7,1.9-1.4c0.4-0.8,1.4-1.8,1.4-1.8s0.2,0.1,0.3,0.5c0.2,0.4,0.6,0.5,0.9,0.8c0.2,0.2,1.5,0.8,1.5,2.8c0,1.4,0,4.1,0,5.4
		c-0.2-0.1-0.4-0.3-0.7-0.4c-0.3-0.2-0.7-0.6-1.1-1C13.6,44,13,43.3,12.2,43c-0.7-0.2-1.5-0.4-2.3-0.5C9.9,40.9,10.1,39.8,10.1,39.8
		z"/>
	<path class="st2" d="M30.6,43.4c-0.2,0.1-0.5-0.2-0.7-0.6c-0.1-0.1,0.3-0.8,0.5-0.9c0.3-0.1,0.9-0.3,1.1-0.3s0.3-0.2,0.3-0.3
		c0-0.2,0-0.3-0.1-0.5c-0.1-0.1-0.5-0.7-0.3-1c0.3-0.4,0.9-0.3,0.9-0.3c0.2,0,0.4-0.1,0.5-0.2s0.1-0.4-0.1-0.6
		c-0.1-0.1-0.6-0.7-0.2-1.3c0.1-0.1,0.1-0.1,0.2-0.1c0.3,0,0.8,0.3,1.1,0.6c0.2,0.2,0.4,0.2,0.6,0.1c0.2-0.1,0.3-0.4,0.2-0.6
		c-0.1-0.1-0.1-0.4,0.2-0.6c0.2-0.1,0.4-0.2,0.6-0.1c0.3,0.1,0.6,0.4,0.7,0.5c0.1,0.2,0.4,0.3,0.6,0.2c0.2-0.1,0.4-0.4,0.3-0.6
		c0,0-0.2-0.7,0.3-1.2h0.1c0.3,0,0.7,0.5,1,0.9c0.1,0.2,0.3,0.2,0.5,0.2s0.3-0.2,0.4-0.3c0.1-0.3,0.4-0.8,0.6-0.9
		c0.5-0.1,0.7,0.5,0.8,0.6c0.1,0.2,0.3,0.4,0.5,0.4c0.3,0,0.4-0.2,0.4-0.5c0,0,0-0.4,0.2-0.6c0.1-0.1,0.4-0.2,0.7-0.2
		c0.4,0,0.5,0.6,0.5,0.7c0,0.2,0.2,0.5,0.4,0.5c0.3,0,0.5-0.1,0.6-0.4c0,0,0-0.1,0.1-0.2c0.1-0.1,0.3-0.1,0.6,0
		c0.2,0.1,0.4,0.2,0.4,0.3s0,0.2,0,0.2c-0.1,0.2-0.1,0.4,0.1,0.6c0.2,0.2,0.4,0.2,0.6,0.1c0.1,0,0.7-0.4,1,0.1
		c0.1,0.1-0.1,0.7-0.2,1.1c-0.1,0.2,0,0.4,0.1,0.5s0.4,0.2,0.5,0.1c0.2-0.1,0.6-0.2,0.7-0.2c0.2,0.1,0.3,0.2,0.3,0.2
		c0,0.1,0.1,0.5-0.5,1.4c0.5-0.2,0.9-0.4,1.4-0.6c0.1-0.4,0.1-0.7,0-1s-0.3-0.7-0.9-0.9c-0.2-0.1-0.3-0.1-0.5-0.1
		c0.1-0.4,0.1-0.8-0.1-1c-0.4-0.7-1-0.8-1.6-0.7c0-0.1,0-0.1-0.1-0.2c-0.2-0.4-0.5-0.7-1.1-0.8c-0.5-0.1-0.9-0.1-1.3,0.1
		c-0.2-0.4-0.6-0.7-1.1-0.7c-0.8-0.1-1.2,0.2-1.5,0.4c-0.1,0.1-0.1,0.1-0.2,0.2c-0.3-0.3-0.7-0.4-1.3-0.4c-0.5,0.1-0.8,0.4-1.1,0.8
		c-0.3-0.3-0.7-0.6-1.2-0.7c-0.3,0-0.6,0.1-0.9,0.3c-0.3,0.3-0.5,0.6-0.6,0.9c-0.1-0.1-0.2-0.1-0.4-0.1c-0.4-0.1-0.9,0-1.4,0.2
		c-0.3,0.2-0.5,0.4-0.6,0.6c-0.3-0.2-0.7-0.3-1.1-0.3c-0.3,0-0.6,0.2-0.9,0.6c-0.4,0.6-0.3,1.2-0.2,1.7c-0.4,0.1-0.7,0.3-1,0.7
		c-0.4,0.5-0.3,1.1,0,1.6c-0.2,0.1-0.4,0.1-0.6,0.2c-0.4,0.2-0.8,0.7-1,1.2c-0.1,0.4-0.1,0.8,0,1.1c0.4,0.7,0.9,1.1,1.5,1.1H30
		c0.4-0.3,0.9-0.6,1.3-0.9C31.7,43.3,31.2,43.1,30.6,43.4z"/>
	<path class="st2" d="M65.6,36.6c0-0.2,0.2-0.6,0.2-0.9c0-0.3-0.3-0.6-0.3-0.9c0-0.6-0.4-0.4-0.6-0.4s-0.1-0.3-0.1-0.7
		c0-0.1,0-0.4-0.2-0.5c-0.1-0.1-0.3,0.1-0.3,0c0-0.2,0.1-0.5,0-0.8c0-0.4-0.2-0.6-0.3-0.8c-0.1-0.3-0.3-0.1-0.4-0.2
		c-0.1-0.4-0.1-0.6-0.1-0.8c-0.2-0.4-0.4-0.2-0.4-0.4c0-0.4-0.4-0.2-0.3-0.7c0-0.4-0.6-0.8-0.8-1c-0.2-0.1-0.4-0.2-0.6-0.3
		c-0.7-0.1-0.9,0-1,0.2c0,0.1-0.2,0-0.2-0.1c-0.1-0.1-0.5-0.1-0.6,0.3c0,0.1-0.1,0.1-0.3,0.1c-0.3,0-0.3,0.7-0.5,0.7
		c-0.3-0.1-0.5,0.3-0.5,0.6c0,0.2-0.2,0.6-0.3,0.7c-0.3,0.2-0.2,0.7-0.2,1c0,0.4-0.3,1.2-0.3,0.6c0-0.3,0-1.4-0.2-1.7
		c-0.2-0.3-0.5-0.2-0.6-0.8c-0.1-0.7-0.9-1.2-1.5-1c-0.6,0.1-0.6-0.5-1.5-0.5c-0.8,0-1.2,0.3-1.4,0.8c-0.1,0.2-0.1,0.6-0.1,0.8
		c0.1,0.3-0.7,0.2-0.7,0.2s-0.3-0.9-1-0.3s-0.9,1-1,1.8s0.1,1.5,0.1,1.7c0,0.6-0.2-0.3-0.6,0.7c-0.1,0.3-0.1,0.9-0.1,1.2
		c0,0.7,0.3,0.5,0.5,1.1c0.1,0.2,0.5,0.4,0.5,0.7s-0.1,0.7,0,1.1c0,0.4-0.1,0.8,0,1c-0.1,0.1-0.3,0.1-0.4,0.2
		c-0.1,0-0.2,0.1-0.3,0.1c-0.5,0.2-1,0.4-1.4,0.6c-0.3,0.1-0.5,0.2-0.8,0.3c-2.3,1-4,0.9-6,0.8c-0.7,0-1.4-0.1-2.2-0.1
		c-2.7,0-4.9,0.7-6.4,1.9c-0.2,0.1-0.3,0.2-0.5,0.4c-0.4,0.3-0.9,0.6-1.3,0.9c-0.8,0.5-1.6,1-2.2,1.3s-1,0.5-1,0.5l0.5,1.1
		c0.1,0,0.6-0.3,1.3-0.7c1.1-0.6,2.7-1.5,4-2.6c1.3-1,3.2-1.6,5.6-1.6c0.8,0,1.5,0,2.1,0.1c2,0.1,4,0.2,6.5-0.9
		c0.8-0.3,1.7-0.7,2.6-1.2c2.1-1,4.6-2.1,6.1-2.3c1.3-0.1,2.3-0.1,3.6-0.1c1.2,0,2.6,0.1,4.6,0c1.1-0.1,2.4-0.4,3.6-0.7
		c1.3-0.3,2.6-0.7,4-0.8c0-0.1,0-0.3,0-0.4c0-0.3,0-0.6,0-0.8c-1.5,0.1-3,0.5-4.3,0.9C66.6,36.4,66.5,36.5,65.6,36.6z"/>
	<path class="st2" d="M40.4,22.4c2.2,0,3.9-1.7,3.9-3.9s-1.7-3.9-3.9-3.9s-3.9,1.7-3.9,3.9S38.2,22.4,40.4,22.4z"/>
	<rect x="40" y="24" class="st2" width="1" height="5.3"/>
	<rect x="40" y="8.2" class="st2" width="1" height="5.2"/>
	<rect x="45.7" y="18.2" class="st2" width="5.3" height="1"/>
	<rect x="29.9" y="18.2" class="st2" width="5.2" height="1"/>
	<rect x="43.6" y="12.9" transform="matrix(0.7071 -0.7071 0.7071 0.7071 3.953 36.3585)" class="st2" width="4.5" height="1"/>
	<rect x="33.1" y="23.4" transform="matrix(0.7071 -0.7071 0.7071 0.7071 -6.5446 31.9812)" class="st2" width="4.4" height="1"/>
	<rect x="34.9" y="11.1" transform="matrix(0.7071 -0.7072 0.7072 0.7071 0.9444 28.9405)" class="st2" width="1" height="4.5"/>
	<rect x="45.3" y="21.7" transform="matrix(0.7071 -0.7071 0.7071 0.7071 -3.5061 39.405)" class="st2" width="1" height="4.4"/>
</g>
</svg>
