<?xml version="1.0" encoding="utf-8"?>
<!-- Generator: Adobe Illustrator 25.0.0, SVG Export Plug-In . SVG Version: 6.00 Build 0)  -->
<svg version="1.1" xmlns="http://www.w3.org/2000/svg" xmlns:xlink="http://www.w3.org/1999/xlink" x="0px" y="0px"
	 viewBox="0 0 72 72" style="enable-background:new 0 0 72 72;" xml:space="preserve">
<style type="text/css">
	.st0{fill:#1C75BC;}
	.st1{fill:#FFFFFF;}
</style>
<g id="Layer_1">
</g>
<g id="Layer_8">
	<g>
		<circle class="st0" cx="36" cy="36" r="36"/>
	</g>
	<path class="st1" d="M58,22.1v3.4c-1.2,1.1-4.1,2.3-5.7,1.7c-0.5-0.2-0.8-0.6-0.8-1.3c0-0.2-0.1-0.4-0.3-0.5
		c-0.2-0.1-0.4,0-0.6,0.1c-1.1,1-4.4,2.4-5.9,1.8c-0.3-0.1-0.8-0.4-0.8-1.4c0-0.2-0.1-0.4-0.3-0.5c-0.2-0.1-0.4,0-0.6,0.1
		c-1.2,1.2-4.7,2.3-6.3,1.7c-0.5-0.2-0.7-0.5-0.7-1c0-0.2-0.1-0.4-0.3-0.5c-0.2-0.1-0.4,0-0.6,0.2c-1.1,1.3-4.2,1.7-5.9,1.1
		c-0.4-0.1-0.9-0.4-0.9-0.9c0-0.2-0.1-0.4-0.3-0.5c-0.2-0.1-0.4,0-0.6,0.1c-1.9,1.7-4.5,1.9-6,1.3c-0.6-0.2-0.9-0.6-0.9-0.9
		c0-0.2-0.1-0.4-0.3-0.5c-0.2-0.1-0.4,0-0.5,0.1c-1.2,1-3.9,2.2-5.4,1.8c-0.2-0.1-0.4-0.2-0.5-0.3v-0.1v-5.7l-7.3,0l-0.1,30h59.5
		V22.1H58z M13.8,42.8V28.5c0.1,0,0.1,0.1,0.2,0.1c1.7,0.5,4.2-0.5,5.8-1.6c0.3,0.4,0.7,0.7,1.3,1c1.7,0.7,4.4,0.6,6.5-1
		c0.2,0.4,0.6,0.7,1.4,1c1.8,0.6,4.7,0.3,6.4-0.8c0.2,0.4,0.6,0.8,1.1,1c1.7,0.7,4.9-0.1,6.7-1.3c0.3,0.8,0.8,1.2,1.2,1.4
		c1.7,0.8,4.7-0.3,6.3-1.4c0.3,0.8,0.8,1.2,1.3,1.4c1.7,0.7,4.4-0.2,6-1.3v15.9H13.8z"/>
	<path class="st1" d="M67.3,27.1 M13.6,33.9c0.1,0,0.1,0.1,0.2,0.1c1.7,0.5,4.4-0.5,5.9-1.7c0.3,0.4,0.7,0.8,1.3,1
		c1.8,0.7,4.5,0.6,6.7-1c0.2,0.4,0.7,0.8,1.4,1c1.8,0.7,4.8,0.3,6.5-0.8c0.2,0.5,0.6,0.8,1.2,1.1c1.8,0.8,5-0.1,6.8-1.4
		c0.3,0.8,0.8,1.2,1.3,1.4c1.8,0.8,4.8-0.4,6.5-1.5c0.3,0.8,0.9,1.2,1.4,1.4c1.7,0.7,4.5-0.3,6.2-1.4v-1.4c-1.2,1.2-4.3,2.4-5.8,1.8
		c-0.6-0.2-0.8-0.7-0.9-1.4c0-0.2-0.1-0.4-0.3-0.5c-0.2-0.1-0.4,0-0.6,0.1c-1.1,1.1-4.5,2.6-6.1,1.9c-0.3-0.1-0.8-0.5-0.8-1.5
		c0-0.2-0.1-0.4-0.3-0.5c-0.2-0.1-0.4,0-0.6,0.1c-1.2,1.3-4.8,2.5-6.4,1.8c-0.5-0.2-0.7-0.5-0.7-1.1c0-0.2-0.1-0.4-0.3-0.5
		c-0.2-0.1-0.5,0-0.6,0.2c-1.1,1.3-4.4,1.8-6.1,1.2c-0.4-0.2-0.9-0.4-1-0.9c0-0.2-0.1-0.4-0.3-0.5c-0.2-0.1-0.4,0-0.6,0.1
		c-1.9,1.8-4.6,2-6.2,1.3c-0.6-0.2-0.9-0.6-0.9-0.9c0-0.2-0.1-0.4-0.3-0.5c-0.2-0.1-0.4,0-0.6,0.1c-1.2,1.1-4,2.4-5.5,1.9
		c-0.2-0.1-0.4-0.2-0.5-0.3v-0.1V33.9"/>
	<path class="st1" d="M66.9,32.2 M13.5,38.9c0.1,0,0.1,0.1,0.2,0.1c1.7,0.5,4.3-0.5,5.9-1.7c0.3,0.4,0.7,0.8,1.3,1
		c1.8,0.7,4.5,0.6,6.7-1c0.2,0.4,0.6,0.8,1.4,1c1.8,0.7,4.8,0.3,6.5-0.8c0.2,0.5,0.6,0.8,1.2,1.1c1.8,0.8,5-0.1,6.8-1.4
		c0.3,0.8,0.8,1.2,1.3,1.4c1.8,0.8,4.8-0.4,6.5-1.5c0.3,0.8,0.9,1.2,1.4,1.4c1.7,0.7,4.5-0.3,6.2-1.4v-1.4c-1.2,1.2-4.2,2.4-5.8,1.8
		c-0.6-0.2-0.8-0.7-0.9-1.4c0-0.2-0.1-0.4-0.3-0.5c-0.2-0.1-0.4,0-0.6,0.1c-1.1,1.1-4.5,2.6-6.1,1.9c-0.3-0.1-0.8-0.5-0.8-1.5
		c0-0.2-0.1-0.4-0.3-0.5c-0.2-0.1-0.4,0-0.6,0.1c-1.2,1.3-4.8,2.5-6.4,1.8c-0.5-0.2-0.7-0.5-0.7-1.1c0-0.2-0.1-0.4-0.3-0.5
		c-0.2-0.1-0.4,0-0.6,0.2c-1.1,1.3-4.3,1.8-6.1,1.2c-0.4-0.2-0.9-0.4-1-0.9c0-0.2-0.1-0.4-0.3-0.5c-0.2-0.1-0.4,0-0.6,0.1
		c-1.9,1.8-4.6,2-6.2,1.3c-0.6-0.2-0.9-0.6-0.9-0.9c0-0.2-0.1-0.4-0.3-0.5c-0.2-0.1-0.4,0-0.6,0.1c-1.2,1.1-4,2.4-5.5,1.9
		c-0.2-0.1-0.4-0.2-0.5-0.3v-0.1V38.9"/>
</g>
</svg>
