<?xml version="1.0" encoding="utf-8"?>
<!-- Generator: Adobe Illustrator 25.2.1, SVG Export Plug-In . SVG Version: 6.00 Build 0)  -->
<svg version="1.1" id="Layer_1" xmlns="http://www.w3.org/2000/svg" xmlns:xlink="http://www.w3.org/1999/xlink" x="0px" y="0px"
	 viewBox="0 0 72 72" style="enable-background:new 0 0 72 72;" xml:space="preserve">
<style type="text/css">
	.st0{fill:#E3BE3A;}
	.st1{fill:#FFFFFF;}
</style>
<g>
	<circle class="st0" cx="36" cy="36.1" r="35.9"/>
</g>
<path class="st1" d="M59.1,55c-0.1-1.1-9.4-15.8-17.3-28c0-1.8-0.2-11.9-0.2-13.7l0,0h0.7c0.5,0,0.9-0.1,1.5-0.1
	c1.2,0,1.9-0.9,1.9-1.8c0-0.8,0-1.4,0-1.9s0-0.9,0-1.4c0-1.6-0.9-2.5-2.4-2.5h-1.2c-1.8,0-4.2,0-5.9,0l0,0h-0.1l0,0
	c-1.8,0-4.2,0-5.9,0H29c-1.6,0-2.4,0.9-2.4,2.5c0,0.5,0,0.9,0,1.4s0,1.1,0,1.9c0,0.9,0.7,1.8,1.9,1.8c0.6,0,1,0,1.5,0.1h0.7l0,0
	c0,1.9-0.2,11.9-0.2,13.7c-2.3,3.7-16.9,26.8-17.3,27.6c-0.5,0.8-0.5,2.6,0.1,3.8c0.4,0.8,1.2,1.3,2,1.4c0.9,0.1,40.6,0.1,41,0.1
	c0.8,0,1.4-0.3,1.9-0.9C59.4,57.7,59.2,55.5,59.1,55z M49,42c2,3.1,3.8,6.1,5.3,8.4H18.1c1.5-2.4,3.4-5.4,5.4-8.6V42H49z M32.3,27.8
	l0.1-0.2v-0.3c0-0.6,0.2-13.8,0.2-14.3c0-0.9-0.9-1.7-1.9-1.7H30c-0.5,0-0.9-0.1-1.5-0.1c0-0.7,0-1.2,0-1.7s0-0.9,0-1.4
	c0-0.3,0-0.4,0-0.4s0.1-0.1,0.4-0.1h1.2c1.8,0,4.2,0,6,0s4.2,0,6,0h1.2c0.3,0,0.4,0,0.4,0s0.1,0.1,0.1,0.4c0,0.5,0,1,0,1.4
	c0,0.5,0,1,0,1.7c-0.6,0-1,0-1.5,0.1h-0.7c-1,0.1-1.9,0.9-1.9,1.7c0,0.6,0.2,13.8,0.2,14.3v0.3l0.2,0.2c2.3,3.6,5.1,8,7.8,12.2H24.7
	C27.6,35.3,30.5,30.7,32.3,27.8z"/>
</svg>
