<?xml version="1.0" encoding="utf-8"?>
<!-- Generator: Adobe Illustrator 25.0.0, SVG Export Plug-In . SVG Version: 6.00 Build 0)  -->
<svg version="1.1" id="Layer_1" xmlns="http://www.w3.org/2000/svg" xmlns:xlink="http://www.w3.org/1999/xlink" x="0px" y="0px"
	 viewBox="0 0 144 144" style="enable-background:new 0 0 144 144;" xml:space="preserve">
<style type="text/css">
	.st0{fill:#4890CD;}
	.st1{enable-background:new    ;}
	.st2{fill:#FFFFFF;}
</style>
<g id="Group_44" transform="translate(-1756.481)">
	<g id="Ellipse_13" transform="translate(1761)">
		<circle class="st0" cx="67.4" cy="72.2" r="64"/>
		<circle class="st0" cx="67.4" cy="72.2" r="63.5"/>
	</g>
	<g class="st1">
		<path class="st2" d="M1807,31.8l-5,0.7l-0.5-3.5l14.2-2l0.5,3.5l-5,0.7l2.1,14.9l-4.2,0.6L1807,31.8z"/>
		<path class="st2" d="M1818,25.3l4.1-0.6l0.7,4.8l0.2,2.5c0.9-1.1,2.2-2.3,4-2.5c3-0.4,4.6,1.5,5.1,5l1.2,8.7l-4.1,0.6l-1.1-8.1
			c-0.3-2-0.9-2.6-2.1-2.4c-1,0.1-1.6,0.7-2.4,1.7l1.3,9.4l-4.1,0.6L1818,25.3z"/>
		<path class="st2" d="M1835.1,35.9c-0.6-4.5,2.2-7.8,5.6-8.2c4-0.6,6.3,2.1,6.9,5.9c0.1,0.7,0.1,1.5,0.1,1.9l-8.4,1.2
			c0.7,2,2.2,2.7,4,2.4c1-0.1,2-0.6,2.9-1.4l1.7,2.3c-1.3,1.2-3.1,2-4.7,2.3C1839.2,42.8,1835.7,40.5,1835.1,35.9z M1843.9,33.1
			c-0.2-1.5-1-2.6-2.7-2.3c-1.3,0.2-2.3,1.2-2.3,3L1843.9,33.1z"/>
	</g>
	<g class="st1">
		<path class="st2" d="M1786.4,59.7l4.1-0.6l2.3,6.3c0.4,1.3,0.8,2.7,1.2,4l0.1,0c0.1-1.4,0.1-2.9,0.2-4.3l0.6-6.7l3.6-0.5l2.5,6.3
			c0.5,1.3,1,2.6,1.5,4l0.1,0c0.1-1.4,0-2.8,0.1-4.2l0.4-6.7l3.8-0.5l-1.4,14.4l-4.8,0.7l-2-5.4c-0.5-1.3-0.9-2.5-1.3-4l-0.1,0
			c0,1.5-0.1,2.8-0.1,4.2l-0.5,5.7l-4.7,0.7L1786.4,59.7z"/>
		<path class="st2" d="M1809.9,66.7c-0.4-2.9,1.7-4.9,7.1-6.2c-0.3-1.2-1-1.9-2.5-1.7c-1.2,0.2-2.3,0.8-3.5,1.8l-1.9-2.5
			c1.6-1.3,3.5-2.4,5.7-2.7c3.6-0.5,5.8,1.2,6.4,5.5l1.1,8l-3.4,0.5l-0.5-1.4l-0.1,0c-1,1.2-2.2,2.1-3.8,2.3
			C1812.1,70.7,1810.2,69,1809.9,66.7z M1817.7,65.4l-0.3-2.4c-2.9,0.8-3.7,1.8-3.6,2.9c0.1,0.9,0.8,1.2,1.8,1.1
			C1816.5,66.8,1817.1,66.2,1817.7,65.4z"/>
		<path class="st2" d="M1825.3,63.3l-0.8-5.7l-1.9,0.3l-0.4-3.1l2.1-0.5l0-3.8l3.4-0.5l0.5,3.7l3.3-0.5l0.5,3.2l-3.3,0.5l0.8,5.6
			c0.2,1.6,1,2.1,2.1,2c0.4-0.1,0.9-0.3,1.3-0.5l1.1,2.9c-0.7,0.3-1.7,0.8-3,0.9C1827.4,68.5,1825.7,66.6,1825.3,63.3z"/>
		<path class="st2" d="M1833.9,60.2c-0.6-4.5,2.2-7.8,5.6-8.2c4-0.6,6.3,2.1,6.9,5.9c0.1,0.7,0.1,1.5,0.1,1.9l-8.4,1.2
			c0.7,2,2.2,2.7,4,2.4c1-0.1,2-0.6,2.9-1.4l1.7,2.3c-1.3,1.2-3.1,2-4.7,2.3C1838,67,1834.5,64.8,1833.9,60.2z M1842.7,57.4
			c-0.2-1.5-1-2.6-2.7-2.3c-1.3,0.2-2.3,1.2-2.3,3L1842.7,57.4z"/>
		<path class="st2" d="M1848.3,51l3.4-0.5l0.6,2.4l0.1,0c0.7-2,2.1-3.1,3.6-3.3c0.8-0.1,1.3-0.1,1.7,0l-0.2,3.7
			c-0.5-0.1-1-0.1-1.6,0c-1,0.1-2.2,1-2.7,3l1.1,8.1l-4.1,0.6L1848.3,51z"/>
		<path class="st2" d="M1859.8,62l1.5-2.8c1.4,0.8,2.6,1.1,3.8,1c1.2-0.2,1.7-0.7,1.6-1.4c-0.1-0.9-1.6-1.2-3.1-1.5
			c-1.8-0.4-3.9-1.3-4.2-3.6c-0.4-2.6,1.5-4.7,4.7-5.1c2.1-0.3,3.9,0.3,5.2,1.1l-1.5,2.7c-1.1-0.6-2.1-0.9-3.1-0.8
			c-1.1,0.2-1.5,0.6-1.5,1.3c0.1,0.9,1.4,1.1,2.9,1.4c1.9,0.4,4,1.1,4.4,3.7c0.4,2.5-1.4,4.8-5.1,5.3
			C1863.6,63.4,1861.4,63,1859.8,62z"/>
	</g>
	<g class="st1">
		<path class="st2" d="M1813.7,80l4.1-0.6l2.3,6.3c0.4,1.3,0.8,2.7,1.2,4l0.1,0c0.1-1.4,0.1-2.9,0.2-4.3l0.6-6.7l3.6-0.5l2.5,6.3
			c0.5,1.3,1,2.6,1.5,4l0.1,0c0.1-1.4,0-2.8,0.1-4.2l0.4-6.7l3.8-0.5l-1.4,14.4l-4.8,0.7l-2-5.4c-0.5-1.3-0.9-2.5-1.3-4l-0.1,0
			c0,1.5-0.1,2.9-0.1,4.2l-0.5,5.7l-4.7,0.7L1813.7,80z"/>
		<path class="st2" d="M1836.7,83.9c-0.6-4.5,2.2-7.8,5.6-8.2c4-0.6,6.3,2.1,6.9,5.9c0.1,0.7,0.1,1.5,0.1,1.9l-8.4,1.2
			c0.7,2,2.2,2.7,4,2.4c1-0.1,2-0.6,2.9-1.4l1.7,2.3c-1.3,1.2-3.1,2-4.7,2.3C1840.8,90.8,1837.3,88.5,1836.7,83.9z M1845.5,81.1
			c-0.2-1.5-1-2.6-2.7-2.3c-1.3,0.2-2.3,1.2-2.3,3L1845.5,81.1z"/>
	</g>
	<g class="st1">
		<path class="st2" d="M1802.4,118.3l1.5-2.8c1.4,0.8,2.6,1.1,3.8,1c1.2-0.2,1.7-0.7,1.6-1.4c-0.1-0.9-1.6-1.2-3.1-1.5
			c-1.8-0.4-3.9-1.3-4.2-3.6c-0.4-2.6,1.5-4.7,4.7-5.1c2.1-0.3,3.9,0.3,5.2,1.1l-1.5,2.7c-1.1-0.6-2.1-0.9-3.1-0.8
			c-1.1,0.2-1.5,0.6-1.5,1.3c0.1,0.9,1.4,1.1,2.9,1.4c1.9,0.4,4,1.1,4.4,3.7c0.4,2.5-1.4,4.8-5.1,5.3
			C1806.2,119.7,1803.9,119.3,1802.4,118.3z"/>
		<path class="st2" d="M1813.5,98.2l4.1-0.6l0.7,4.8l0.2,2.5c0.9-1.1,2.2-2.3,4-2.5c3-0.4,4.6,1.5,5.1,5l1.2,8.7l-4.1,0.6l-1.1-8.1
			c-0.3-2-0.9-2.6-2.1-2.4c-1,0.1-1.6,0.7-2.4,1.7l1.3,9.4l-4.1,0.6L1813.5,98.2z"/>
		<path class="st2" d="M1831.2,111.9c-0.4-2.9,1.7-4.9,7.1-6.2c-0.3-1.2-1-1.9-2.5-1.7c-1.2,0.2-2.3,0.8-3.5,1.8l-1.9-2.5
			c1.6-1.3,3.5-2.4,5.7-2.7c3.6-0.5,5.8,1.2,6.4,5.5l1.1,8l-3.4,0.5l-0.5-1.4l-0.1,0c-1,1.2-2.2,2.1-3.8,2.3
			C1833.4,115.9,1831.5,114.3,1831.2,111.9z M1839,110.6l-0.3-2.4c-2.9,0.8-3.7,1.8-3.6,2.9c0.1,0.9,0.8,1.2,1.8,1.1
			C1837.8,112,1838.4,111.5,1839,110.6z"/>
		<path class="st2" d="M1845.2,99.7l3.4-0.5l0.6,2.4l0.1,0c0.7-2,2.1-3.1,3.6-3.3c0.8-0.1,1.3-0.1,1.7,0l-0.2,3.7
			c-0.5-0.1-1-0.1-1.6,0c-1,0.1-2.2,1-2.7,3l1.1,8.1l-4.1,0.6L1845.2,99.7z"/>
		<path class="st2" d="M1856.3,105.2c-0.6-4.5,2.2-7.8,5.6-8.2c4-0.6,6.3,2.1,6.9,5.9c0.1,0.7,0.1,1.5,0.1,1.9l-8.4,1.2
			c0.7,2,2.2,2.7,4,2.4c1-0.1,2-0.6,2.9-1.4l1.7,2.3c-1.3,1.2-3.1,2-4.7,2.3C1860.4,112.1,1857,109.8,1856.3,105.2z M1865.1,102.4
			c-0.2-1.5-1-2.6-2.7-2.3c-1.3,0.2-2.3,1.2-2.3,3L1865.1,102.4z"/>
	</g>
</g>
</svg>
